<svg xmlns="http://www.w3.org/2000/svg" width="54.138" height="54.137" viewBox="0 0 54.138 54.137">
  <g id="Grupo_1111698" data-name="Grupo 1111698" transform="translate(-4.001 -4.005)">
    <g id="Grupo_1111697" data-name="Grupo 1111697" transform="translate(4.645 4.649)">
      <g id="Grupo_1111696" data-name="Grupo 1111696" transform="translate(0 0)">
        <path id="Trazado_897732" data-name="Trazado 897732" d="M25.447,37.2c-.008-.257-.013-.514-.013-.773a24.771,24.771,0,0,1,21.1-24.5V10l7.334,4.234-7.334,4.234V16.542A20.221,20.221,0,0,0,29.988,36.184L28.01,32.758Z" transform="translate(-23.776 -10)" fill="#4ac994" fill-rule="evenodd"/>
        <path id="Trazado_897733" data-name="Trazado 897733" d="M25.447,53.223c-.008-.257-.013-.514-.013-.773a24.771,24.771,0,0,1,21.1-24.5A25.068,25.068,0,0,0,28.007,48.789Z" transform="translate(-23.776 -26.025)" fill="#34ba82" fill-rule="evenodd"/>
        <path id="Trazado_897734" data-name="Trazado 897734" d="M276.006,46.535l-4.234,7.334-4.234-7.334h1.926a20.221,20.221,0,0,0-19.642-16.546l3.426-1.978-4.439-2.563c.257-.008.514-.013.772-.013a24.771,24.771,0,0,1,24.5,21.1h1.929Z" transform="translate(-223.157 -23.777)" fill="#fd7a6e" fill-rule="evenodd"/>
        <path id="Trazado_897735" data-name="Trazado 897735" d="M10,229.2l4.234-7.334,4.234,7.334H16.542a20.221,20.221,0,0,0,19.642,16.546l-3.426,1.978,4.439,2.563c-.257.008-.514.013-.773.013a24.772,24.772,0,0,1-24.5-21.1H10Z" transform="translate(-10 -199.106)" fill="#5c85da" fill-rule="evenodd"/>
        <path id="Trazado_897736" data-name="Trazado 897736" d="M10,229.248l4.231-7.327A25.075,25.075,0,0,0,37.2,250.335c-.257.008-.514.013-.773.013a24.772,24.772,0,0,1-24.5-21.1H10Z" transform="translate(-10 -199.157)" fill="#4677d5" fill-rule="evenodd"/>
        <path id="Trazado_897737" data-name="Trazado 897737" d="M229.2,276.005l-7.334-4.234,7.334-4.234v1.926a20.22,20.22,0,0,0,16.546-19.642l1.978,3.426,2.563-4.439c.008.257.013.514.013.773a24.772,24.772,0,0,1-21.1,24.5v1.929Z" transform="translate(-199.106 -223.156)" fill="#ffbd1c" fill-rule="evenodd"/>
        <path id="Trazado_897738" data-name="Trazado 897738" d="M137.41,121.038h1.571a1.126,1.126,0,0,1,1.123,1.123v4.173a1.126,1.126,0,0,1-1.123,1.123H137.41a13.465,13.465,0,0,1-1.586,3.826l1.112,1.112a1.126,1.126,0,0,1,0,1.589l-2.95,2.95a1.126,1.126,0,0,1-1.589,0l-1.112-1.112a13.457,13.457,0,0,1-3.826,1.587v1.57a1.126,1.126,0,0,1-1.123,1.123h-4.173a1.126,1.126,0,0,1-1.123-1.123v-1.571a13.466,13.466,0,0,1-3.826-1.586l-1.112,1.112a1.126,1.126,0,0,1-1.589,0l-2.95-2.95a1.126,1.126,0,0,1,0-1.589l1.112-1.112a13.456,13.456,0,0,1-1.587-3.826h-1.57a1.126,1.126,0,0,1-1.123-1.123v-4.173a1.126,1.126,0,0,1,1.123-1.123h1.57a13.466,13.466,0,0,1,1.587-3.826l-1.112-1.112a1.126,1.126,0,0,1,0-1.589l2.95-2.95a1.126,1.126,0,0,1,1.589,0l1.112,1.112a13.466,13.466,0,0,1,3.826-1.586v-1.571a1.126,1.126,0,0,1,1.123-1.123h4.173a1.126,1.126,0,0,1,1.123,1.123v1.57a13.461,13.461,0,0,1,3.826,1.587l1.112-1.112a1.126,1.126,0,0,1,1.589,0l2.95,2.95a1.126,1.126,0,0,1,0,1.589l-1.112,1.112a13.465,13.465,0,0,1,1.586,3.826Z" transform="translate(-97.825 -97.823)" fill="#77899b" fill-rule="evenodd"/>
      </g>
      <circle id="Elipse_11653" data-name="Elipse 11653" cx="9.116" cy="9.116" r="9.116" transform="matrix(0.16, -0.987, 0.987, 0.16, 15.961, 33.961)" fill="#e5eaf1"/>
      <path id="Trazado_897739" data-name="Trazado 897739" d="M206.771,180.751a9.117,9.117,0,0,1-8.069,9.056,9.116,9.116,0,0,1,0-18.112A9.117,9.117,0,0,1,206.771,180.751Z" transform="translate(-171.231 -154.326)" fill="#f3f5fb" fill-rule="evenodd"/>
      <path id="Trazado_897740" data-name="Trazado 897740" d="M127.459,137.409v1.57a1.126,1.126,0,0,1-1.123,1.123h-4.172a1.126,1.126,0,0,1-1.123-1.123v-1.571a13.465,13.465,0,0,1-3.826-1.586l-1.112,1.112a1.126,1.126,0,0,1-1.589,0l-2.95-2.95a1.126,1.126,0,0,1,0-1.589l1.112-1.112a13.456,13.456,0,0,1-1.587-3.826h-1.57a1.126,1.126,0,0,1-1.123-1.123v-4.173a1.126,1.126,0,0,1,1.123-1.123h1.57a13.466,13.466,0,0,1,1.587-3.826l-1.112-1.112a1.126,1.126,0,0,1,0-1.589l2.95-2.95a1.126,1.126,0,0,1,1.589,0l1.112,1.112a13.466,13.466,0,0,1,3.826-1.586v-1.571a1.126,1.126,0,0,1,1.123-1.123h4.173a1.126,1.126,0,0,1,1.123,1.123v1.57a13.187,13.187,0,1,0,0,26.323Z" transform="translate(-97.825 -97.823)" fill="#5f7080" fill-rule="evenodd"/>
      <path id="Trazado_897741" data-name="Trazado 897741" d="M208.161,217.571a1.374,1.374,0,1,1,2.216-1.624l1.63,2.218,3.74-5.087a1.374,1.374,0,0,1,2.216,1.624l-4.831,6.57a1.375,1.375,0,0,1-2.234.024l-2.739-3.725Z" transform="translate(-186.637 -190.762)" fill="#4ac994" fill-rule="evenodd"/>
      <path id="Trazado_897742" data-name="Trazado 897742" d="M311.223,248.808c.008.257.013.514.013.773a24.771,24.771,0,0,1-21.1,24.5,25.069,25.069,0,0,0,18.527-20.835Z" transform="translate(-260.045 -223.156)" fill="#f5b000" fill-rule="evenodd"/>
      <path id="Trazado_897743" data-name="Trazado 897743" d="M276.005,46.535l-4.23,7.327a25.075,25.075,0,0,0-22.967-28.414c.257-.008.514-.013.773-.013a24.772,24.772,0,0,1,24.5,21.1h1.929Z" transform="translate(-223.156 -23.777)" fill="#fb695b" fill-rule="evenodd"/>
    </g>
    <path id="Trazado_897744" data-name="Trazado 897744" d="M35.452,28.207l-4.83,6.57-.009.013a.738.738,0,0,1-.709.3.732.732,0,0,1-.477-.29l-2.738-3.724a.73.73,0,1,1,1.177-.862l1.63,2.218a.644.644,0,0,0,1.038,0l3.741-5.087a.729.729,0,0,1,1.309.32.724.724,0,0,1-.132.541Zm.6-2.058a2.02,2.02,0,0,0-2.82.434l-3.221,4.381L28.9,29.452a2.019,2.019,0,0,0-3.256,2.387h0l2.738,3.724a2.012,2.012,0,0,0,1.321.8,2.035,2.035,0,0,0,.311.024,2.025,2.025,0,0,0,1.645-.854l4.827-6.565a2.018,2.018,0,0,0-.435-2.821Zm-4.986,13.4A8.472,8.472,0,1,0,22.6,31.073,8.481,8.481,0,0,0,31.07,39.545Zm0-18.232a9.76,9.76,0,1,0,9.761,9.76,9.771,9.771,0,0,0-9.761-9.76ZM46.281,33.16V28.987a.479.479,0,0,0-.479-.479H44.231a.645.645,0,0,1-.627-.492,12.774,12.774,0,0,0-1.51-3.643.645.645,0,0,1,.095-.791L43.3,22.47a.483.483,0,0,0,0-.677l-2.951-2.951a.48.48,0,0,0-.677,0l-1.112,1.112a.644.644,0,0,1-.791.095,12.782,12.782,0,0,0-3.643-1.51.646.646,0,0,1-.493-.627v-1.57a.48.48,0,0,0-.479-.479H28.983a.48.48,0,0,0-.479.479v1.57a.644.644,0,0,1-.492.627,12.818,12.818,0,0,0-3.643,1.511.645.645,0,0,1-.791-.1l-1.112-1.112a.48.48,0,0,0-.677,0l-2.95,2.951a.48.48,0,0,0,0,.677l1.112,1.112a.644.644,0,0,1,.095.79,12.824,12.824,0,0,0-1.511,3.644.644.644,0,0,1-.626.492H16.338a.479.479,0,0,0-.479.479V33.16a.479.479,0,0,0,.479.478h1.571a.645.645,0,0,1,.626.493,12.8,12.8,0,0,0,1.511,3.643.645.645,0,0,1-.095.791l-1.112,1.112a.48.48,0,0,0,0,.677l2.95,2.951a.48.48,0,0,0,.677,0l1.112-1.112a.642.642,0,0,1,.791-.095,12.829,12.829,0,0,0,3.643,1.51.644.644,0,0,1,.492.627v1.57a.48.48,0,0,0,.479.479h4.173a.48.48,0,0,0,.479-.479v-1.57a.646.646,0,0,1,.493-.627A12.8,12.8,0,0,0,37.77,42.1a.644.644,0,0,1,.791.095L39.673,43.3a.48.48,0,0,0,.677,0L43.3,40.354a.483.483,0,0,0,0-.677l-1.113-1.112a.645.645,0,0,1-.095-.791,12.754,12.754,0,0,0,1.51-3.643.646.646,0,0,1,.627-.493H45.8a.479.479,0,0,0,.479-.478ZM45.8,27.219H44.728a14.07,14.07,0,0,0-1.276-3.077l.761-.761a1.771,1.771,0,0,0,0-2.5l-2.951-2.95a1.767,1.767,0,0,0-2.5,0l-.76.76a14.04,14.04,0,0,0-3.078-1.276V16.342a1.77,1.77,0,0,0-1.768-1.769H28.983a1.77,1.77,0,0,0-1.768,1.769v1.073a14.172,14.172,0,0,0-3.077,1.276l-.761-.76a1.768,1.768,0,0,0-2.5,0l-2.95,2.95a1.77,1.77,0,0,0,0,2.5l.76.76a14.126,14.126,0,0,0-1.276,3.077H16.338a1.77,1.77,0,0,0-1.768,1.768V33.16a1.769,1.769,0,0,0,1.768,1.767h1.073a14.084,14.084,0,0,0,1.276,3.079l-.76.76a1.77,1.77,0,0,0,0,2.5l2.95,2.95a1.768,1.768,0,0,0,2.5,0l.761-.76a14.089,14.089,0,0,0,3.077,1.275v1.074a1.77,1.77,0,0,0,1.768,1.768h4.173a1.77,1.77,0,0,0,1.768-1.768V44.732A14.061,14.061,0,0,0,38,43.456l.76.76a1.767,1.767,0,0,0,2.5,0l2.951-2.95a1.771,1.771,0,0,0,0-2.5L43.452,38a14.031,14.031,0,0,0,1.276-3.078H45.8A1.77,1.77,0,0,0,47.57,33.16V28.987A1.771,1.771,0,0,0,45.8,27.219Zm7.458,6.233,3.118-5.4h-.811a.644.644,0,0,1-.638-.55A24.263,24.263,0,0,0,32.787,7.013l2.272,1.313a.644.644,0,0,1,0,1.116l-1.578.911A20.889,20.889,0,0,1,51.587,27.291a.644.644,0,0,1-.634.761h-.811l3.117,5.4ZM34.642,54.933A24.263,24.263,0,0,0,55.13,32.791l-1.312,2.272a.644.644,0,0,1-1.116,0l-.912-1.578A20.886,20.886,0,0,1,34.853,51.591a.644.644,0,0,1-.761-.634v-.811l-5.4,3.118,5.4,3.117V55.57a.644.644,0,0,1,.55-.637ZM7.21,34.646A24.26,24.26,0,0,0,29.353,55.133l-2.272-1.311a.644.644,0,0,1,0-1.116l1.578-.911A20.89,20.89,0,0,1,10.552,34.856a.645.645,0,0,1,.634-.761H12L8.879,28.7,5.762,34.1h.811a.645.645,0,0,1,.638.55Zm41.258-6.917a.645.645,0,0,1,.558-.967h1.139A19.6,19.6,0,0,0,31.481,11.507l-3.756,2.169a.644.644,0,0,1-.966-.558V11.978A19.6,19.6,0,0,0,11.5,30.662l2.169,3.757a.645.645,0,0,1-.558.967H11.975A19.6,19.6,0,0,0,30.659,50.64l3.756-2.169a.644.644,0,0,1,.966.558v1.139A19.6,19.6,0,0,0,50.637,31.485l-2.168-3.756ZM27.5,7.214A24.262,24.262,0,0,0,7.01,29.356l1.311-2.272a.644.644,0,0,1,1.116,0l.911,1.578A20.889,20.889,0,0,1,27.287,10.555a.645.645,0,0,1,.76.635V12l5.4-3.118-5.4-3.117v.811a.644.644,0,0,1-.549.637ZM58.053,27.085a.644.644,0,0,0-.558-.323H56.117A25.418,25.418,0,0,0,30.46,5.67L27.725,4.091a.644.644,0,0,0-.966.557V6.027a25.418,25.418,0,0,0-21.1,25.046c0,.2,0,.407.007.61L4.087,34.418a.645.645,0,0,0,.558.967H6.023a25.419,25.419,0,0,0,25.047,21.1c.2,0,.406,0,.61-.008l2.734,1.579a.644.644,0,0,0,.966-.558V56.12a25.418,25.418,0,0,0,21.1-25.047c0-.2,0-.406-.007-.61l1.579-2.734a.644.644,0,0,0,0-.644Z" transform="translate(0 0)" fill="#242222" fill-rule="evenodd"/>
  </g>
</svg>
