<svg xmlns="http://www.w3.org/2000/svg" width="54.141" height="54.137" viewBox="0 0 54.141 54.137">
  <g id="Grupo_1111705" data-name="Grupo 1111705" transform="translate(0 -0.019)">
    <g id="Grupo_1111703" data-name="Grupo 1111703" transform="translate(0.793 0.812)">
      <g id="Grupo_1111701" data-name="Grupo 1111701">
        <path id="Trazado_897745" data-name="Trazado 897745" d="M7.5,458.321v1.692a3.173,3.173,0,0,0,3.173,3.173H38.81a3.173,3.173,0,0,0,3.173-3.173v-1.692Z" transform="translate(-7.5 -410.635)" fill="#fff"/>
        <path id="Trazado_897746" data-name="Trazado 897746" d="M10.144,460.013v-1.692H7.5v1.692a3.173,3.173,0,0,0,3.173,3.173h2.644A3.173,3.173,0,0,1,10.144,460.013Z" transform="translate(-7.5 -410.635)" fill="#e3edf6"/>
        <path id="Trazado_897747" data-name="Trazado 897747" d="M44.914,286.63a2.01,2.01,0,0,0,2.01,2.01h6.77a2.01,2.01,0,0,0,2.01-2.01H64.06V269.494a3.173,3.173,0,0,0-3.173-3.173H38.673a3.173,3.173,0,0,0-3.173,3.173V286.63Z" transform="translate(-32.538 -238.945)" fill="#a4fef1"/>
        <path id="Trazado_897748" data-name="Trazado 897748" d="M118.246,303.38l1.006-.908-.794-1.916-1.354.069-1.156-1.156.069-1.354-1.916-.794-.908,1.006h-1.634l-.908-1.006-1.916.794.069,1.354-1.156,1.156-1.354-.069-.794,1.916,1.006.908v1.634l-1.006.908.794,1.916,1.354-.069,1.156,1.156-.069,1.354,1.916.794.908-1.006h1.634l.908,1.006,1.916-.794-.069-1.354,1.156-1.156,1.354.069.794-1.916-1.006-.908Zm-5.87,3.244A2.427,2.427,0,1,1,114.8,304.2,2.427,2.427,0,0,1,112.376,306.624Z" transform="translate(-95.135 -266.667)" fill="#fff"/>
        <path id="Trazado_897749" data-name="Trazado 897749" d="M41.318,266.321H38.673a3.173,3.173,0,0,0-3.173,3.173V286.63h2.644V269.494A3.173,3.173,0,0,1,41.318,266.321Z" transform="translate(-32.538 -238.945)" fill="#24eed7"/>
        <path id="Trazado_897750" data-name="Trazado 897750" d="M11.632,29.968H28.121a3.173,3.173,0,0,1,3.173,3.173V44.416a3.173,3.173,0,0,1-3.173,3.173H22.944v4.337L16.6,47.589H11.632a3.173,3.173,0,0,1-3.173-3.173V33.141a3.173,3.173,0,0,1,3.173-3.173Z" transform="translate(-8.358 -27.593)" fill="#ff6a47"/>
        <path id="Trazado_897751" data-name="Trazado 897751" d="M277.562,7.515h-20.1a3.173,3.173,0,0,0-3.173,3.173V24.9a3.173,3.173,0,0,0,3.173,3.173h5.124v4.8l7.024-4.8h7.95a3.173,3.173,0,0,0,3.173-3.173V10.688a3.173,3.173,0,0,0-3.173-3.173Z" transform="translate(-228.186 -7.515)" fill="#94b7f7"/>
        <path id="Trazado_897752" data-name="Trazado 897752" d="M317.063,228.968H301.632a3.173,3.173,0,0,0-3.173,3.173v11.275a3.173,3.173,0,0,0,3.173,3.173h5.177v3.279l4.231-3.279h6.023a3.173,3.173,0,0,0,3.173-3.173V232.141A3.173,3.173,0,0,0,317.063,228.968Z" transform="translate(-267.682 -205.543)" fill="#ffc277"/>
        <g id="Grupo_1111700" data-name="Grupo 1111700" transform="translate(3.559 3.028)">
          <path id="Trazado_897753" data-name="Trazado 897753" d="M349.907,264.958l-1.058-2.01h-4.231l-1.058,2.01h-2.116a1.587,1.587,0,0,0-1.587,1.587v4.9a1.587,1.587,0,0,0,1.587,1.587h10.578a1.587,1.587,0,0,0,1.587-1.587v-4.9a1.587,1.587,0,0,0-1.587-1.587Z" transform="translate(-308.261 -238.957)" fill="#fff"/>
          <path id="Trazado_897754" data-name="Trazado 897754" d="M53.042,72.065V70.379a1.587,1.587,0,0,0-1.587-1.587H42.732a1.587,1.587,0,0,0-1.587,1.587v5.936A1.587,1.587,0,0,0,42.732,77.9h8.724a1.587,1.587,0,0,0,1.587-1.587V74.629l3.808,1.058V71.007Z" transform="translate(-41.145 -65.339)" fill="#fff"/>
          <path id="Trazado_897755" data-name="Trazado 897755" d="M349.459,36.145h12.765V53.677H349.459Z" transform="translate(-316.846 -36.145)" fill="#fff"/>
          <g id="Grupo_1111699" data-name="Grupo 1111699" transform="translate(27.218 3.068)">
            <path id="Trazado_897756" data-name="Trazado 897756" d="M306.054,65.145h-7.6V79.61h3.625v4.8l7.024-4.8h2.116V70.1Z" transform="translate(-298.459 -65.145)" fill="#fff"/>
            <path id="Trazado_897757" data-name="Trazado 897757" d="M375.432,70.1h-5.17V65.145Z" transform="translate(-362.667 -65.145)" fill="#fff"/>
          </g>
        </g>
        <path id="Trazado_897758" data-name="Trazado 897758" d="M11.1,30.391A3.173,3.173,0,0,0,8.459,33.52V44.794A3.174,3.174,0,0,0,11.1,47.923Z" transform="translate(-8.358 -27.971)" fill="#fd3501"/>
        <path id="Trazado_897759" data-name="Trazado 897759" d="M256.935,7.938a3.174,3.174,0,0,0-2.644,3.129V25.281a3.174,3.174,0,0,0,2.644,3.129Z" transform="translate(-228.186 -7.893)" fill="#5b92f2"/>
        <path id="Trazado_897760" data-name="Trazado 897760" d="M301.1,229.391a3.174,3.174,0,0,0-2.644,3.129v11.275a3.174,3.174,0,0,0,2.644,3.129Z" transform="translate(-267.682 -205.921)" fill="#fcad42"/>
      </g>
      <g id="Grupo_1111702" data-name="Grupo 1111702" transform="translate(6.4 36.704)">
        <path id="Trazado_897761" data-name="Trazado 897761" d="M68,354.5h1.587v1.587H68Z" transform="translate(-68 -354.502)" fill="#fff"/>
        <path id="Trazado_897762" data-name="Trazado 897762" d="M258,354.5h1.587v1.587H258Z" transform="translate(-237.902 -354.502)" fill="#fff"/>
      </g>
    </g>
    <g id="Grupo_1111704" data-name="Grupo 1111704" transform="translate(0 0.019)">
      <path id="Trazado_897763" data-name="Trazado 897763" d="M112.191,294.678l-1.222-2.951-1.561.08-.657-.657.08-1.561-2.951-1.222-1.047,1.16H103.9l-1.047-1.16-2.951,1.222.08,1.561-.657.657-1.561-.08-1.222,2.951,1.16,1.047v.929l-1.16,1.047,1.222,2.951,1.561-.08.657.657-.08,1.561,2.951,1.222,1.047-1.16h.929l1.047,1.16,2.951-1.222-.08-1.561.657-.657,1.561.08,1.222-2.951-1.16-1.047v-.929Zm-1.894,3.451-.365.882-1.147-.059-1.654,1.654.058,1.147-.882.365-.769-.852H103.2l-.769.852-.882-.365.059-1.147-1.654-1.654-1.147.059-.365-.882.852-.769V295.02l-.852-.769.365-.882,1.147.059,1.654-1.654-.059-1.147.882-.365.769.852h2.339l.769-.852.882.365-.058,1.147,1.654,1.654,1.147-.059.365.882-.852.769v2.339Z" transform="translate(-86.333 -257.866)"/>
      <path id="Trazado_897764" data-name="Trazado 897764" d="M143.523,331.88a3.22,3.22,0,0,0,0,6.44A3.22,3.22,0,0,0,143.523,331.88Zm0,4.853a1.633,1.633,0,0,1,0-3.267A1.633,1.633,0,0,1,143.523,336.733Z" transform="translate(-125.487 -296.776)"/>
      <path id="Trazado_897765" data-name="Trazado 897765" d="M4.927,41.677h4.72l7.385,5.047V41.677h4.383a3.971,3.971,0,0,0,3.967-3.967V26.436a3.971,3.971,0,0,0-3.967-3.967H8.894v1.587H21.415a2.383,2.383,0,0,1,2.38,2.38V37.711a2.383,2.383,0,0,1-2.38,2.38h-5.97v3.627l-5.308-3.627H4.927a2.383,2.383,0,0,1-2.38-2.38V26.436a2.383,2.383,0,0,1,2.38-2.38H7.308V22.469H4.927A3.971,3.971,0,0,0,.96,26.436V37.711a3.971,3.971,0,0,0,3.967,3.967Z" transform="translate(-0.858 -20.094)"/>
      <path id="Trazado_897766" data-name="Trazado 897766" d="M50.175,23.444h-9.58l1.87-1.278H50.17A3.971,3.971,0,0,0,54.136,18.2v-5.54H52.55V18.2a2.384,2.384,0,0,1-2.026,2.354V3.047H36.172V6.115H30.777V20.579h-.705a2.383,2.383,0,0,1-2.38-2.38V3.986a2.383,2.383,0,0,1,2.38-2.38h20.1a2.383,2.383,0,0,1,2.38,2.38v7.087h1.587V3.986A3.971,3.971,0,0,0,50.17.019h-20.1a3.971,3.971,0,0,0-3.967,3.967V18.2a3.971,3.971,0,0,0,3.967,3.967H34.4v1.293a4.006,4.006,0,0,0-3.625,4.288,3.962,3.962,0,0,0-1.635-.353H6.928a3.971,3.971,0,0,0-3.967,3.967V47.7H0V50.19a3.971,3.971,0,0,0,3.967,3.967H32.1A3.971,3.971,0,0,0,36.07,50.19V47.7H33.109V42.3a3.942,3.942,0,0,0,1.635.354h4.383v4.1l5.3-4.1H46.94V41.065H43.88l-3.166,2.454V41.065h-5.97a2.383,2.383,0,0,1-2.38-2.38V27.41A2.383,2.383,0,0,1,34.4,25.055v2.621l3.871-2.646h11.9a2.383,2.383,0,0,1,2.38,2.38V38.685a2.383,2.383,0,0,1-2.38,2.38H48.527v1.587h1.648a3.971,3.971,0,0,0,3.967-3.967V27.41a3.971,3.971,0,0,0-3.967-3.967ZM34.484,50.19a2.383,2.383,0,0,1-2.38,2.38H3.967a2.383,2.383,0,0,1-2.38-2.38v-.9h10.9a2.808,2.808,0,0,0,2.689,2.01h6.77a2.808,2.808,0,0,0,2.689-2.01h9.846ZM23.165,47.7V48.5a1.218,1.218,0,0,1-1.216,1.216h-6.77A1.218,1.218,0,0,1,13.963,48.5V47.7H4.548V31.361a2.383,2.383,0,0,1,2.38-2.38H29.142a2.371,2.371,0,0,1,1.635.651v9.053a3.944,3.944,0,0,0,.745,2.309V47.7H23.165ZM39.959,8.768l2.4,2.3h-2.4Zm-2.2-4.134H48.937V20.579H45.129V11.528L39.485,6.115H37.759V4.634ZM32.364,20.579V7.7h6.009v4.958h5.17v7.92H41.974l-5.985,4.09v-4.09H32.364Z" transform="translate(0 -0.019)"/>
      <path id="Trazado_897767" data-name="Trazado 897767" d="M347.7,264.735v-4.9a2.383,2.383,0,0,0-2.38-2.38h-1.637l-1.058-2.01h-5.189l-1.058,2.01h-1.637a2.383,2.383,0,0,0-2.38,2.38v4.9a2.383,2.383,0,0,0,2.38,2.38h10.578A2.383,2.383,0,0,0,347.7,264.735Zm-1.587,0a.794.794,0,0,1-.793.793H334.738a.794.794,0,0,1-.793-.793v-4.9a.794.794,0,0,1,.793-.793h2.595l1.058-2.01h3.273l1.058,2.01h2.595a.794.794,0,0,1,.793.793v4.9Z" transform="translate(-297.202 -228.429)"/>
      <path id="Trazado_897768" data-name="Trazado 897768" d="M382.7,291.595a2.645,2.645,0,0,0,0,5.289A2.645,2.645,0,0,0,382.7,291.595Zm0,3.7a1.058,1.058,0,0,1,0-2.116A1.058,1.058,0,0,1,382.7,295.3Z" transform="translate(-339.878 -260.753)"/>
      <path id="Trazado_897769" data-name="Trazado 897769" d="M44.749,61.292H36.025a2.383,2.383,0,0,0-2.38,2.38v5.936a2.383,2.383,0,0,0,2.38,2.38h8.724a2.383,2.383,0,0,0,2.38-2.38v-.643l3.808,1.058V63.257l-3.808,1.058v-.642A2.383,2.383,0,0,0,44.749,61.292Zm.793,8.316a.794.794,0,0,1-.793.793H36.025a.794.794,0,0,1-.793-.793V63.672a.794.794,0,0,1,.793-.793h8.724a.794.794,0,0,1,.793.793Zm3.808-4.264v2.592l-2.221-.617V65.961Z" transform="translate(-30.086 -54.811)"/>
      <path id="Trazado_897770" data-name="Trazado 897770" d="M328.379,164.292h6.239v1.587h-6.239Z" transform="translate(-293.644 -146.916)"/>
      <path id="Trazado_897771" data-name="Trazado 897771" d="M328.379,134.292h6.239v1.587h-6.239Z" transform="translate(-293.644 -120.089)"/>
    </g>
  </g>
</svg>
