<svg id="Layer_2" data-name="Layer 2" xmlns="http://www.w3.org/2000/svg" width="62" height="62" viewBox="0 0 62 62">
  <g id="Layer_1" data-name="Layer 1">
    <g id="touch_screen" data-name="touch screen">
      <path id="Trazado_897395" data-name="Trazado 897395" d="M49,16h8a4,4,0,0,1,4,4V42a4,4,0,0,1-4,4H5a4,4,0,0,1-4-4V20a4,4,0,0,1,4-4Z" fill="#8c95a4"/>
      <path id="Trazado_897396" data-name="Trazado 897396" d="M7,16H53V46H7Z" fill="#39c3fc"/>
      <path id="Trazado_897397" data-name="Trazado 897397" d="M7,43H53v3H7Z" fill="#148ce0"/>
      <circle id="Elipse_11650" data-name="Elipse 11650" cx="18" cy="18" r="18" transform="translate(13 1)" fill="#fcd770"/>
      <path id="Trazado_897398" data-name="Trazado 897398" d="M31,1a9.368,9.368,0,0,0-1.5.08,18,18,0,0,1,0,35.84A14.908,14.908,0,0,0,31,37,18,18,0,0,0,31,1Z" fill="#ffc729"/>
      <path id="Trazado_897399" data-name="Trazado 897399" d="M43,29a2,2,0,0,0-2,2V29a2,2,0,0,0-4,0V27a2,2,0,0,0-4,0V17a2,2,0,0,0-4,0V32H27a2,2,0,0,0-2,2V46.34a4,4,0,0,0,1.17,2.83L29,52v9H42V52l1.83-1.83A4,4,0,0,0,45,47.34V31a2,2,0,0,0-2-2Z" fill="#f9e0a6"/>
      <path id="Trazado_897400" data-name="Trazado 897400" d="M29,58H42v3H29Z" fill="#eabd8c"/>
      <path id="Trazado_897401" data-name="Trazado 897401" d="M42,62H29a1,1,0,0,1-1-1V52.41l-2.54-2.53A5,5,0,0,1,24,46.34V34a3,3,0,0,1,3-3h2a1,1,0,0,1,0,2H27a1,1,0,0,0-1,1V46.34a3,3,0,0,0,.88,2.13l2.83,2.82A1.05,1.05,0,0,1,30,52v8H41V52a1.05,1.05,0,0,1,.29-.71l1.83-1.82A3,3,0,0,0,44,47.34V31a1,1,0,1,0-2,0v8a1,1,0,0,1-2,0V31a3,3,0,0,1,6,0V47.34a5,5,0,0,1-1.46,3.54L43,52.41V61a1,1,0,0,1-1,1Z"/>
      <path id="Trazado_897402" data-name="Trazado 897402" d="M29,43a1,1,0,0,1-1-1V17a3,3,0,1,1,6,0V39a1,1,0,0,1-2,0V17a1,1,0,0,0-2,0V42A1,1,0,0,1,29,43Z"/>
      <path id="Trazado_897403" data-name="Trazado 897403" d="M37,40a1,1,0,0,1-1-1V27a1,1,0,0,0-2,0V39a1,1,0,0,1-2,0V27a3,3,0,0,1,6,0V39A1,1,0,0,1,37,40Z"/>
      <path id="Trazado_897404" data-name="Trazado 897404" d="M41,40a1,1,0,0,1-1-1V29a1,1,0,0,0-2,0V39a1,1,0,0,1-2,0V29a3,3,0,0,1,6,0V39A1,1,0,0,1,41,40Z"/>
      <path id="Trazado_897405" data-name="Trazado 897405" d="M25,47H5a5,5,0,0,1-5-5V20a5,5,0,0,1,5-5h8a1,1,0,0,1,0,2H5a3,3,0,0,0-3,3V42a3,3,0,0,0,3,3H25a1,1,0,0,1,0,2Z"/>
      <path id="Trazado_897406" data-name="Trazado 897406" d="M57,47H45a1,1,0,0,1,0-2H57a3,3,0,0,0,3-3V20a3,3,0,0,0-3-3H49a1,1,0,0,1,0-2h8a5,5,0,0,1,5,5V42a5,5,0,0,1-5,5Z"/>
      <path id="Trazado_897407" data-name="Trazado 897407" d="M57,35a1,1,0,0,1-1-1V28a1,1,0,0,1,2,0v6A1,1,0,0,1,57,35Z"/>
      <path id="Trazado_897408" data-name="Trazado 897408" d="M53,47a1,1,0,0,1-1-1V16a1,1,0,0,1,2,0V46A1,1,0,0,1,53,47Z"/>
      <path id="Trazado_897409" data-name="Trazado 897409" d="M7,47a1,1,0,0,1-1-1V16a1,1,0,0,1,2,0V46A1,1,0,0,1,7,47Z"/>
      <path id="Trazado_897410" data-name="Trazado 897410" d="M38.38,28a.91.91,0,0,1-.39-.08,1,1,0,0,1-.54-1.3A19.85,19.85,0,0,0,39,19C39,8.64,30.47,1.86,30.38,1.79A1,1,0,0,1,31.61.21C32,.51,41,7.64,41,19a21.83,21.83,0,0,1-1.7,8.38,1,1,0,0,1-.92.62Z"/>
      <path id="Trazado_897411" data-name="Trazado 897411" d="M31,11c-9.39,0-12.67-4.22-12.8-4.4a1,1,0,0,1,1.59-1.21C19.85,5.46,22.73,9,31,9S42.18,5.43,42.21,5.39A1,1,0,0,1,43.8,6.6C43.67,6.78,40.39,11,31,11Z"/>
      <path id="Trazado_897412" data-name="Trazado 897412" d="M19,33a1,1,0,0,1-.8-1.6c.12-.15,2.91-3.77,10.73-4.33a1,1,0,1,1,.14,2c-6.91.49-9.25,3.5-9.27,3.53a1,1,0,0,1-.8.4Z"/>
      <path id="Trazado_897413" data-name="Trazado 897413" d="M26.41,33a1,1,0,0,1-.81-.42A23.45,23.45,0,0,1,21,19C21,7.64,30,.51,30.39.21a1,1,0,0,1,1.23,1.58C31.53,1.86,23,8.64,23,19a21.17,21.17,0,0,0,4.23,12.42A1,1,0,0,1,26.41,33Z"/>
      <path id="Trazado_897414" data-name="Trazado 897414" d="M31,16a1,1,0,0,1-1-1V1a1,1,0,0,1,2,0V15A1,1,0,0,1,31,16Z"/>
      <path id="Trazado_897415" data-name="Trazado 897415" d="M49,20H33a1,1,0,0,1,0-2H49a1,1,0,0,1,0,2Z"/>
      <path id="Trazado_897416" data-name="Trazado 897416" d="M29,20H13a1,1,0,0,1,0-2H29a1,1,0,0,1,0,2Z"/>
      <path id="Trazado_897417" data-name="Trazado 897417" d="M25,37a1,1,0,0,1-.33-.06,19,19,0,1,1,21.11-6,1,1,0,0,1-1.56-1.25A17,17,0,1,0,25.33,35,1.014,1.014,0,1,1,25,37Z"/>
    </g>
  </g>
</svg>
