<svg xmlns="http://www.w3.org/2000/svg" width="60" height="59.966" viewBox="0 0 60 59.966">
  <g id="Grupo_1111622" data-name="Grupo 1111622" transform="translate(-26 -26.132)">
    <path id="Trazado_897418" data-name="Trazado 897418" d="M200.864,47.423a2.517,2.517,0,0,0-2.512,0,.733.733,0,0,1-.951-.181,8.323,8.323,0,0,1-1.2-2.078.738.738,0,0,1,.319-.914,2.51,2.51,0,0,0,0-4.353.739.739,0,0,1-.319-.915,8.3,8.3,0,0,1,1.2-2.077.733.733,0,0,1,.951-.182,2.509,2.509,0,0,0,3.767-2.176.737.737,0,0,1,.635-.733,8.481,8.481,0,0,1,2.4,0,.737.737,0,0,1,.634.733,2.509,2.509,0,0,0,3.768,2.176.737.737,0,0,1,.95.182,8.336,8.336,0,0,1,1.2,2.076.737.737,0,0,1-.319.916,2.509,2.509,0,0,0,0,4.352.738.738,0,0,1,.319.915,8.36,8.36,0,0,1-1.2,2.077.732.732,0,0,1-.95.181,2.511,2.511,0,0,0-3.768,2.177.737.737,0,0,1-.633.733,8.4,8.4,0,0,1-2.4,0,.737.737,0,0,1-.634-.733,2.517,2.517,0,0,0-1.255-2.178Zm6.383-5.349a3.295,3.295,0,1,0-3.295,3.295A3.3,3.3,0,0,0,207.247,42.074Z" transform="translate(-147.952 -6.607)" fill="#ffd266" fill-rule="evenodd"/>
    <path id="Trazado_897419" data-name="Trazado 897419" d="M48.346,226.712a.34.34,0,0,0,.339-.339v-6.51a1.424,1.424,0,0,1,2.848,0v8.273a1.425,1.425,0,0,1-1.424,1.424H45.972a.338.338,0,0,0-.339.339v20.352a2.08,2.08,0,0,1-4.16,0V241.84a.339.339,0,1,0-.678,0v8.412a2.079,2.079,0,0,1-4.159,0V231.289a.339.339,0,1,0-.678,0v8.537l-.421-.154a2.953,2.953,0,0,1-1.935-2.76v-7.26a2.956,2.956,0,0,1,2.693-2.939h12.05Z" transform="translate(-6.611 -167.224)" fill="#fd4755" fill-rule="evenodd"/>
    <path id="Trazado_897420" data-name="Trazado 897420" d="M231.863,231.529a3.149,3.149,0,1,1,3.149,3.149,3.152,3.152,0,0,1-3.149-3.149Z" transform="translate(-179.011 -175.868)" fill="#f6dccd" fill-rule="evenodd"/>
    <path id="Trazado_897421" data-name="Trazado 897421" d="M193.886,226.712a.34.34,0,0,0,.339-.339v-6.51a1.424,1.424,0,0,1,2.847,0v8.273a1.425,1.425,0,0,1-1.423,1.424h-4.138a.339.339,0,0,0-.339.339v20.352a2.079,2.079,0,0,1-4.159,0V241.84a.339.339,0,1,0-.678,0v8.412a2.08,2.08,0,0,1-4.16,0V229.9a.339.339,0,0,0-.339-.339H177.7a1.425,1.425,0,0,1-1.424-1.424v-8.273a1.424,1.424,0,0,1,2.848,0v6.51a.339.339,0,0,0,.339.339h14.423Z" transform="translate(-130.674 -167.224)" fill="#60b7ff" fill-rule="evenodd"/>
    <path id="Trazado_897422" data-name="Trazado 897422" d="M396.513,231.529a3.149,3.149,0,1,1,3.149,3.149,3.153,3.153,0,0,1-3.149-3.149Z" transform="translate(-322.185 -175.868)" fill="#f6dccd" fill-rule="evenodd"/>
    <path id="Trazado_897423" data-name="Trazado 897423" d="M356.163,226.713a2.957,2.957,0,0,1,2.695,2.939v7.26a2.955,2.955,0,0,1-1.935,2.76l-.421.154v-8.538a.339.339,0,1,0-.679,0v18.963a2.08,2.08,0,0,1-4.16,0V241.84a.339.339,0,1,0-.678,0v8.412a2.079,2.079,0,0,1-4.159,0V229.9a.339.339,0,0,0-.339-.339H342.35a1.426,1.426,0,0,1-1.424-1.424v-8.273a1.424,1.424,0,0,1,2.848,0v6.51a.339.339,0,0,0,.339.339H356.15Z" transform="translate(-273.849 -167.224)" fill="#00e499" fill-rule="evenodd"/>
    <path id="Trazado_897424" data-name="Trazado 897424" d="M73.5,231.529a3.149,3.149,0,1,1-3.149-3.149,3.151,3.151,0,0,1,3.149,3.149Z" transform="translate(-35.824 -175.868)" fill="#f6dccd" fill-rule="evenodd"/>
    <path id="Trazado_897425" data-name="Trazado 897425" d="M34.419,49.353V35.467a.652.652,0,0,1,.652-.652H44.58a.652.652,0,0,1,0,1.3H35.723V49.353a.652.652,0,1,1-1.3,0Zm32.35-13.886a.652.652,0,0,1,.652-.652h9.507a.653.653,0,0,1,.652.652V49.353a.652.652,0,1,1-1.3,0V36.119H67.421A.651.651,0,0,1,66.769,35.467ZM56,45.857a.652.652,0,0,1,.652.652v2.843a.652.652,0,1,1-1.3,0V46.509A.653.653,0,0,1,56,45.857Zm-7.28-7.942a2.823,2.823,0,0,0,0-4.9.426.426,0,0,1-.184-.528,8.034,8.034,0,0,1,1.157-2,.42.42,0,0,1,.549-.106,2.822,2.822,0,0,0,4.237-2.447.424.424,0,0,1,.366-.423,8.148,8.148,0,0,1,2.309,0,.424.424,0,0,1,.365.423,2.822,2.822,0,0,0,4.238,2.447.423.423,0,0,1,.548.106,8.03,8.03,0,0,1,1.157,2,.423.423,0,0,1-.184.528,2.823,2.823,0,0,0,0,4.9.422.422,0,0,1,.184.527,8.026,8.026,0,0,1-1.157,2,.417.417,0,0,1-.548.1,2.824,2.824,0,0,0-4.238,2.448.425.425,0,0,1-.365.423,8.158,8.158,0,0,1-2.309,0,.425.425,0,0,1-.366-.423,2.824,2.824,0,0,0-4.237-2.448.418.418,0,0,1-.549-.1,8.046,8.046,0,0,1-1.157-2,.424.424,0,0,1,.184-.527Zm-.649-1.131a1.718,1.718,0,0,0-.745,2.142,9.31,9.31,0,0,0,1.345,2.324,1.72,1.72,0,0,0,2.225.425,1.518,1.518,0,0,1,2.279,1.316,1.72,1.72,0,0,0,1.484,1.717,9.48,9.48,0,0,0,2.681,0,1.717,1.717,0,0,0,1.484-1.717,1.519,1.519,0,0,1,2.28-1.316,1.721,1.721,0,0,0,2.226-.425,9.382,9.382,0,0,0,1.345-2.324,1.718,1.718,0,0,0-.745-2.142,1.517,1.517,0,0,1,0-2.633,1.719,1.719,0,0,0,.745-2.142,9.371,9.371,0,0,0-1.345-2.324,1.72,1.72,0,0,0-2.226-.425,1.519,1.519,0,0,1-2.28-1.317,1.716,1.716,0,0,0-1.484-1.715,9.5,9.5,0,0,0-2.681,0,1.718,1.718,0,0,0-1.484,1.717A1.518,1.518,0,0,1,50.9,29.259a1.717,1.717,0,0,0-2.225.425,9.3,9.3,0,0,0-1.345,2.324,1.718,1.718,0,0,0,.745,2.142,1.519,1.519,0,0,1,0,2.633ZM56,33.163a2.3,2.3,0,1,0,2.3,2.3A2.307,2.307,0,0,0,56,33.163Zm0,5.911a3.608,3.608,0,1,0-3.608-3.608A3.612,3.612,0,0,0,56,39.074ZM84.7,69.687a2.641,2.641,0,0,1-1.73,2.467V64.065a.652.652,0,0,0-1.3,0V83.027a1.767,1.767,0,0,1-3.534,0V74.615a.652.652,0,1,0-1.3,0v8.412a1.766,1.766,0,0,1-3.532,0V62.675a.652.652,0,0,0-.652-.652H68.5a1.113,1.113,0,0,1-1.111-1.111V52.639a1.111,1.111,0,0,1,2.222,0v6.51a.652.652,0,0,0,.652.652H82.288A2.644,2.644,0,0,1,84.7,62.428v7.26ZM64.975,62.023H60.837a.652.652,0,0,0-.652.652V83.027a1.766,1.766,0,0,1-3.532,0V74.616a.652.652,0,1,0-1.3,0v8.412a1.767,1.767,0,0,1-3.534,0V62.676a.652.652,0,0,0-.652-.652H47.025a1.112,1.112,0,0,1-1.111-1.111V52.639a1.111,1.111,0,0,1,2.222,0v6.51a.652.652,0,0,0,.652.652H63.212a.653.653,0,0,0,.652-.652v-6.51a1.111,1.111,0,0,1,2.221,0v8.273a1.112,1.112,0,0,1-1.11,1.111Zm-21.477,0H39.361a.652.652,0,0,0-.652.652V83.027a1.767,1.767,0,0,1-3.534,0V74.616a.652.652,0,1,0-1.3,0v8.412a1.766,1.766,0,0,1-3.532,0V64.065a.652.652,0,1,0-1.3,0v8.089a2.64,2.64,0,0,1-1.73-2.467v-7.26A2.643,2.643,0,0,1,29.711,59.8H41.735a.653.653,0,0,0,.652-.652v-6.51a1.111,1.111,0,0,1,2.222,0v8.273A1.112,1.112,0,0,1,43.5,62.023ZM31.687,55.661a2.836,2.836,0,1,0,2.836-2.836,2.84,2.84,0,0,0-2.836,2.836Zm21.478,0A2.836,2.836,0,1,0,56,52.825a2.838,2.838,0,0,0-2.836,2.836Zm21.476,0a2.836,2.836,0,1,0,2.836-2.836,2.839,2.839,0,0,0-2.836,2.836ZM82.362,58.5H80.489a4.141,4.141,0,1,0-6.024,0H70.916V52.639a2.412,2.412,0,0,0-4.179-1.645,2.412,2.412,0,0,0-4.178,1.645V58.5H59.012a4.139,4.139,0,1,0-6.025,0H49.44V52.639a2.412,2.412,0,0,0-4.179-1.645,2.413,2.413,0,0,0-4.179,1.645V58.5H37.535a4.141,4.141,0,1,0-6.025,0H29.636A3.954,3.954,0,0,0,26,62.428v7.26a3.951,3.951,0,0,0,3.034,3.827v9.512a3.069,3.069,0,0,0,5.488,1.89,3.07,3.07,0,0,0,5.49-1.89v-19.7H43.5a2.4,2.4,0,0,0,1.764-.771,2.4,2.4,0,0,0,1.763.771H50.51v19.7A3.07,3.07,0,0,0,56,84.917a3.069,3.069,0,0,0,5.489-1.89v-19.7h3.486a2.4,2.4,0,0,0,1.763-.771,2.406,2.406,0,0,0,1.763.771h3.487v19.7a3.069,3.069,0,0,0,5.489,1.89,3.07,3.07,0,0,0,5.49-1.89V73.515A3.951,3.951,0,0,0,86,69.688v-7.26a3.954,3.954,0,0,0-3.637-3.93Z" transform="translate(0 0)" fill-rule="evenodd"/>
  </g>
</svg>
