<svg xmlns="http://www.w3.org/2000/svg" width="61.898" height="61.9" viewBox="0 0 61.898 61.9">
  <g id="Layer_2" data-name="Layer 2" transform="translate(0 0.1)">
    <g id="Layer_1" data-name="Layer 1" transform="translate(0 -0.416)">
      <g id="world_wide_web" data-name="world wide web">
        <path id="Trazado_897917" data-name="Trazado 897917" d="M58.908,52.934V16.993A3.993,3.993,0,0,0,54.915,13H6.993A3.993,3.993,0,0,0,3,16.993V52.934Z" transform="translate(-0.005 0.296)" fill="#ececec"/>
        <path id="Trazado_897918" data-name="Trazado 897918" d="M3,50H58.908v3H3Z" transform="translate(-0.005 0.235)" fill="#b6c1ce"/>
        <path id="Trazado_897919" data-name="Trazado 897919" d="M7,52.941V18a1,1,0,0,1,1-1H53.923a1,1,0,0,1,1,1V52.941Z" transform="translate(-0.011 0.289)" fill="#39c3fc"/>
        <path id="Trazado_897920" data-name="Trazado 897920" d="M7,50H54.921v3H7Z" transform="translate(-0.011 0.235)" fill="#148ce0"/>
        <path id="Trazado_897921" data-name="Trazado 897921" d="M1,53H60.9v3.993a3.993,3.993,0,0,1-3.993,3.993H4.993A3.993,3.993,0,0,1,1,56.993Z" transform="translate(-0.002 0.23)" fill="#8c95a4"/>
        <path id="Trazado_897922" data-name="Trazado 897922" d="M1.14,58a3.993,3.993,0,0,0,3.854,3H56.909a3.993,3.993,0,0,0,3.854-3Z" transform="translate(-0.002 0.222)" fill="#798699"/>
        <path id="Trazado_897923" data-name="Trazado 897923" d="M21,53v2a2,2,0,0,0,2,2H38.971a2,2,0,0,0,2-2V53Z" transform="translate(-0.034 0.23)" fill="#ececec"/>
        <path id="Trazado_897924" data-name="Trazado 897924" d="M56.907,61.984H4.992A4.992,4.992,0,0,1,0,56.992V53a1,1,0,0,1,1-1H60.9a1,1,0,0,1,1,1v3.993a4.992,4.992,0,0,1-4.992,4.992ZM2,54v3a3,3,0,0,0,3,3H56.907a3,3,0,0,0,3-3V54Z" transform="translate(0 0.232)"/>
        <path id="Trazado_897925" data-name="Trazado 897925" d="M38.969,57.99H23a3,3,0,0,1-3-3V53a1,1,0,0,1,2,0v2a1,1,0,0,0,1,1H38.969a1,1,0,0,0,1-1V53a1,1,0,0,1,2,0v2A3,3,0,0,1,38.969,57.99Z" transform="translate(-0.033 0.232)"/>
        <circle id="Elipse_11680" data-name="Elipse 11680" cx="1" cy="1" r="1" transform="translate(3.949 56.316)"/>
        <circle id="Elipse_11681" data-name="Elipse 11681" cx="1" cy="1" r="1" transform="translate(7.949 56.316)"/>
        <circle id="Elipse_11682" data-name="Elipse 11682" cx="1" cy="1" r="1" transform="translate(11.949 56.316)"/>
        <path id="Trazado_897926" data-name="Trazado 897926" d="M3,53.931a1,1,0,0,1-1-1V16.992A4.992,4.992,0,0,1,6.992,12h7.987a1,1,0,0,1,0,2H6.992a3,3,0,0,0-3,3V52.933A1,1,0,0,1,3,53.931Z" transform="translate(-0.003 0.298)"/>
        <path id="Trazado_897927" data-name="Trazado 897927" d="M38.649,14H21a1,1,0,1,1,0-2H38.649a1,1,0,1,1,0,2Z" transform="translate(-0.033 0.298)"/>
        <path id="Trazado_897928" data-name="Trazado 897928" d="M58.983,53.931a1,1,0,0,1-1-1V16.992a3,3,0,0,0-3-3H49.558a1,1,0,0,1,0-2h5.431a4.992,4.992,0,0,1,4.992,4.992V52.933A1,1,0,0,1,58.983,53.931Z" transform="translate(-0.08 0.298)"/>
        <path id="Trazado_897929" data-name="Trazado 897929" d="M54.99,49.944a1,1,0,0,1-1-1V18H50a1,1,0,0,1,0-2h3.993a2,2,0,0,1,2,2V48.946A1,1,0,0,1,54.99,49.944Z" transform="translate(-0.08 0.291)"/>
        <path id="Trazado_897930" data-name="Trazado 897930" d="M7,49.944a1,1,0,0,1-1-1V18a2,2,0,0,1,2-2h3a1,1,0,0,1,0,2H8V48.946A1,1,0,0,1,7,49.944Z" transform="translate(-0.01 0.291)"/>
        <circle id="Elipse_11683" data-name="Elipse 11683" cx="14" cy="14" r="14" transform="translate(16.949 19.316)" fill="#92e0c0"/>
        <path id="Trazado_897931" data-name="Trazado 897931" d="M31,19a14.736,14.736,0,0,0-1.5.08,13.977,13.977,0,0,1,0,27.794,14.735,14.735,0,0,0,1.5.08A13.977,13.977,0,1,0,31,19Z" transform="translate(-0.048 0.286)" fill="#48c397"/>
        <path id="Trazado_897932" data-name="Trazado 897932" d="M30.975,47.951A14.975,14.975,0,1,1,45.951,32.975,14.975,14.975,0,0,1,30.975,47.951Zm0-27.954A12.979,12.979,0,1,0,43.954,32.975,12.979,12.979,0,0,0,30.975,20Z" transform="translate(-0.026 0.288)"/>
        <path id="Trazado_897933" data-name="Trazado 897933" d="M31,47.951a1,1,0,0,1-1-1V19a1,1,0,1,1,2,0V46.952A1,1,0,0,1,31,47.951Z" transform="translate(-0.049 0.288)"/>
        <path id="Trazado_897934" data-name="Trazado 897934" d="M44.952,34H17a1,1,0,1,1,0-2H44.952a1,1,0,0,1,0,2Z" transform="translate(-0.026 0.265)"/>
        <path id="Trazado_897935" data-name="Trazado 897935" d="M31,47.951a1,1,0,0,1-.579-1.807c.06-.05,6.569-4.832,6.569-13.168s-6.509-13.118-6.569-13.168a1,1,0,0,1,1.158-1.617,19.079,19.079,0,0,1,7.408,14.786,19.079,19.079,0,0,1-7.408,14.786A1,1,0,0,1,31,47.951Z" transform="translate(-0.049 0.288)"/>
        <path id="Trazado_897936" data-name="Trazado 897936" d="M30.984,26.992c-6.33,0-9.554-3.155-9.694-3.285A1,1,0,0,1,22.7,22.29c.06.05,2.855,2.706,8.286,2.706s8.256-2.676,8.286-2.706a1,1,0,0,1,1.408,1.418C40.538,23.837,37.313,26.992,30.984,26.992Z" transform="translate(-0.034 0.281)"/>
        <path id="Trazado_897937" data-name="Trazado 897937" d="M30.987,47.951a1,1,0,0,1-.579-.19A19.079,19.079,0,0,1,23,32.975,19.079,19.079,0,0,1,30.408,18.19a1,1,0,1,1,1.158,1.617c-.06.05-6.569,4.832-6.569,13.168s6.509,13.118,6.569,13.168a1,1,0,0,1-.579,1.807Z" transform="translate(-0.038 0.288)"/>
        <path id="Trazado_897938" data-name="Trazado 897938" d="M39.969,43.992a1,1,0,0,1-.7-.29C39.21,43.652,36.415,41,30.984,41S22.727,43.672,22.7,43.7a1,1,0,1,1-1.408-1.418c.14-.13,3.364-3.285,9.694-3.285s9.554,3.155,9.694,3.285a1,1,0,0,1-.709,1.707Z" transform="translate(-0.034 0.253)"/>
        <path id="Trazado_897939" data-name="Trazado 897939" d="M11,8.987h3.993v9.984h5.99V8.987h3.993L17.989,1Z" transform="translate(-0.018 0.316)" fill="#fcd770"/>
        <path id="Trazado_897940" data-name="Trazado 897940" d="M21,18.971V8.987h3.993L18,1V18.971Z" transform="translate(-0.029 0.316)" fill="#ffc729"/>
        <path id="Trazado_897941" data-name="Trazado 897941" d="M46.984,10.984V1h-5.99v9.984H37l6.989,7.987,6.989-7.987Z" transform="translate(-0.061 0.316)" fill="#fcd770"/>
        <path id="Trazado_897942" data-name="Trazado 897942" d="M47,1H44V18.971l6.989-7.987H47Z" transform="translate(-0.072 0.316)" fill="#ffc729"/>
        <path id="Trazado_897943" data-name="Trazado 897943" d="M14.992,19.967a1,1,0,0,1-1-1V9.984H11a1,1,0,0,1-.749-1.657L17.238.339a1,1,0,0,1,1.5,0l6.989,7.987a1,1,0,0,1-.749,1.657h-3v4.992a1,1,0,0,1-2,0V8.985a1,1,0,0,1,1-1h1.8L17.987,2.516,13.195,7.987h1.8a1,1,0,0,1,1,1v9.984A1,1,0,0,1,14.992,19.967Z" transform="translate(-0.016 0.317)"/>
        <circle id="Elipse_11684" data-name="Elipse 11684" cx="1" cy="1" r="1" transform="translate(19.949 18.316)"/>
        <path id="Trazado_897944" data-name="Trazado 897944" d="M43.987,19.967a1,1,0,0,1-.749-.339L36.25,11.641A1,1,0,0,1,37,9.984h3V1a1,1,0,1,1,2,0v9.984a1,1,0,0,1-1,1h-1.8l4.792,5.471,4.792-5.471h-1.8a1,1,0,0,1-1-1V4.992a1,1,0,0,1,2,0V9.984h3a1,1,0,0,1,.749,1.657l-6.989,7.987A1,1,0,0,1,43.987,19.967Z" transform="translate(-0.059 0.317)"/>
        <circle id="Elipse_11685" data-name="Elipse 11685" cx="1" cy="1" r="1" transform="translate(45.949 0.316)"/>
      </g>
    </g>
  </g>
</svg>
