<svg xmlns="http://www.w3.org/2000/svg" width="82.695" height="86.941" viewBox="0 0 82.695 86.941">
  <g id="Grupo_1111627" data-name="Grupo 1111627" transform="translate(-13.455 -0.999)">
    <g id="Grupo_1111626" data-name="Grupo 1111626" transform="translate(14.733 2.278)">
      <g id="Grupo_1111624" data-name="Grupo 1111624" transform="translate(0 10.383)">
        <path id="Trazado_897468" data-name="Trazado 897468" d="M198.375,405.083l-30.255-.6,7.5-15.251,14.661-.616Z" transform="translate(-143.032 -334.203)" fill="#e0dfe1" fill-rule="evenodd"/>
        <path id="Trazado_897469" data-name="Trazado 897469" d="M122.95,471.793h40.879a2.7,2.7,0,1,1,0,5.405H122.95a2.7,2.7,0,1,1,0-5.405Z" transform="translate(-103.32 -403.197)" fill="#f0f0f0" fill-rule="evenodd"/>
        <path id="Trazado_897470" data-name="Trazado 897470" d="M24.673,69.406H97.366a3.734,3.734,0,0,1,3.723,3.723v50.209a3.734,3.734,0,0,1-3.723,3.723H24.673a3.734,3.734,0,0,1-3.723-3.723V73.129A3.734,3.734,0,0,1,24.673,69.406Z" transform="translate(-20.95 -69.406)" fill="#f0f0f0" fill-rule="evenodd"/>
        <path id="Trazado_897471" data-name="Trazado 897471" d="M50.379,98.187H119.41a.649.649,0,0,1,.648.647v46.547a.649.649,0,0,1-.648.647H50.379a.649.649,0,0,1-.648-.647V98.835A.65.65,0,0,1,50.379,98.187Z" transform="translate(-44.825 -93.281)" fill="#c9f0ff" fill-rule="evenodd"/>
      </g>
      <g id="Grupo_1111625" data-name="Grupo 1111625" transform="translate(11.218)">
        <path id="Trazado_897472" data-name="Trazado 897472" d="M90.06,8.5h50.765a3.313,3.313,0,0,1,3.3,3.3V62.9a3.313,3.313,0,0,1-3.3,3.3H90.06a3.313,3.313,0,0,1-3.3-3.3V11.8A3.313,3.313,0,0,1,90.06,8.5Z" transform="translate(-86.757 -8.499)" fill="#9ae7fd" fill-rule="evenodd"/>
        <path id="Trazado_897473" data-name="Trazado 897473" d="M86.757,16.893h57.371V11.8a3.313,3.313,0,0,0-3.3-3.3H90.06a3.313,3.313,0,0,0-3.3,3.3Z" transform="translate(-86.757 -8.499)" fill="#43a2ff" fill-rule="evenodd"/>
      </g>
      <path id="Trazado_897474" data-name="Trazado 897474" d="M138.8,171.355l9.617,7.387-3.5.393,3.534,6.12-2.433,1.4-3.534-6.12-2.092,2.837Z" transform="translate(-118.707 -143.593)" fill="#7a7785" fill-rule="evenodd"/>
      <path id="Trazado_897475" data-name="Trazado 897475" d="M231.555,177.494h27.124a.684.684,0,0,1,.682.682v4.855a.684.684,0,0,1-.682.682H231.555a.684.684,0,0,1-.682-.682v-4.855A.684.684,0,0,1,231.555,177.494Z" transform="translate(-195.087 -148.685)" fill="#ffd54f" fill-rule="evenodd"/>
      <path id="Trazado_897476" data-name="Trazado 897476" d="M325.01,253.329H336.2a.684.684,0,0,0,.682-.682V239.966a.684.684,0,0,0-.682-.682H325.01a.684.684,0,0,0-.682.682v12.681A.684.684,0,0,0,325.01,253.329Z" transform="translate(-272.61 -199.942)" fill="#ff6372" fill-rule="evenodd"/>
      <path id="Trazado_897477" data-name="Trazado 897477" d="M231.555,253.329h9.186a.684.684,0,0,0,.682-.682V239.966a.684.684,0,0,0-.682-.682h-9.186a.684.684,0,0,0-.682.682v12.681A.684.684,0,0,0,231.555,253.329Z" transform="translate(-195.087 -199.942)" fill="#6ce75a" fill-rule="evenodd"/>
      <path id="Trazado_897478" data-name="Trazado 897478" d="M114.7,285.2h12.88a.684.684,0,0,1,.682.682v4.855a.684.684,0,0,1-.682.682H114.7a.684.684,0,0,1-.682-.682v-4.855A.684.684,0,0,1,114.7,285.2Z" transform="translate(-98.149 -238.026)" fill="#43a2ff" fill-rule="evenodd"/>
      <path id="Trazado_897479" data-name="Trazado 897479" d="M114.8,83.048h46.83a.792.792,0,0,1,.789.789v9.235a.792.792,0,0,1-.789.789H114.8a.792.792,0,0,1-.789-.789V83.837A.792.792,0,0,1,114.8,83.048Z" transform="translate(-98.15 -70.339)" fill="#f0f0f0" fill-rule="evenodd"/>
      <path id="Trazado_897480" data-name="Trazado 897480" d="M114.8,83.048h11.453V93.861H114.8a.792.792,0,0,1-.789-.789V83.837A.792.792,0,0,1,114.8,83.048Z" transform="translate(-98.15 -70.339)" fill="#ffd54f" fill-rule="evenodd"/>
    </g>
    <path id="Trazado_897481" data-name="Trazado 897481" d="M31.876,50.725H43.561v3.661H31.876ZM30.6,56.944H44.841a1.278,1.278,0,0,0,1.278-1.278V49.446a1.278,1.278,0,0,0-1.278-1.278H30.6a1.279,1.279,0,0,0-1.278,1.278v6.219A1.279,1.279,0,0,0,30.6,56.944Zm29.192-2.558H51.8V42.9h7.992Zm1.278-14.045H50.519A1.278,1.278,0,0,0,49.24,41.62V55.665a1.278,1.278,0,0,0,1.278,1.278H61.068a1.279,1.279,0,0,0,1.278-1.278V41.62A1.279,1.279,0,0,0,61.068,40.341ZM77.729,54.386h-10V42.9h10Zm1.278-14.045H66.45a1.278,1.278,0,0,0-1.278,1.278V55.665a1.279,1.279,0,0,0,1.278,1.278H79.007a1.279,1.279,0,0,0,1.278-1.278V41.62A1.279,1.279,0,0,0,79.007,40.341Zm-1.278-4.315H51.8V32.365H77.728v3.661Zm1.278-6.218H50.519a1.278,1.278,0,0,0-1.278,1.278v6.219a1.278,1.278,0,0,0,1.278,1.278H79.007a1.279,1.279,0,0,0,1.278-1.278V31.086A1.279,1.279,0,0,0,79.007,29.808ZM42.5,43.6l-2.893-5.013a1.281,1.281,0,0,0-1.037-.638l-.072,0a1.28,1.28,0,0,0-1.029.52l-.21.285-.769-5.815,4.652,3.573-.353.039a1.278,1.278,0,0,0-.965,1.91l2.894,5.013Zm3.167-5.829a1.278,1.278,0,0,0-.453-1.357L35.6,29.026a1.278,1.278,0,0,0-2.046,1.182l1.587,12.022a1.279,1.279,0,0,0,2.3.591l.932-1.265,2.556,4.429a1.281,1.281,0,0,0,1.747.469l2.432-1.406a1.279,1.279,0,0,0,.469-1.746L43.02,38.873l1.561-.175A1.278,1.278,0,0,0,45.671,37.769Zm9.458-17.377a1.279,1.279,0,0,1,1.279-1.278H74.57a1.278,1.278,0,0,1,0,2.557H56.407A1.279,1.279,0,0,1,55.128,20.393Zm-9.131,0a1.279,1.279,0,0,1,1.278-1.278h3.407a1.278,1.278,0,0,1,0,2.557H47.276A1.279,1.279,0,0,1,46,20.393Zm-10.17,1.024a1.046,1.046,0,1,1,1.047-1.046A1.048,1.048,0,0,1,35.828,21.416Zm4.746.217-1.192-.688a3.87,3.87,0,0,0,.049-.575A3.61,3.61,0,1,0,38.1,23.16l1.19.688a1.279,1.279,0,0,0,1.279-2.214Zm-8.7-5.369v8.257H41.56V16.264Zm45.853,8.257V16.264H44.117v8.257ZM31.386,27.078H78.217a2.071,2.071,0,0,0,2.068-2.068V15.775a2.071,2.071,0,0,0-2.068-2.068H31.386a2.07,2.07,0,0,0-2.067,2.068V25.01a2.07,2.07,0,0,0,2.067,2.068Zm11.227-20.6A1.278,1.278,0,0,1,43.891,5.2h1.8a1.278,1.278,0,0,1,0,2.557h-1.8A1.277,1.277,0,0,1,42.613,6.474Zm-6.064,0A1.278,1.278,0,0,1,37.827,5.2h1.8a1.278,1.278,0,0,1,0,2.557h-1.8A1.279,1.279,0,0,1,36.549,6.474Zm-6.062,0A1.279,1.279,0,0,1,31.765,5.2h1.8a1.278,1.278,0,1,1,0,2.557h-1.8A1.279,1.279,0,0,1,30.487,6.474Zm24.986,0A1.279,1.279,0,0,1,56.752,5.2h20.39a1.278,1.278,0,0,1,0,2.557H56.752A1.279,1.279,0,0,1,55.472,6.474Zm38.12,60.118V16.383a2.447,2.447,0,0,0-2.444-2.444H84.6v2.349h5.365a1.279,1.279,0,0,1,1.278,1.278V65.408a1.279,1.279,0,0,1-1.278,1.278H19.64a1.278,1.278,0,0,1-1.278-1.278V17.567a1.278,1.278,0,0,1,1.278-1.278h5.032V13.939H18.454a2.446,2.446,0,0,0-2.443,2.444V66.592a2.446,2.446,0,0,0,2.443,2.444H91.148a2.446,2.446,0,0,0,2.444-2.444ZM66.9,79.977H42.7l4.122-8.384H62.778Zm9.766,3.982a1.425,1.425,0,0,1-1.425,1.424H34.363a1.424,1.424,0,1,1,0-2.849H75.241A1.426,1.426,0,0,1,76.666,83.959ZM29.254,3.556a2.028,2.028,0,0,0-2.025,2.025V9.393H82.043V5.581a2.028,2.028,0,0,0-2.025-2.025Zm0,57.7a4.588,4.588,0,0,1-4.582-4.582V18.846H20.918V64.13H88.686V18.846H84.6V56.677a4.588,4.588,0,0,1-4.582,4.582Zm52.789-4.582V11.95H27.229V56.677A2.027,2.027,0,0,0,29.254,58.7H80.018A2.027,2.027,0,0,0,82.043,56.677Zm9.1-45.3H84.6v-5.8A4.587,4.587,0,0,0,80.018,1H29.254a4.587,4.587,0,0,0-4.582,4.582v5.8H18.454a5.007,5.007,0,0,0-5,5V66.592a5.007,5.007,0,0,0,5,5H43.978l-4.122,8.384H34.363a3.982,3.982,0,1,0,0,7.963H75.241a3.982,3.982,0,1,0,0-7.963H69.749l-4.122-8.384H91.148a5.007,5.007,0,0,0,5-5V16.383a5.007,5.007,0,0,0-5-5Z" transform="translate(0)" fill-rule="evenodd"/>
  </g>
</svg>
