<svg id="Grupo_1111621" data-name="Grupo 1111621" xmlns="http://www.w3.org/2000/svg" width="60" height="60" viewBox="0 0 60 60">
  <circle id="Elipse_11648" data-name="Elipse 11648" cx="29" cy="29" r="29" transform="translate(1 1)" fill="#02a9f4"/>
  <path id="Trazado_897390" data-name="Trazado 897390" d="M30,1q-.755,0-1.5.038a29,29,0,0,1,0,57.924Q29.246,59,30,59A29,29,0,1,0,30,1Z" fill="#0377bc"/>
  <circle id="Elipse_11649" data-name="Elipse 11649" cx="16" cy="16" r="16" transform="translate(14 14)" fill="#a4c400"/>
  <path id="Trazado_897391" data-name="Trazado 897391" d="M30,14c-.506,0-1.006.03-1.5.076a15.994,15.994,0,0,1,0,31.848c.494.046.994.076,1.5.076a16,16,0,0,0,0-32Z" fill="#90ac00"/>
  <path id="Trazado_897392" data-name="Trazado 897392" d="M26,38a1.992,1.992,0,0,1-1.414-.586l-4-4a2,2,0,1,1,2.828-2.828L26,33.171,36.586,22.586a2,2,0,1,1,2.828,2.828l-12,12A1.992,1.992,0,0,1,26,38Z" fill="#f5f5f5"/>
  <path id="Trazado_897393" data-name="Trazado 897393" d="M30,0A30,30,0,1,0,60,30,30,30,0,0,0,30,0ZM46.949,29A16.885,16.885,0,0,0,45.6,23.254a48.035,48.035,0,0,0-1.68-8.09,18.936,18.936,0,0,0,6.326-4.478A27.892,27.892,0,0,1,57.975,29ZM30,45A15,15,0,1,1,45,30,15,15,0,0,1,30,45ZM40.313,16.517c.6-.184,1.173-.39,1.741-.6.285.961.547,1.944.772,2.961A17.163,17.163,0,0,0,40.313,16.517ZM38.1,15.057A16.875,16.875,0,0,0,31,13.051V2.082c4.125.622,8.016,5.052,10.443,11.929A30.132,30.132,0,0,1,38.1,15.057ZM29,2.082V13.051a16.875,16.875,0,0,0-7.1,2.006,30.151,30.151,0,0,1-3.344-1.046C20.984,7.134,24.874,2.7,29,2.082ZM17.946,15.915c.568.212,1.141.418,1.741.6a17.163,17.163,0,0,0-2.513,2.359c.226-1.014.486-2,.772-2.959Zm1.739,27.567c-.6.183-1.17.39-1.739.6-.285-.96-.547-1.944-.772-2.96a17.142,17.142,0,0,0,2.511,2.36ZM21.9,44.941A16.872,16.872,0,0,0,29,46.949V57.918c-4.125-.622-8.016-5.052-10.443-11.929A29.969,29.969,0,0,1,21.9,44.941ZM31,57.918V46.949a16.875,16.875,0,0,0,7.1-2.006,30.153,30.153,0,0,1,3.344,1.046C39.016,52.866,35.126,57.3,31,57.918ZM42.054,44.085c-.568-.212-1.141-.418-1.741-.6a17.163,17.163,0,0,0,2.513-2.359C42.6,42.14,42.34,43.124,42.054,44.085Zm6.761-34.8A16.627,16.627,0,0,1,43.3,13.252C41.673,8.68,39.458,5.127,36.888,2.859A27.972,27.972,0,0,1,48.815,9.281ZM16.7,13.252a16.627,16.627,0,0,1-5.519-3.971A27.959,27.959,0,0,1,23.112,2.86C20.541,5.127,18.327,8.68,16.7,13.252ZM9.757,10.686a18.947,18.947,0,0,0,6.326,4.478,47.921,47.921,0,0,0-1.677,8.085A16.863,16.863,0,0,0,13.051,29H2.025A27.892,27.892,0,0,1,9.757,10.686ZM2.025,31H13.051A16.885,16.885,0,0,0,14.4,36.746a48.035,48.035,0,0,0,1.68,8.09,18.936,18.936,0,0,0-6.326,4.478A27.892,27.892,0,0,1,2.025,31Zm9.16,19.719A16.627,16.627,0,0,1,16.7,46.748c1.623,4.572,3.838,8.125,6.408,10.393a27.972,27.972,0,0,1-11.923-6.422ZM43.3,46.748a16.627,16.627,0,0,1,5.519,3.971A27.959,27.959,0,0,1,36.888,57.14C39.459,54.873,41.673,51.32,43.3,46.748Zm6.947,2.566a18.947,18.947,0,0,0-6.326-4.478A47.92,47.92,0,0,0,45.6,36.751,16.863,16.863,0,0,0,46.949,31H57.975a27.892,27.892,0,0,1-7.732,18.314Z"/>
  <path id="Trazado_897394" data-name="Trazado 897394" d="M40.121,21.879a3,3,0,0,0-4.242,0L26,31.757l-1.879-1.878a3,3,0,1,0-4.242,4.242l4,4a3,3,0,0,0,4.242,0l12-12a3,3,0,0,0,0-4.243Zm-1.414,2.828-12,12a1.023,1.023,0,0,1-1.414,0l-4-4a1,1,0,1,1,1.414-1.414l2.586,2.585a1,1,0,0,0,1.414,0L37.293,23.293a1,1,0,1,1,1.414,1.414Z"/>
</svg>
