<svg xmlns="http://www.w3.org/2000/svg" width="61.019" height="54.137" viewBox="0 0 61.019 54.137">
  <g id="Grupo_1111728" data-name="Grupo 1111728" transform="translate(-1.001 -29.76)">
    <g id="Grupo_1111727" data-name="Grupo 1111727" transform="translate(1.958 40.595)">
      <g id="Grupo_1111722" data-name="Grupo 1111722">
        <path id="Trazado_897787" data-name="Trazado 897787" d="M9,135.979a2.977,2.977,0,1,1,2.977,2.977A2.977,2.977,0,0,1,9,135.979Zm56.625,12.684a2.977,2.977,0,1,0-2.977,2.977A2.976,2.976,0,0,0,65.625,148.663Zm0-25.368a2.977,2.977,0,1,1-2.977-2.977A2.977,2.977,0,0,1,65.625,123.3Zm2.48,12.684a2.977,2.977,0,1,0-2.977,2.977A2.977,2.977,0,0,0,68.1,135.979ZM11.48,148.663a2.977,2.977,0,1,1,2.977,2.977A2.976,2.976,0,0,1,11.48,148.663Zm0-25.368a2.977,2.977,0,1,0,2.977-2.977A2.976,2.976,0,0,0,11.48,123.3Z" transform="translate(-9 -120.319)" fill="#64b5f6" fill-rule="evenodd"/>
        <path id="Trazado_897788" data-name="Trazado 897788" d="M17.071,138.09a2.977,2.977,0,1,1-4.333,3.937,2.977,2.977,0,0,0,4.333-3.937Zm51.845,15.052a2.972,2.972,0,0,0-1.173-2.368,2.977,2.977,0,0,1-4.333,3.937,2.977,2.977,0,0,0,5.506-1.57Zm0-25.368a2.977,2.977,0,0,1-5.506,1.57,2.977,2.977,0,0,0,4.333-3.938,2.972,2.972,0,0,1,1.173,2.368Zm2.48,12.684a2.971,2.971,0,0,0-1.173-2.368,2.977,2.977,0,0,1-4.333,3.937,2.977,2.977,0,0,0,5.506-1.57ZM19.551,150.774a2.977,2.977,0,1,1-4.333,3.937,2.977,2.977,0,0,0,4.333-3.937Zm-4.333-21.431a2.977,2.977,0,1,0,4.333-3.937,2.977,2.977,0,0,1-4.333,3.937Z" transform="translate(-12.291 -124.797)" fill="#42a5f5" fill-rule="evenodd"/>
      </g>
      <g id="Grupo_1111723" data-name="Grupo 1111723" transform="translate(14.013 0.122)">
        <path id="Trazado_897789" data-name="Trazado 897789" d="M228.859,415.4v3.888a3.159,3.159,0,0,1-3.151,3.151h-2.235a3.158,3.158,0,0,1-3.151-3.151v-2.83Z" transform="translate(-209.05 -380.219)" fill="#e2e3e3" fill-rule="evenodd"/>
        <path id="Trazado_897790" data-name="Trazado 897790" d="M256.775,415.4v3.888a3.159,3.159,0,0,1-3.151,3.152h-1.592a3.159,3.159,0,0,0,3.151-3.152V415.6Z" transform="translate(-236.967 -380.22)" fill="#ddd" fill-rule="evenodd"/>
        <path id="Trazado_897791" data-name="Trazado 897791" d="M141.66,121.34a15.541,15.541,0,0,1,7.943,28.9,3.076,3.076,0,0,0-1.538,2.707v3.789a2.14,2.14,0,0,1-2.136,2.136h-8.537a2.14,2.14,0,0,1-2.136-2.136v-3.789a3.076,3.076,0,0,0-1.538-2.707,15.541,15.541,0,0,1,7.943-28.9Z" transform="translate(-126.121 -121.34)" fill="#ffda2d" fill-rule="evenodd"/>
        <path id="Trazado_897792" data-name="Trazado 897792" d="M246.828,121.34a15.541,15.541,0,0,1,7.943,28.9,3.076,3.076,0,0,0-1.538,2.707v3.789a2.14,2.14,0,0,1-2.136,2.136H248.6a2.14,2.14,0,0,0,2.136-2.136v-3.789a3.076,3.076,0,0,1,1.538-2.707,15.542,15.542,0,0,0-6.7-28.848Q246.2,121.341,246.828,121.34Z" transform="translate(-231.289 -121.34)" fill="#ffc700" fill-rule="evenodd"/>
        <path id="Trazado_897793" data-name="Trazado 897793" d="M202.467,404.123v1.561a2.14,2.14,0,0,0,2.136,2.136h8.538a2.14,2.14,0,0,0,2.136-2.136v-1.561Z" transform="translate(-193.333 -370.289)" fill="#eff4f7" fill-rule="evenodd"/>
        <path id="Trazado_897794" data-name="Trazado 897794" d="M270.841,407.82h2.493a2.14,2.14,0,0,0,2.136-2.136v-1.561h-2.493v1.561A2.14,2.14,0,0,1,270.841,407.82Z" transform="translate(-253.526 -370.289)" fill="#e2e3e3" fill-rule="evenodd"/>
      </g>
      <g id="Grupo_1111724" data-name="Grupo 1111724" transform="translate(16.685 4.599)">
        <path id="Trazado_897795" data-name="Trazado 897795" d="M165.1,180.032a.955.955,0,1,1,.845,1.712,12.1,12.1,0,0,1-12.485-1.06.956.956,0,0,1-1.91.076l-.183-2.279a.957.957,0,0,1,1.044-1.027l2.263.182a.956.956,0,0,1,.353,1.809,10.218,10.218,0,0,0,10.073.587Zm5.287-2.038a.956.956,0,0,1,.076,1.91l-2.279.183a.957.957,0,0,1-1.027-1.044l.182-2.263a.956.956,0,0,1,1.809-.353,10.217,10.217,0,0,0,.586-10.074.955.955,0,1,1,1.712-.845,12.1,12.1,0,0,1-1.06,12.485Zm-2.69-16.928a.956.956,0,0,1,1.91-.076l.183,2.279a.957.957,0,0,1-1.044,1.027l-2.263-.182a.956.956,0,0,1-.353-1.809,10.217,10.217,0,0,0-10.074-.586.955.955,0,1,1-.845-1.712,12.1,12.1,0,0,1,12.485,1.06Zm-16.927,2.69a.956.956,0,0,1-.076-1.91l2.279-.183A.957.957,0,0,1,154,162.708l-.182,2.263a.956.956,0,0,1-1.809.353,10.217,10.217,0,0,0-.586,10.074.955.955,0,0,1-1.712.845,12.1,12.1,0,0,1,1.06-12.485Z" transform="translate(-148.458 -158.754)" fill="#ffc700" fill-rule="evenodd"/>
      </g>
      <g id="Grupo_1111726" data-name="Grupo 1111726" transform="translate(22.81 8.901)">
        <ellipse id="Elipse_11654" data-name="Elipse 11654" cx="6.598" cy="6.599" rx="6.598" ry="6.599" transform="translate(0 13.197) rotate(-88.625)" fill="#64b5f6"/>
        <g id="Grupo_1111725" data-name="Grupo 1111725" transform="translate(0.144 0.161)">
          <path id="Trazado_897796" data-name="Trazado 897796" d="M207.448,196.061a6.587,6.587,0,0,1,5.225,2.57,6.6,6.6,0,0,0-9.254,9.254,6.6,6.6,0,0,1,4.029-11.824Z" transform="translate(-200.85 -196.061)" fill="#42a5f5" fill-rule="evenodd"/>
          <path id="Trazado_897797" data-name="Trazado 897797" d="M228.281,233.348a1.193,1.193,0,0,1,1.692,1.683l-3.81,3.845a1.193,1.193,0,0,1-1.678.014l-2.125-2.071a1.193,1.193,0,0,1,1.664-1.711l1.279,1.246Z" transform="translate(-219.469 -228.577)" fill="#42a5f5" fill-rule="evenodd"/>
        </g>
      </g>
    </g>
    <path id="Trazado_897798" data-name="Trazado 897798" d="M42.274,64.253a.957.957,0,0,1-.877,1.031l-2.279.183-.076,0a.955.955,0,0,1-.954-1.034l.182-2.278a.956.956,0,0,1,1.809-.353,10.221,10.221,0,0,0,.586-10.07.957.957,0,0,1,1.716-.849,12.132,12.132,0,0,1-1.058,12.487.956.956,0,0,1,.951.879ZM25.709,46.667a.957.957,0,0,1,.433-1.282,12.129,12.129,0,0,1,12.487,1.059.957.957,0,0,1,1.91-.074l.182,2.278a.955.955,0,0,1-.954,1.034l-.077,0-2.278-.183a.957.957,0,0,1-.353-1.809A10.221,10.221,0,0,0,26.991,47.1.956.956,0,0,1,25.709,46.667Zm11.6,19.177a.957.957,0,0,1-.433,1.282,12.134,12.134,0,0,1-12.487-1.057.957.957,0,0,1-.88.951c-.027,0-.053,0-.078,0a.958.958,0,0,1-.953-.882L22.3,63.863a.955.955,0,0,1,1.03-1.03l2.279.182a.957.957,0,0,1,.353,1.809,10.22,10.22,0,0,0,10.069.586A.957.957,0,0,1,37.312,65.844Zm-15.39-3.787a.943.943,0,0,1-.424.1.958.958,0,0,1-.859-.534A12.133,12.133,0,0,1,21.7,49.136a.957.957,0,0,1-.074-1.91l2.278-.182a.957.957,0,0,1,1.031,1.03l-.183,2.279a.959.959,0,0,1-.953.881.706.706,0,0,1-.078,0,.957.957,0,0,1-.778-.525,10.224,10.224,0,0,0-.586,10.071.956.956,0,0,1-.433,1.281Zm-4.01-27.439a.957.957,0,1,1,1.658-.958L21.846,37.6a.956.956,0,0,1-.35,1.307.946.946,0,0,1-.477.129.958.958,0,0,1-.83-.478ZM41.174,37.6l2.277-3.943a.957.957,0,1,1,1.657.958l-2.275,3.943A.961.961,0,0,1,42,39.04a.946.946,0,0,1-.477-.129.956.956,0,0,1-.35-1.307ZM30.553,35.271V30.717a.957.957,0,0,1,1.914,0v4.554a.957.957,0,0,1-1.914,0Zm8.41,33.52a14.58,14.58,0,1,0-14.906,0,4.019,4.019,0,0,1,2.006,3.528v.445H36.958V72.32A4.021,4.021,0,0,1,38.963,68.791Zm-3.184,8.5H27.241a1.181,1.181,0,0,1-1.179-1.179v-1.43H36.958v1.43a1.181,1.181,0,0,1-1.179,1.179Zm-3.152,4.695H30.393A2.2,2.2,0,0,1,28.2,79.79V79.2h6.623v.587A2.2,2.2,0,0,1,32.627,81.983Zm25-13.044a2.019,2.019,0,1,1-2.018-2.02A2.021,2.021,0,0,1,57.625,68.939ZM7.414,70.958a2.02,2.02,0,1,1,2.019-2.019A2.022,2.022,0,0,1,7.414,70.958ZM4.935,58.275a2.02,2.02,0,1,1,2.019-2.019A2.021,2.021,0,0,1,4.935,58.275Zm.46-14.7a2.02,2.02,0,1,1,2.02,2.019A2.022,2.022,0,0,1,5.395,43.571Zm50.212-2.019a2.019,2.019,0,1,1-2.02,2.019A2.021,2.021,0,0,1,55.607,41.552Zm2.479,12.684a2.02,2.02,0,1,1-2.019,2.02A2.022,2.022,0,0,1,58.085,54.236ZM54.27,57.212a3.934,3.934,0,1,0,0-1.914H47.977a16.407,16.407,0,0,0-.724-3.974h3.3a.957.957,0,0,0,.768-.386L54.1,47.2a3.941,3.941,0,1,0-1.535-1.144l-2.493,3.35H46.516a16.493,16.493,0,0,0-30.012,0H12.952l-2.493-3.35A3.931,3.931,0,1,0,8.924,47.2L11.7,50.937a.958.958,0,0,0,.768.386h3.3a16.378,16.378,0,0,0-.725,3.974H8.75a3.934,3.934,0,1,0,0,1.914h6.294a16.577,16.577,0,0,0,.725,3.975h-3.3a.958.958,0,0,0-.768.386L8.924,65.308a3.894,3.894,0,0,0-1.51-.3,3.94,3.94,0,1,0,3.044,1.447l2.493-3.35H16.5q.333.73.737,1.427a16.589,16.589,0,0,0,5.841,5.907,2.121,2.121,0,0,1,1.071,1.885v3.789a3.1,3.1,0,0,0,2.136,2.941v.74A4.113,4.113,0,0,0,30.393,83.9h2.235a4.113,4.113,0,0,0,4.109-4.108v-.74a3.1,3.1,0,0,0,2.136-2.941V72.32a2.121,2.121,0,0,1,1.071-1.885,16.582,16.582,0,0,0,5.841-5.907,15.942,15.942,0,0,0,.737-1.427h3.548l2.493,3.35A3.937,3.937,0,1,0,54.1,65.308l-2.779-3.734a.957.957,0,0,0-.768-.386h-3.3a16.577,16.577,0,0,0,.725-3.975Zm-19.119-3.56a.958.958,0,0,1,.006,1.354l-3.81,3.845A.956.956,0,0,1,30,58.863l-2.125-2.071a.958.958,0,0,1,1.337-1.372l1.445,1.409L33.8,53.659a.957.957,0,0,1,1.353-.006ZM31.51,61.9a5.641,5.641,0,1,1,5.641-5.641A5.648,5.648,0,0,1,31.51,61.9Zm0-13.2a7.556,7.556,0,1,0,7.555,7.556A7.565,7.565,0,0,0,31.51,48.7Z" fill-rule="evenodd"/>
  </g>
</svg>
