<svg id="Talk-Interview" xmlns="http://www.w3.org/2000/svg" width="84.849" height="84.849" viewBox="0 0 84.849 84.849">
  <path id="Trazado_874695" data-name="Trazado 874695" d="M74.253,43.828V66.455a2.837,2.837,0,0,1-2.828,2.828H37.485a2.837,2.837,0,0,1-2.828-2.828V59.384L29,53.727,34.657,50.9V43.828A2.837,2.837,0,0,1,37.485,41H71.424A2.837,2.837,0,0,1,74.253,43.828Z" transform="translate(9.182 14.152)" fill="#ffd422"/>
  <g id="Grupo_1105797" data-name="Grupo 1105797" transform="translate(50.44 66.508)">
    <ellipse id="Elipse_11615" data-name="Elipse 11615" cx="3.439" cy="2.293" rx="3.439" ry="2.293" transform="translate(20.635 0)" fill="#e6e7e8"/>
    <ellipse id="Elipse_11616" data-name="Elipse 11616" cx="2.293" cy="2.293" rx="2.293" ry="2.293" transform="translate(11.464 0)" fill="#e6e7e8"/>
    <ellipse id="Elipse_11617" data-name="Elipse 11617" cx="2.293" cy="2.293" rx="2.293" ry="2.293" transform="translate(0 0)" fill="#e6e7e8"/>
  </g>
  <path id="Trazado_874696" data-name="Trazado 874696" d="M48.253,18.556,42.6,21.384v7.071a2.837,2.837,0,0,1-2.828,2.828H5.828A2.837,2.837,0,0,1,3,28.455V5.828A2.837,2.837,0,0,1,5.828,3H39.768A2.837,2.837,0,0,1,42.6,5.828V12.9Z" transform="translate(-1.586 -1.586)" fill="#00ccb3"/>
  <path id="Trazado_874697" data-name="Trazado 874697" d="M31.481,61.675v2.97H18.754L16.18,55.905l1.16-1.16,4.242,1.414.99-3.96,3.875,1.725a8.485,8.485,0,0,1,5.034,7.75Z" transform="translate(3.873 18.79)" fill="#5aaae7"/>
  <ellipse id="Elipse_11618" data-name="Elipse 11618" cx="2.293" cy="2.293" rx="2.293" ry="2.293" transform="translate(29.806 13.772)" fill="#e6e7e8"/>
  <path id="Trazado_874698" data-name="Trazado 874698" d="M22.646,52.7l-.99,3.96-4.242-1.414L16,52.414,18.828,51Z" transform="translate(3.798 18.293)" fill="#1e81ce"/>
  <ellipse id="Elipse_11619" data-name="Elipse 11619" cx="2.293" cy="2.293" rx="2.293" ry="2.293" transform="translate(18.342 13.772)" fill="#e6e7e8"/>
  <path id="Trazado_874699" data-name="Trazado 874699" d="M17.911,54.82l2.574,8.739H12l2.574-8.739,1.669,1.669Z" transform="translate(2.141 19.876)" fill="#ed1c24"/>
  <path id="Trazado_874700" data-name="Trazado 874700" d="M17.242,52l1.414,2.828-1.16,1.16-1.669,1.669L14.16,55.988,13,54.828,14.414,52Z" transform="translate(2.556 18.708)" fill="#ed1c24"/>
  <path id="Trazado_874701" data-name="Trazado 874701" d="M15.946,52.414l-1.414,2.828L10.29,56.657,9.3,52.7,13.118,51Z" transform="translate(1.023 18.293)" fill="#1e81ce"/>
  <path id="Trazado_874702" data-name="Trazado 874702" d="M18.3,55.905l-2.574,8.739H3v-2.97a8.484,8.484,0,0,1,5.032-7.749L11.909,52.2l.99,3.96,4.242-1.414Z" transform="translate(-1.586 18.79)" fill="#5aaae7"/>
  <ellipse id="Elipse_11620" data-name="Elipse 11620" cx="3.439" cy="2.293" rx="3.439" ry="2.293" transform="translate(6.878 13.772)" fill="#e6e7e8"/>
  <path id="Trazado_874703" data-name="Trazado 874703" d="M23.431,39a2.828,2.828,0,0,1,0,5.657,2.871,2.871,0,0,1-1.471-.41,7.817,7.817,0,0,0,.057-1V39.382A2.828,2.828,0,0,1,23.431,39Z" transform="translate(6.266 13.324)" fill="#ffb655"/>
  <path id="Trazado_874704" data-name="Trazado 874704" d="M32.283,34.657V38.9l-2.828,2.828h-.792a2.841,2.841,0,0,1-2.687-1.937l-.764-2.305-2.644,1.98a11.288,11.288,0,0,1-6.788,2.263H9.657L5.414,37.485l1.414-2.828L4,29H26.626A5.657,5.657,0,0,1,32.283,34.657Z" transform="translate(-1.172 9.182)" fill="#57565c"/>
  <path id="Trazado_874705" data-name="Trazado 874705" d="M27.8,41.038V44.9a7.817,7.817,0,0,1-.057,1,9.81,9.81,0,0,1-5.6,7.933A9.923,9.923,0,0,1,10.9,51.9a9.811,9.811,0,0,1-2.842-6A7.819,7.819,0,0,1,8,44.9V39.242h6.123a11.288,11.288,0,0,0,6.788-2.263L23.556,35l.764,2.305a2.841,2.841,0,0,0,2.687,1.937H27.8Z" transform="translate(0.485 11.667)" fill="#ffc477"/>
  <path id="Trazado_874706" data-name="Trazado 874706" d="M20.485,48v4.242l-2.828,1.414H14.828L12,52.242V48Z" transform="translate(2.141 17.051)" fill="#ffc477"/>
  <path id="Trazado_874707" data-name="Trazado 874707" d="M9.244,43.242a7.819,7.819,0,0,0,.057,1,2.871,2.871,0,0,1-1.471.41,2.828,2.828,0,1,1,1.414-5.275Z" transform="translate(-0.759 13.324)" fill="#ffb655"/>
  <path id="Trazado_874708" data-name="Trazado 874708" d="M20.485,48.32v1.414a9.839,9.839,0,0,1-8.485,0V48.32A9.84,9.84,0,0,0,20.485,48.32Z" transform="translate(2.141 17.184)" fill="#ffb655"/>
  <path id="Trazado_874709" data-name="Trazado 874709" d="M68.229,26.574a4.337,4.337,0,0,0,.707-2.362,4.242,4.242,0,0,0-4.242-4.242V14.313a11.313,11.313,0,1,0-22.626,0V19.97a4.242,4.242,0,0,0-4.242,4.242,4.337,4.337,0,0,0,.707,2.362,7.071,7.071,0,0,0,1.8,12.968,9.311,9.311,0,0,1,1.117-.594l3.846-1.711c1.089,2.291,4.3,3.945,8.089,3.945s7-1.655,8.089-3.945l3.846,1.711a9.312,9.312,0,0,1,1.117.594h.014a7.071,7.071,0,0,0,1.782-12.968Z" transform="translate(11.67 -1.586)" fill="#57565c"/>
  <path id="Trazado_874710" data-name="Trazado 874710" d="M66.036,30.016h-.014a9.309,9.309,0,0,0-1.117-.594l-3.846-1.711-3.1-1.372L57.212,26H48.727l-.749.325v.014l-3.1,1.372-3.846,1.711a9.309,9.309,0,0,0-1.117.594A8.5,8.5,0,0,0,36,37.172v1.556H69.939V37.172a8.54,8.54,0,0,0-3.9-7.156Z" transform="translate(12.081 7.94)" fill="#ed539d"/>
  <path id="Trazado_874711" data-name="Trazado 874711" d="M58.458,28.954c-1.089,2.291-4.3,3.945-8.089,3.945s-7-1.655-8.089-3.945l3.846-1.711V23h8.485v4.242Z" transform="translate(14.682 6.697)" fill="#ffc477"/>
  <path id="Trazado_874712" data-name="Trazado 874712" d="M53.485,23v1.867a9.84,9.84,0,0,1-8.485,0V23Z" transform="translate(15.808 6.697)" fill="#ffb655"/>
  <path id="Trazado_874713" data-name="Trazado 874713" d="M58.9,14.242a5.657,5.657,0,0,1-4-1.655L52.313,10l-1.145,1.725a5.657,5.657,0,0,1-4.709,2.517H41V19.9a9.9,9.9,0,1,0,19.8,0V14.242Z" transform="translate(14.152 1.313)" fill="#ffc477"/>
  <path id="Trazado_874714" data-name="Trazado 874714" d="M11,40h2.828v2.828H11Z" transform="translate(1.727 13.738)"/>
  <path id="Trazado_874715" data-name="Trazado 874715" d="M17,40h2.828v2.828H17Z" transform="translate(4.212 13.738)"/>
  <path id="Trazado_874716" data-name="Trazado 874716" d="M32.893,62.655,26.04,59.608V57.567a11.272,11.272,0,0,0,5.3-6.989c.119.01.233.048.354.048a4.231,4.231,0,0,0,.532-8.431l1.882-1.882a1.414,1.414,0,0,0,.414-1V35.071A7.079,7.079,0,0,0,27.455,28H4.828a1.414,1.414,0,0,0-1.266,2.046l2.513,5.024-1.1,2.2A1.414,1.414,0,0,0,5.243,38.9l3.3,3.3a4.231,4.231,0,0,0,.532,8.431c.12,0,.236-.038.356-.049A11.3,11.3,0,0,0,12.384,55.8a10.981,10.981,0,0,0,2.343,1.748v2.062L7.874,62.655A9.9,9.9,0,0,0,2,71.7v2.97a1.414,1.414,0,0,0,1.414,1.414H37.354a1.414,1.414,0,0,0,1.414-1.414V71.7A9.9,9.9,0,0,0,32.9,62.656Zm-6.109.379-.331,1.324-2.237-.745-.52-1.041.966-.482Zm-6.4-3.923a11.2,11.2,0,0,0,2.828-.37v.911l-1.748.874H19.3l-1.748-.874v-.911A11.21,11.21,0,0,0,20.384,59.111Zm-1.107,5.374.566-1.131h1.08l.566,1.131-1.1,1.112ZM19.4,68.6a1.4,1.4,0,0,0,1.966,0l1.369,4.65h-4.7Zm13.71-22.219A1.414,1.414,0,0,1,31.7,47.8V44.97A1.414,1.414,0,0,1,33.111,46.384ZM8.929,34.439l-1.813-3.61H27.455A4.242,4.242,0,0,1,31.7,35.071v3.657l-2,2h-.205a1.414,1.414,0,0,1-1.341-.967l-.769-2.308a1.414,1.414,0,0,0-.921-.9,1.385,1.385,0,0,0-.421-.065,1.414,1.414,0,0,0-.848.283l-2.639,1.98a9.971,9.971,0,0,1-5.939,1.98H11.07L7.959,37.616l.97-1.913a1.414,1.414,0,0,0,0-1.264ZM7.657,46.384A1.414,1.414,0,0,1,9.071,44.97V47.8A1.414,1.414,0,0,1,7.657,46.384Zm4.286,2.233A6.488,6.488,0,0,1,11.9,47.8V43.556h4.713a12.8,12.8,0,0,0,7.636-2.545l1.071-.8.148.447a4.242,4.242,0,0,0,3.4,2.851V47.8a6.506,6.506,0,0,1-.051.868,8.485,8.485,0,0,1-12.08,6.788A8.294,8.294,0,0,1,14.384,53.8a8.474,8.474,0,0,1-2.441-5.181ZM16.106,62.09l.966.482-.52,1.041-2.237.745-.331-1.324ZM4.828,71.7A7.071,7.071,0,0,1,9.023,65.24L11.36,64.2l.581,2.323A1.414,1.414,0,0,0,13.313,67.6a1.39,1.39,0,0,0,.447-.074L17.1,66.41l-2.015,6.843H4.828Zm31.111,1.556H25.684L23.669,66.41l3.339,1.113a1.39,1.39,0,0,0,.447.074,1.414,1.414,0,0,0,1.372-1.072l.581-2.323,2.338,1.039A7.071,7.071,0,0,1,35.939,71.7Z" transform="translate(-2 8.768)"/>
  <path id="Trazado_874717" data-name="Trazado 874717" d="M44,15h2.828v2.828H44Z" transform="translate(15.394 3.384)"/>
  <path id="Trazado_874718" data-name="Trazado 874718" d="M50,15h2.828v2.828H50Z" transform="translate(17.879 3.384)"/>
  <path id="Trazado_874719" data-name="Trazado 874719" d="M34,33.111a8.441,8.441,0,0,0,4.087,7.235,9.868,9.868,0,0,0-2.673,6.765v1.556a1.414,1.414,0,0,0,1.414,1.414H70.768a1.414,1.414,0,0,0,1.414-1.414V47.111A9.86,9.86,0,0,0,69.5,40.345a8.457,8.457,0,0,0,.94-13.829,5.657,5.657,0,0,0-3.919-7.366V14.727a12.727,12.727,0,1,0-25.455,0v4.422a5.657,5.657,0,0,0-3.919,7.366A8.517,8.517,0,0,0,34,33.111ZM69.354,47.253H38.242v-.141a7.055,7.055,0,0,1,3.228-5.939,8.061,8.061,0,0,1,.966-.515l2.749-1.22A11.03,11.03,0,0,0,53.8,43.01a11.03,11.03,0,0,0,8.614-3.578l2.765,1.229a7.818,7.818,0,0,1,.909.484,7.071,7.071,0,0,1,3.268,5.966ZM45.313,18.97h4.043a7.052,7.052,0,0,0,5.884-3.149l.192-.283L56.8,16.9a7.025,7.025,0,0,0,5,2.066h.485v4.242a8.485,8.485,0,1,1-16.97,0Zm4.067,18.6c.054-.023.74-.335.74-.335a1.414,1.414,0,0,0,.85-1.3V34.154a10.94,10.94,0,0,0,5.657,0V35.94a1.414,1.414,0,0,0,.83,1.288l2.243.99a9.879,9.879,0,0,1-11.8,0ZM67.939,24.626a2.937,2.937,0,0,1-.481,1.594,1.414,1.414,0,0,0,.481,1.991,5.637,5.637,0,0,1-.929,10.2,7.3,7.3,0,0,0-.707-.346l-6.849-3.043V33a11.313,11.313,0,0,0,5.657-9.783V21.8a2.828,2.828,0,0,1,2.828,2.828Zm-24.04-9.9a9.9,9.9,0,1,1,19.8,0v1.414H61.8a4.266,4.266,0,0,1-3-1.243l-2.586-2.585a1.414,1.414,0,0,0-2.176.215l-1.15,1.724a4.23,4.23,0,0,1-3.53,1.889H43.9ZM39.657,28.211a1.414,1.414,0,0,0,.478-1.991,2.937,2.937,0,0,1-.478-1.594A2.828,2.828,0,0,1,42.485,21.8v1.414A11.313,11.313,0,0,0,48.141,33v2.022a.767.767,0,0,0-.074.042l-6.762,3a7.564,7.564,0,0,0-.682.362,5.634,5.634,0,0,1-.967-10.212Z" transform="translate(11.253 -2)"/>
  <path id="Trazado_874720" data-name="Trazado 874720" d="M71.838,40H37.9a4.242,4.242,0,0,0-4.242,4.242v6.2l-4.875,2.437a1.414,1.414,0,0,0-.368,2.263l5.242,5.245v6.485A4.242,4.242,0,0,0,37.9,71.111H71.838a4.242,4.242,0,0,0,4.242-4.242V44.242A4.242,4.242,0,0,0,71.838,40Zm1.414,26.869a1.414,1.414,0,0,1-1.414,1.414H37.9a1.414,1.414,0,0,1-1.414-1.414V59.8a1.414,1.414,0,0,0-.414-1l-4.27-4.27,3.9-1.943a1.414,1.414,0,0,0,.782-1.273V44.242A1.414,1.414,0,0,1,37.9,42.828H71.838a1.414,1.414,0,0,1,1.414,1.414Z" transform="translate(8.768 13.738)"/>
  <path id="Trazado_874721" data-name="Trazado 874721" d="M48.242,48a4.242,4.242,0,1,0,4.242,4.242A4.242,4.242,0,0,0,48.242,48Zm0,5.657a1.414,1.414,0,1,1,1.414-1.414A1.414,1.414,0,0,1,48.242,53.657Z" transform="translate(15.394 17.051)"/>
  <path id="Trazado_874722" data-name="Trazado 874722" d="M56.242,48a4.242,4.242,0,1,0,4.242,4.242A4.242,4.242,0,0,0,56.242,48Zm0,5.657a1.414,1.414,0,1,1,1.414-1.414A1.414,1.414,0,0,1,56.242,53.657Z" transform="translate(18.707 17.051)"/>
  <path id="Trazado_874723" data-name="Trazado 874723" d="M40.242,48a4.242,4.242,0,1,0,4.242,4.242A4.242,4.242,0,0,0,40.242,48Zm0,5.657a1.414,1.414,0,1,1,1.414-1.414A1.414,1.414,0,0,1,40.242,53.657Z" transform="translate(12.081 17.051)"/>
  <path id="Trazado_874724" data-name="Trazado 874724" d="M6.242,33.111H40.182a4.242,4.242,0,0,0,4.242-4.242v-6.2l4.875-2.43a1.414,1.414,0,0,0,.368-2.263l-5.242-5.252V6.242A4.242,4.242,0,0,0,40.182,2H6.242A4.242,4.242,0,0,0,2,6.242V28.869a4.242,4.242,0,0,0,4.242,4.242ZM4.828,6.242A1.414,1.414,0,0,1,6.242,4.828H40.182A1.414,1.414,0,0,1,41.6,6.242v7.071a1.414,1.414,0,0,0,.414,1l4.27,4.27-3.9,1.95A1.414,1.414,0,0,0,41.6,21.8v7.071a1.414,1.414,0,0,1-1.414,1.414H6.242a1.414,1.414,0,0,1-1.414-1.414Z" transform="translate(-2 -2)"/>
  <path id="Trazado_874725" data-name="Trazado 874725" d="M18.242,18.485A4.242,4.242,0,1,0,14,14.242,4.242,4.242,0,0,0,18.242,18.485Zm0-5.657a1.414,1.414,0,1,1-1.414,1.414A1.414,1.414,0,0,1,18.242,12.828Z" transform="translate(2.97 1.313)"/>
  <path id="Trazado_874726" data-name="Trazado 874726" d="M10.242,18.485A4.242,4.242,0,1,0,6,14.242,4.242,4.242,0,0,0,10.242,18.485Zm0-5.657a1.414,1.414,0,1,1-1.414,1.414A1.414,1.414,0,0,1,10.242,12.828Z" transform="translate(-0.343 1.313)"/>
  <path id="Trazado_874727" data-name="Trazado 874727" d="M26.242,18.485A4.242,4.242,0,1,0,22,14.242a4.242,4.242,0,0,0,4.242,4.242Zm0-5.657a1.414,1.414,0,1,1-1.414,1.414A1.414,1.414,0,0,1,26.242,12.828Z" transform="translate(6.283 1.313)"/>
</svg>
