<svg xmlns="http://www.w3.org/2000/svg" width="66.102" height="66.102" viewBox="0 0 66.102 66.102">
  <g id="Grupo_1111620" data-name="Grupo 1111620" transform="translate(0)">
    <g id="Grupo_1111618" data-name="Grupo 1111618" transform="translate(0.968 0.968)">
      <g id="Grupo_1111617" data-name="Grupo 1111617" transform="translate(0 8.385)">
        <g id="Grupo_1111616" data-name="Grupo 1111616">
          <g id="Grupo_1111614" data-name="Grupo 1111614" transform="translate(24.127 45.446)">
            <path id="Trazado_897372" data-name="Trazado 897372" d="M210.289,434.781H194.375l1.119-3.357,1.463-4.39,5.375-2.582,1.634.785,3.74,1.8Z" transform="translate(-194.375 -424.453)" fill="#b9cfdf"/>
            <path id="Trazado_897373" data-name="Trazado 897373" d="M210.289,440.077H194.375l1.119-3.357h8.863a1.2,1.2,0,0,0,1.143-1.585l-1.534-4.6,3.74,1.8Z" transform="translate(-194.375 -429.748)" fill="#90abbd"/>
          </g>
          <path id="Trazado_897374" data-name="Trazado 897374" d="M71.667,74.438v44.049a1.991,1.991,0,0,1-1.993,1.99H9.494a1.991,1.991,0,0,1-1.993-1.99V74.438a1.991,1.991,0,0,1,1.993-1.99H69.673A1.991,1.991,0,0,1,71.667,74.438Z" transform="translate(-7.501 -72.448)" fill="#99e7fa"/>
          <path id="Trazado_897375" data-name="Trazado 897375" d="M71.667,74.44v44.049a1.991,1.991,0,0,1-1.993,1.99H9.494a1.991,1.991,0,0,1-1.993-1.99v-4.929H66.575a1.991,1.991,0,0,0,1.993-1.99V74.44a1.991,1.991,0,0,0-1.993-1.99h3.1a1.991,1.991,0,0,1,1.993,1.99Z" transform="translate(-7.501 -72.45)" fill="#4dd4f7"/>
          <path id="Trazado_897376" data-name="Trazado 897376" d="M71.668,414.453v1.884a1.991,1.991,0,0,1-1.993,1.99H9.5A1.992,1.992,0,0,1,7.5,416.351v-1.9Z" transform="translate(-7.502 -370.298)" fill="#56788b"/>
          <path id="Trazado_897377" data-name="Trazado 897377" d="M71.667,74.44v1.884H7.5V74.44a1.991,1.991,0,0,1,1.993-1.99H69.673A1.991,1.991,0,0,1,71.667,74.44Z" transform="translate(-7.501 -72.45)" fill="#56788b"/>
          <g id="Grupo_1111615" data-name="Grupo 1111615" transform="translate(0 0)">
            <path id="Trazado_897378" data-name="Trazado 897378" d="M470.152,74.44v1.884h-3.1V74.44a1.991,1.991,0,0,0-1.993-1.99h3.1A1.991,1.991,0,0,1,470.152,74.44Z" transform="translate(-405.986 -72.45)" fill="#415e6f"/>
            <path id="Trazado_897379" data-name="Trazado 897379" d="M68.566,414.453h3.1v1.884a1.991,1.991,0,0,1-1.993,1.99H9.5A1.992,1.992,0,0,1,7.5,416.351H66.576A1.989,1.989,0,0,0,68.566,414.453Z" transform="translate(-7.502 -370.298)" fill="#415e6f"/>
          </g>
        </g>
      </g>
      <path id="Trazado_897380" data-name="Trazado 897380" d="M138.806,143.433v25.289H98.011V143.433l5.874-3.873h29.046Z" transform="translate(-86.326 -122.51)" fill="#f9d11f"/>
      <path id="Trazado_897381" data-name="Trazado 897381" d="M138.806,143.433l-5.874,5.722-7.363,7.172h-14.32l-7.363-7.172-5.874-5.722,5.874-3.873h29.046Z" transform="translate(-86.326 -122.51)" fill="#ffa402"/>
      <path id="Trazado_897382" data-name="Trazado 897382" d="M172.557,7.5V34.145l-7.363,7.172h-14.32l-7.363-7.172V7.5Z" transform="translate(-125.951 -7.5)" fill="#fdeda5"/>
      <path id="Trazado_897383" data-name="Trazado 897383" d="M287.244,7.5V34.145l-7.363,7.172H275.2l8.688-8.463V7.5Z" transform="translate(-240.638 -7.5)" fill="#fbdf63"/>
      <path id="Trazado_897384" data-name="Trazado 897384" d="M138.806,236.591H98.011l20.4-19.1Z" transform="translate(-86.326 -190.379)" fill="#f9d11f"/>
      <path id="Trazado_897385" data-name="Trazado 897385" d="M138.806,236.591h-1.2l-19.2-14.581-19.2,14.581h-1.2l20.4-19.1Z" transform="translate(-86.326 -190.379)" fill="#ffa402"/>
    </g>
    <g id="Grupo_1111619" data-name="Grupo 1111619" transform="translate(0 0)">
      <path id="Trazado_897386" data-name="Trazado 897386" d="M403.685,64.951H392a.968.968,0,0,0,0,1.937h11.688a1.024,1.024,0,0,1,1.025,1.021v.916H392a.968.968,0,0,0,0,1.937H404.71V80.878a.968.968,0,1,0,1.937,0V67.909a2.963,2.963,0,0,0-2.962-2.958Z" transform="translate(-340.544 -56.565)"/>
      <path id="Trazado_897387" data-name="Trazado 897387" d="M65.134,84.5a.968.968,0,0,0-.968.968v23.648H54.378a.968.968,0,1,0,0,1.937h9.788v.916a1.024,1.024,0,0,1-1.025,1.021H2.961a1.024,1.024,0,0,1-1.025-1.021v-.916H49.83a.968.968,0,0,0,0-1.937H1.937V70.762H14.7a.968.968,0,1,0,0-1.937H1.937V67.91a1.024,1.024,0,0,1,1.025-1.021H14.7a.968.968,0,1,0,0-1.937H2.961A2.963,2.963,0,0,0,0,67.91v44.054a2.963,2.963,0,0,0,2.961,2.958H26.332L24.4,120.732H20.915a.968.968,0,1,0,0,1.937H45.187a.968.968,0,1,0,0-1.937H41.707l-1.937-5.811H63.141a2.963,2.963,0,0,0,2.962-2.958v-26.5a.968.968,0,0,0-.968-.968ZM39.665,120.732H26.437l1.937-5.811h9.355Z" transform="translate(0 -56.566)"/>
      <path id="Trazado_897388" data-name="Trazado 897388" d="M90.944,21.083a.968.968,0,0,0-.435.808v6.755a.968.968,0,1,0,1.937,0v-4.46l10.867,10.585L92.446,44.947V33.059a.968.968,0,1,0-1.937,0V47.181a.968.968,0,0,0,.968.968h40.8a.968.968,0,0,0,.968-.968V21.891a.968.968,0,0,0-.435-.808L127.366,17.5V.968A.968.968,0,0,0,126.4,0h-5.728a.968.968,0,0,0,0,1.937h4.76V27.2l-6.407,6.241-6.486-6.073a.968.968,0,0,0-1.324,0l-6.486,6.073L98.32,27.2V1.937H116.2A.968.968,0,0,0,116.2,0H97.352a.968.968,0,0,0-.968.968V17.5Zm36.422-1.267,3.369,2.221-3.369,3.281Zm3.938,4.37V44.947L120.437,34.771Zm-19.429,5.22,17.947,16.806H93.928Zm-18.86-7.369,3.369-2.221v5.5Z" transform="translate(-78.824 0)"/>
      <path id="Trazado_897389" data-name="Trazado 897389" d="M198,49.654a4.723,4.723,0,1,0,3.791,7.537,3.2,3.2,0,0,0,2.21.882,2.493,2.493,0,0,0,2.423-1.964A8.662,8.662,0,0,0,206.6,54.2a8.561,8.561,0,1,0-8.649,8.773H198a8.545,8.545,0,0,0,4.893-1.528.968.968,0,1,0-1.1-1.592,6.65,6.65,0,1,1,2.87-5.615,6.713,6.713,0,0,1-.132,1.469.543.543,0,0,1-.528.426,1.355,1.355,0,0,1-1.3-1.346q.018-.2.018-.413A4.728,4.728,0,0,0,198,49.654Zm0,7.509a2.786,2.786,0,1,1,2.786-2.786A2.789,2.789,0,0,1,198,57.163Z" transform="translate(-164.951 -39.868)"/>
    </g>
  </g>
</svg>
