<svg xmlns="http://www.w3.org/2000/svg" width="90.71" height="82.459" viewBox="0 0 90.71 82.459">
  <g id="Layer_x0020_1" transform="translate(-0.013 -23.296)">
    <path id="Trazado_897426" data-name="Trazado 897426" d="M42.363,86.442a1.15,1.15,0,0,1-.815-.337l-.807-.807-2.088,2.088a1.152,1.152,0,0,1-1.628,0L35.049,85.41l-7.024,2.8a1.152,1.152,0,0,1-1.5-1.488l2.759-7.083-1.98-1.98a1.151,1.151,0,0,1,0-1.629l2.088-2.088-.807-.807a1.151,1.151,0,0,1-.163-1.423c.768-1.233,1.612-2.48,2.524-3.729a18.431,18.431,0,0,0-2.407-.158A18.221,18.221,0,0,0,21.2,69.358a1.151,1.151,0,0,1-1.516-1.516,20.642,20.642,0,0,1,18.9-12.363,20.77,20.77,0,0,1,3.464.291c8.344-7.522,16.976-12.226,22.7-12.226a6.378,6.378,0,0,1,4.7,1.694c2.425,2.425,2.227,7.034-.557,12.977a61.443,61.443,0,0,1-9.975,14.421A20.64,20.64,0,0,1,46.847,95a1.152,1.152,0,0,1-1.516-1.516A18.478,18.478,0,0,0,46.7,83.745c-1.249.912-2.5,1.756-3.728,2.523a1.149,1.149,0,0,1-.609.174ZM77.311,36.464h-24.8a3.643,3.643,0,0,1,0-7.287h24.8a3.643,3.643,0,0,1,0,7.287Zm-24.8-4.983a1.34,1.34,0,1,0,0,2.68h24.8a1.34,1.34,0,1,0,0-2.68ZM33.986,36.651a3.831,3.831,0,1,1,3.831-3.831A3.835,3.835,0,0,1,33.986,36.651Zm0-5.358a1.527,1.527,0,1,0,1.527,1.527A1.529,1.529,0,0,0,33.986,31.294ZM23.8,36.651a3.831,3.831,0,1,1,3.831-3.831A3.835,3.835,0,0,1,23.8,36.651Zm0-5.358a1.527,1.527,0,1,0,1.527,1.527A1.529,1.529,0,0,0,23.8,31.294ZM13.612,36.651a3.831,3.831,0,1,1,3.83-3.831,3.835,3.835,0,0,1-3.83,3.831Zm0-5.358a1.527,1.527,0,1,0,1.527,1.527A1.529,1.529,0,0,0,13.612,31.294ZM82.417,98.6H8.318a1.151,1.151,0,0,1-1.152-1.152V41.195a1.152,1.152,0,0,1,1.152-1.152h74.1a1.152,1.152,0,0,1,1.152,1.152V97.449A1.152,1.152,0,0,1,82.417,98.6ZM9.47,96.3h71.8V42.346H9.47Zm76.3,9.458H4.963A4.956,4.956,0,0,1,.013,100.8V28.246A4.956,4.956,0,0,1,4.963,23.3H85.772a4.957,4.957,0,0,1,4.951,4.951V100.8A4.957,4.957,0,0,1,85.772,105.755ZM4.963,25.6a2.651,2.651,0,0,0-2.648,2.647V100.8a2.651,2.651,0,0,0,2.648,2.648H85.772A2.651,2.651,0,0,0,88.42,100.8V28.247A2.651,2.651,0,0,0,85.772,25.6H4.963ZM38.422,59.243l.042-.042.172-.174.021-.021.194-.195h0l.4-.4.015-.015.015-.015h0l.016-.015.015-.015.016-.015.016-.015.016-.015.329-.322.016-.015.013-.013,0,0,.016-.015.016-.015.016-.015.016-.015.063-.061q-.631-.043-1.264-.043a18.2,18.2,0,0,0-12.952,5.364,18.383,18.383,0,0,0-2.49,3.093,20.749,20.749,0,0,1,9.375-.326,80.626,80.626,0,0,1,5.9-6.671ZM56.864,74.837l-.291.3-.015.016-.015.016-.015.016-.2.2-.015.016-.031.031-.015.016-.031.031-.015.016-.108.109-.015.015-.015.016-.015.015-.015.015-.015.016-.015.015L56,75.714l-.015.016-.015.015-.015.015-.031.031-.015.015-.031.031-.108.108-.087.086-.021.021-.108.107q-.378.374-.76.742l-.091.088-.018.017-.109.1-.07.067-.039.037-.109.1-.049.047-.06.057-.11.1-.028.027-.082.077-.11.1-.007.007-.1.1-.1.089-.014.013-.11.1-.075.069-.035.033-.331.3-.032.029-.189.172-.011.01q-2.043,1.854-4.14,3.508a20.854,20.854,0,0,1-.333,9.379,18.356,18.356,0,0,0,8.421-16.712ZM53.8,74.659l.34-.337.113-.113h0l.041-.041.041-.041.041-.041.028-.028.014-.014L54.456,74l.041-.041.041-.042.013-.014.028-.028.041-.042.041-.042.04-.041h0l.041-.042.041-.042.041-.042.123-.126.041-.042L55,73.449l.03-.031c.613-.63,1.216-1.269,1.8-1.91l.036-.037a72.122,72.122,0,0,0,5.794-7.192A13.515,13.515,0,0,1,50.411,52.028,73.261,73.261,0,0,0,43.1,57.934l0,0-.153.141-.017.016-.213.2-.043.04-.037.035-.005,0-.042.04-.043.04-.042.04-.022.021-.021.019-.042.04-.042.04-.043.04-.006.006-.036.034-.042.04-.042.04-.034.032-.009.008-.042.04-.042.04-.042.04-.018.018-.024.023-.042.04-.042.04-.042.04,0,0-.039.037-.042.04-.042.041-.03.029-.012.012-.042.041-.042.041-.042.041-.015.015-.027.026-.042.041-.042.041-.042.041h0l-.042.04-.042.041-.042.041-.028.027-.014.014-.042.041-.042.041-.042.041-.013.013-.029.028-.042.041-.042.041-.041.04h0l-.042.041-.042.041-.042.041-.027.027-.057.056-.042.041-.041.041-.013.013-.028.028-.042.041-.041.041-.041.041h0l-.113.113-.064.064-.049.049-.112.113-.015.015-.1.1-.078.08-.033.034-.111.114-.03.031-.081.083-.093.1-.018.019-.327.34,0,0-.328.344-.012.013-.1.1-.074.078a71.016,71.016,0,0,0-7.878,9.936l.969.969,9.721,9.722.969.969c1.407-.909,2.831-1.92,4.253-3.018l.017-.013.119-.092.043-.033.076-.059.11-.086.009-.007.119-.093.057-.045.061-.048.119-.094.005,0,.114-.09.071-.057.047-.038q1.641-1.313,3.265-2.767l.027-.024q.443-.4.883-.8l.045-.041.116-.107.021-.019.095-.088.086-.081.029-.027.115-.108.036-.034.079-.074.1-.1.013-.012.115-.109.052-.05.063-.06.114-.11,0,0,.112-.107.068-.065.047-.045.114-.11.228-.222.114-.111.034-.033.08-.079ZM33.277,83.638l-2.214-2.214-1.429,3.669,3.643-1.455Zm-1.835-5.093,0,0,4.7,4.7.01.01,1.688,1.688,1.274-1.273-4.046-4.047L31.02,75.576,29.747,76.85l1.7,1.7Zm14.063-2.719a6.641,6.641,0,1,1,4.7-1.945A6.6,6.6,0,0,1,45.505,75.826Zm0-10.981a4.339,4.339,0,1,0,3.068,1.271,4.311,4.311,0,0,0-3.068-1.271Zm7.159-14.323a11.211,11.211,0,0,0,11.5,11.5,43.986,43.986,0,0,0,2.645-4.786c2.308-4.928,2.678-8.708,1.014-10.372a4.189,4.189,0,0,0-3.07-1.02c-3.132,0-7.425,1.717-12.087,4.674Z" fill-rule="evenodd"/>
    <path id="Trazado_897427" data-name="Trazado 897427" d="M102.839,161.111a20.64,20.64,0,0,1-12.071,22.364,1.152,1.152,0,0,1-1.516-1.516,18.478,18.478,0,0,0,1.368-9.741c-1.249.912-2.5,1.756-3.728,2.523a1.152,1.152,0,0,1-1.423-.163l-.807-.807-2.088,2.088a1.152,1.152,0,0,1-1.628,0l-1.976-1.976-7.024,2.8a1.152,1.152,0,0,1-1.5-1.488l2.759-7.083-1.98-1.98a1.151,1.151,0,0,1,0-1.629l2.088-2.088-.807-.807a1.151,1.151,0,0,1-.163-1.423c.768-1.233,1.612-2.48,2.524-3.729a18.434,18.434,0,0,0-2.407-.158,18.222,18.222,0,0,0-7.335,1.527,1.151,1.151,0,0,1-1.516-1.516,20.642,20.642,0,0,1,18.9-12.363,20.771,20.771,0,0,1,3.464.291c8.344-7.522,16.976-12.226,22.7-12.226a6.378,6.378,0,0,1,4.7,1.694c2.425,2.425,2.227,7.034-.557,12.977a61.443,61.443,0,0,1-9.975,14.421Zm22.348-30.292h-71.8V184.77h71.8Z" transform="translate(-43.921 -88.473)" fill="#fff" fill-rule="evenodd"/>
    <path id="Trazado_897428" data-name="Trazado 897428" d="M300.441,163.483a11.2,11.2,0,0,0,8.218,3.28,43.988,43.988,0,0,0,2.645-4.786c2.308-4.928,2.678-8.708,1.014-10.372a4.189,4.189,0,0,0-3.07-1.02c-3.132,0-7.425,1.717-12.087,4.674a11.207,11.207,0,0,0,3.28,8.223Z" transform="translate(-244.498 -104.738)" fill="#fe6a6a" fill-rule="evenodd"/>
    <path id="Trazado_897429" data-name="Trazado 897429" d="M205.946,197.714A13.515,13.515,0,0,1,193.7,185.464a73.312,73.312,0,0,0-7.315,5.907l-.153.141-.017.016-.213.2-.043.04-.037.035-.005,0-.042.04-.043.04-.042.04-.022.021-.021.019-.042.04-.042.04-.043.04-.007.006-.036.034-.042.04-.042.04-.034.032-.009.008-.042.04-.042.04-.042.04-.018.018-.024.023-.042.04-.042.04-.042.04,0,0-.039.037-.042.04-.042.041-.03.029-.012.012-.042.041-.042.041-.042.041-.015.015-.027.026-.042.041-.042.041-.043.041-.042.04-.042.041-.042.041-.028.027-.014.014-.042.041-.042.041-.042.041-.013.013-.029.028-.042.041-.042.041-.042.041-.042.041-.042.041-.042.041-.027.027-.057.056-.042.041-.041.041-.013.013-.028.028-.042.041-.041.041-.041.041-.113.113-.064.064-.049.049-.112.113-.015.015-.1.1-.078.08-.034.034-.111.114-.03.031-.081.083-.093.1-.018.019-.328.34,0,0-.328.344-.012.013-.1.1-.074.078a71.017,71.017,0,0,0-7.878,9.936l.969.969,9.721,9.722.969.969c1.407-.909,2.831-1.92,4.253-3.018l.017-.013.119-.092.043-.033.076-.059.11-.086.009-.007.119-.093.057-.045.061-.048.119-.094.005,0,.114-.09.071-.057.047-.038q1.641-1.313,3.265-2.767l.027-.024q.443-.4.883-.8l.045-.041.115-.107.021-.019.095-.088.086-.081.029-.027.115-.108.036-.034.079-.074.1-.1.013-.012.115-.109.052-.05.063-.06.114-.11,0,0,.112-.107.068-.065.047-.045.114-.111.228-.222.114-.111.034-.033.08-.079.34-.337.113-.113.041-.041.041-.041.041-.041.028-.028.014-.014.041-.041.041-.041.041-.042.013-.014.028-.028.041-.042.041-.042.041-.042.041-.042.041-.042.041-.042.123-.126.041-.042.011-.011.03-.031c.613-.63,1.216-1.269,1.8-1.91l.036-.037a72.116,72.116,0,0,0,5.794-7.192Zm-12.46.209a6.643,6.643,0,1,1-4.7-1.945A6.6,6.6,0,0,1,193.487,197.923Z" transform="translate(-143.285 -133.436)" fill="#d2dbe4" fill-rule="evenodd"/>
    <path id="Trazado_897430" data-name="Trazado 897430" d="M240.975,262.146a4.339,4.339,0,1,0-1.271,3.068A4.31,4.31,0,0,0,240.975,262.146Z" transform="translate(-191.131 -192.961)" fill="#fff" fill-rule="evenodd"/>
    <path id="Trazado_897431" data-name="Trazado 897431" d="M139.952,226.078a80.628,80.628,0,0,1,5.9-6.671l.042-.042.172-.174.021-.021.194-.195.4-.4.015-.015.016-.015.016-.015.015-.015.016-.015.016-.015.016-.015.329-.322.016-.015.013-.013,0,0,.016-.015.016-.015.016-.015.016-.015.063-.061q-.631-.043-1.264-.043a18.2,18.2,0,0,0-12.952,5.364,18.383,18.383,0,0,0-2.49,3.093,20.749,20.749,0,0,1,9.375-.326Z" transform="translate(-107.431 -160.164)" fill="#fe6a6a" fill-rule="evenodd"/>
    <path id="Trazado_897432" data-name="Trazado 897432" d="M173.154,322.419l-4.046-4.046-1.274,1.273,1.7,1.7,0,0,4.7,4.7.01.01,1.688,1.688,1.274-1.273Z" transform="translate(-138.087 -242.796)" fill="#fe6a6a" fill-rule="evenodd"/>
    <path id="Trazado_897433" data-name="Trazado 897433" d="M170.842,353.591l-2.214-2.214-1.429,3.669Z" transform="translate(-137.565 -269.953)" fill="#fabd36" fill-rule="evenodd"/>
    <path id="Trazado_897434" data-name="Trazado 897434" d="M273.688,321.532a20.853,20.853,0,0,1-.333,9.379,18.356,18.356,0,0,0,8.421-16.712l-.291.3-.015.016-.016.016-.015.016-.2.2-.015.016-.031.031-.016.016-.031.031-.016.016-.108.109-.016.016-.015.016-.016.015-.016.015-.015.016-.016.016-.015.015-.015.016-.016.016-.015.015-.031.031-.016.015-.031.031-.108.108-.087.086-.021.021-.108.107q-.378.374-.76.742l-.091.088-.018.017-.109.1-.07.067-.039.037-.109.1-.049.047-.06.057-.11.1-.028.027-.082.077-.11.1-.007.007-.1.1-.1.089-.014.013-.11.1-.075.069-.035.033-.331.3-.032.03-.189.172-.011.01q-2.044,1.854-4.14,3.508Z" transform="translate(-224.913 -239.362)" fill="#fe6a6a" fill-rule="evenodd"/>
    <path id="Trazado_897435" data-name="Trazado 897435" d="M94.264,51.892v56.254a1.152,1.152,0,0,1-1.152,1.152h-74.1a1.151,1.151,0,0,1-1.152-1.152V51.892a1.152,1.152,0,0,1,1.152-1.152h74.1a1.152,1.152,0,0,1,1.152,1.152Zm-6.258-4.73H63.2a3.643,3.643,0,0,1,0-7.287h24.8a3.643,3.643,0,0,1,0,7.287Zm-43.325.187a3.831,3.831,0,1,1,3.831-3.831A3.835,3.835,0,0,1,44.682,47.349Zm-10.187,0a3.831,3.831,0,1,1,3.831-3.831A3.835,3.835,0,0,1,34.494,47.349Zm-10.187,0a3.831,3.831,0,1,1,3.83-3.831A3.835,3.835,0,0,1,24.307,47.349Zm-8.648,66.8H96.468a2.651,2.651,0,0,0,2.647-2.648V38.944A2.651,2.651,0,0,0,96.468,36.3H15.659a2.651,2.651,0,0,0-2.648,2.647V111.5a2.651,2.651,0,0,0,2.648,2.648Z" transform="translate(-10.696 -10.697)" fill="#526681" fill-rule="evenodd"/>
    <path id="Trazado_897436" data-name="Trazado 897436" d="M290.072,72.175h24.8a1.34,1.34,0,0,0,0-2.68h-24.8a1.34,1.34,0,1,0,0,2.68Z" transform="translate(-237.565 -38.014)" fill="#dee8ee" fill-rule="evenodd"/>
    <path id="Trazado_897437" data-name="Trazado 897437" d="M184.67,71.492a1.527,1.527,0,1,0-1.527-1.527A1.529,1.529,0,0,0,184.67,71.492Z" transform="translate(-150.684 -37.144)" fill="#eeeced" fill-rule="evenodd"/>
    <path id="Trazado_897438" data-name="Trazado 897438" d="M127.173,71.492a1.527,1.527,0,1,0-1.527-1.527A1.529,1.529,0,0,0,127.173,71.492Z" transform="translate(-103.374 -37.144)" fill="#ffe352" fill-rule="evenodd"/>
    <path id="Trazado_897439" data-name="Trazado 897439" d="M69.675,71.492a1.527,1.527,0,1,0-1.527-1.527A1.529,1.529,0,0,0,69.675,71.492Z" transform="translate(-56.063 -37.144)" fill="#fdd3a2" fill-rule="evenodd"/>
  </g>
</svg>
