<svg xmlns="http://www.w3.org/2000/svg" width="82.695" height="76.485" viewBox="0 0 82.695 76.485">
  <g id="Grupo_1111623" data-name="Grupo 1111623" transform="translate(-4.75 -14)">
    <path id="Trazado_897440" data-name="Trazado 897440" d="M118.8,200.469H100.03l2.425-10.121.564-2.348h12.788l.564,2.348Z" transform="translate(-63.317 -115.63)" fill="#72c2e9"/>
    <path id="Trazado_897441" data-name="Trazado 897441" d="M121.175,190.348H107.26l.564-2.348h12.788Z" transform="translate(-68.122 -115.63)" fill="#4ba5c8"/>
    <rect id="Rectángulo_405132" data-name="Rectángulo 405132" width="81.014" height="57.532" rx="10" transform="translate(5.589 14.839)" fill="#72c2e9"/>
    <path id="Trazado_897442" data-name="Trazado 897442" d="M0,0H47.468V70.95H0Z" transform="translate(81.571 19.871) rotate(90)" fill="#efefef"/>
    <path id="Trazado_897443" data-name="Trazado 897443" d="M83.6,55.921v15.79l-3.942-.3.6,7.944,2.284-2.284L83.6,78.125v6.632a1.677,1.677,0,0,1-1.677,1.677H44.347a1.677,1.677,0,0,1-1.677-1.677V55.907a1.677,1.677,0,0,1,1.677-1.677H81.919A1.677,1.677,0,0,1,83.6,55.921Z" transform="translate(-25.199 -26.734)" fill="#f0c020"/>
    <path id="Trazado_897444" data-name="Trazado 897444" d="M152.21,101.11l-3.942-.3.6,7.944,2.285-2.284,1.053,1.053v3.324l-1.053-1.057-.624.624a2.348,2.348,0,0,1-4-1.483l-.6-7.937a2.348,2.348,0,0,1,2.519-2.519l3.764.285Z" transform="translate(-93.813 -56.134)" fill="#e8a61e"/>
    <path id="Trazado_897445" data-name="Trazado 897445" d="M100.413,54.27H70.5l2.083,4.941a1.677,1.677,0,0,0,1.543,1.006H102.09v-4.27A1.677,1.677,0,0,0,100.413,54.27Z" transform="translate(-43.693 -26.761)" fill="#fb5e3d"/>
    <path id="Trazado_897446" data-name="Trazado 897446" d="M94.171,80.778H33.285a.839.839,0,0,1,0-1.677H93.333V37.839a.839.839,0,0,1,1.677,0v42.1A.839.839,0,0,1,94.171,80.778Zm-64.241,0H28.589a.839.839,0,0,1,0-1.677H29.93a.839.839,0,0,1,0,1.677Z" transform="translate(-15.284 -15.284)" fill="#fff"/>
    <rect id="Rectángulo_405133" data-name="Rectángulo 405133" width="32.258" height="4.807" rx="2.404" transform="translate(29.967 84.839)" fill="#72c2e9"/>
    <rect id="Rectángulo_405134" data-name="Rectángulo 405134" width="7.538" height="7.538" rx="3.769" transform="translate(66.978 27.509)" fill="#fb5e3d"/>
    <rect id="Rectángulo_405135" data-name="Rectángulo 405135" width="7.538" height="7.538" rx="3.769" transform="translate(66.978 39.837)" fill="#13bf6d"/>
    <rect id="Rectángulo_405136" data-name="Rectángulo 405136" width="7.538" height="7.538" rx="3.769" transform="translate(66.978 52.165)" fill="#f0c020"/>
    <path id="Trazado_897447" data-name="Trazado 897447" d="M162.343,112.1l-2.774,2.774-2.707-2.711-1.053-1.053-2.284,2.284-.6-7.944,3.942.3,4,.305-2.281,2.284Z" transform="translate(-98.465 -60.772)" fill="#efefef"/>
    <rect id="Rectángulo_405137" data-name="Rectángulo 405137" width="24.824" height="9.722" rx="3" transform="translate(25.522 37.65)" fill="#efefef"/>
    <path id="Trazado_897448" data-name="Trazado 897448" d="M87.441,18.193A4.2,4.2,0,0,0,83.248,14H8.943A4.2,4.2,0,0,0,4.75,18.193V69.016a4.2,4.2,0,0,0,4.193,4.193H20.876a.839.839,0,1,0,0-1.677H8.943a2.526,2.526,0,0,1-2.516-2.516V18.193a2.526,2.526,0,0,1,2.516-2.516h74.3a2.526,2.526,0,0,1,2.516,2.516V69.016a2.526,2.526,0,0,1-2.516,2.516H27.585a.839.839,0,0,0,0,1.677h11.07L36.069,84h-3.69a3.244,3.244,0,0,0,0,6.484H59.833a3.244,3.244,0,0,0,0-6.484h-3.69L53.556,73.209h29.7a4.2,4.2,0,0,0,4.193-4.193ZM59.823,85.678a1.567,1.567,0,0,1,0,3.13H32.369a1.567,1.567,0,0,1,0-3.13ZM54.415,84H37.776l2.586-10.792H51.829Z" transform="translate(0 0)"/>
    <circle id="Elipse_11651" data-name="Elipse 11651" cx="0.839" cy="0.839" r="0.839" transform="translate(23.392 71.532)"/>
    <circle id="Elipse_11652" data-name="Elipse 11652" cx="0.839" cy="0.839" r="0.839" transform="translate(80.732 31.444)"/>
    <path id="Trazado_897449" data-name="Trazado 897449" d="M92.377,29.839A.835.835,0,0,0,91.539,29H20.589a.842.842,0,0,0-.839.839V77.306a.839.839,0,0,0,.839.839h70.95a.835.835,0,0,0,.839-.839v-31.7a.839.839,0,1,0-1.677,0V76.468H21.427V30.677H90.7V38.9a.839.839,0,1,0,1.677,0Z" transform="translate(-9.968 -9.968)"/>
    <path id="Trazado_897450" data-name="Trazado 897450" d="M196.965,54.286a2.516,2.516,0,0,0-2.516-2.516h-4.183a2.516,2.516,0,0,0-2.516,2.516v4.18a2.516,2.516,0,0,0,2.516,2.516h4.183a2.516,2.516,0,0,0,2.516-2.516Zm-1.677,4.18a.839.839,0,0,1-.839.839h-4.183a.839.839,0,0,1-.839-.839v-4.18a.839.839,0,0,1,.839-.839h4.183a.839.839,0,0,1,.839.839Z" transform="translate(-121.611 -25.1)"/>
    <path id="Trazado_897451" data-name="Trazado 897451" d="M196.965,91.016a2.516,2.516,0,0,0-2.516-2.516h-4.183a2.516,2.516,0,0,0-2.516,2.516V95.2a2.516,2.516,0,0,0,2.516,2.516h4.183a2.516,2.516,0,0,0,2.516-2.516Zm-1.677,4.18a.839.839,0,0,1-.839.839h-4.183a.839.839,0,0,1-.839-.839v-4.18a.839.839,0,0,1,.839-.839h4.183a.839.839,0,0,1,.839.839Z" transform="translate(-121.611 -49.508)"/>
    <path id="Trazado_897452" data-name="Trazado 897452" d="M194.449,125.27h-4.183a2.516,2.516,0,0,0-2.516,2.516v4.18a2.516,2.516,0,0,0,2.516,2.516h4.183a2.516,2.516,0,0,0,2.516-2.516v-4.18A2.516,2.516,0,0,0,194.449,125.27Zm.839,6.709a.839.839,0,0,1-.839.839h-4.183a.839.839,0,0,1-.839-.839v-4.193a.839.839,0,0,1,.839-.839h4.183a.839.839,0,0,1,.839.839Z" transform="translate(-121.611 -73.943)"/>
    <path id="Trazado_897453" data-name="Trazado 897453" d="M55.313,64H53.089a.839.839,0,0,0,0,1.677h2.224a.839.839,0,0,0,0-1.677Z" transform="translate(-31.566 -33.227)"/>
    <path id="Trazado_897454" data-name="Trazado 897454" d="M80.258,51.77H42.686a2.516,2.516,0,0,0-2.516,2.516v28.85a2.516,2.516,0,0,0,2.516,2.516H80.258a2.516,2.516,0,0,0,2.516-2.516V78.516l1.275,1.278a.842.842,0,0,0,1.188,0L88.01,77.02a.845.845,0,0,0,0-1.188l-3.17-3.167,1.677-1.677a.839.839,0,0,0-.53-1.429l-3.227-.245V54.286a2.516,2.516,0,0,0-2.5-2.516Zm0,1.677a.839.839,0,0,1,.839.839v3.432H53.971a.839.839,0,0,1-.775-.5l-1.59-3.757ZM81.1,83.122a.839.839,0,0,1-.839.839H42.686a.839.839,0,0,1-.839-.839V54.273a.839.839,0,0,1,.839-.839h7.1l1.869,4.411a2.506,2.506,0,0,0,2.315,1.536H81.1v9.775l-3.039-.228a.835.835,0,0,0-.9.9l.6,7.944a.839.839,0,0,0,1.429.53l1.677-1.677.215.215Zm2.959-12.043-1.006,1.006a.845.845,0,0,0,0,1.188l3.167,3.167-1.573,1.573-2.11-2.11L81.479,74.85a.842.842,0,0,0-1.188,0l-1.006,1.006-.392-5.149Z" transform="translate(-23.538 -25.1)"/>
    <path id="Trazado_897455" data-name="Trazado 897455" d="M88.826,82H66.015a1.848,1.848,0,0,0-1.845,1.845v7.716a1.845,1.845,0,0,0,1.845,1.845H88.826a1.845,1.845,0,0,0,1.845-1.845V83.845A1.848,1.848,0,0,0,88.826,82Zm.168,9.554a.168.168,0,0,1-.168.168H66.015a.168.168,0,0,1-.168-.168V83.838a.168.168,0,0,1,.168-.168H88.826a.168.168,0,0,1,.168.168Z" transform="translate(-39.487 -45.189)"/>
    <path id="Trazado_897456" data-name="Trazado 897456" d="M70.111,123.5h-5.1a.839.839,0,0,0,0,1.677h5.1a.839.839,0,1,0,0-1.677Z" transform="translate(-39.487 -72.767)"/>
    <path id="Trazado_897457" data-name="Trazado 897457" d="M70.111,134.63h-5.1a.839.839,0,0,0,0,1.677h5.1a.839.839,0,1,0,0-1.677Z" transform="translate(-39.487 -80.163)"/>
    <path id="Trazado_897458" data-name="Trazado 897458" d="M99.508,123.5h-5.1a.839.839,0,0,0,0,1.677h5.1a.839.839,0,1,0,0-1.677Z" transform="translate(-59.024 -72.767)"/>
    <path id="Trazado_897459" data-name="Trazado 897459" d="M99.508,134.63h-5.1a.839.839,0,0,0,0,1.677h5.1a.839.839,0,1,0,0-1.677Z" transform="translate(-59.024 -80.163)"/>
    <path id="Trazado_897460" data-name="Trazado 897460" d="M128.9,123.5h-5.1a.839.839,0,0,0,0,1.677h5.1a.839.839,0,0,0,0-1.677Z" transform="translate(-78.555 -72.767)"/>
    <path id="Trazado_897461" data-name="Trazado 897461" d="M128.9,134.63h-5.1a.839.839,0,1,0,0,1.677h5.1a.839.839,0,0,0,0-1.677Z" transform="translate(-78.555 -80.163)"/>
    <path id="Trazado_897462" data-name="Trazado 897462" d="M91.915,102.185a.839.839,0,1,0,1.188,0,.869.869,0,0,0-1.188,0Z" transform="translate(-57.762 -58.447)"/>
    <path id="Trazado_897463" data-name="Trazado 897463" d="M101.415,102.185a.839.839,0,1,0,1.188,0,.869.869,0,0,0-1.188,0Z" transform="translate(-64.075 -58.447)"/>
    <path id="Trazado_897464" data-name="Trazado 897464" d="M110.915,102.185a.839.839,0,1,0,1.188,0,.869.869,0,0,0-1.188,0Z" transform="translate(-70.388 -58.447)"/>
    <path id="Trazado_897465" data-name="Trazado 897465" d="M151.4,62.307h.168a.839.839,0,0,0,0-1.677H151.4a.839.839,0,1,0,0,1.677Z" transform="translate(-96.896 -30.987)"/>
    <path id="Trazado_897466" data-name="Trazado 897466" d="M139.839,62.307h.168a.839.839,0,1,0,0-1.677h-.168a.839.839,0,1,0,0,1.677Z" transform="translate(-89.214 -30.987)"/>
    <path id="Trazado_897467" data-name="Trazado 897467" d="M128.279,62.307h.168a.839.839,0,0,0,0-1.677h-.168a.839.839,0,0,0,0,1.677Z" transform="translate(-81.532 -30.987)"/>
  </g>
</svg>
