<svg id="object" xmlns="http://www.w3.org/2000/svg" width="177.203" height="103.919" viewBox="0 0 177.203 103.919">
  <g id="Grupo_1111847" data-name="Grupo 1111847" transform="translate(0)">
    <g id="Grupo_1111804" data-name="Grupo 1111804" transform="translate(7.869 30.791)">
      <rect id="Rectángulo_405183" data-name="Rectángulo 405183" width="0.781" height="23.918" transform="translate(0 0.78) rotate(-87.398)" fill="#bcbec0"/>
    </g>
    <g id="Grupo_1111805" data-name="Grupo 1111805" transform="translate(14.12 8.927)">
      <rect id="Rectángulo_405184" data-name="Rectángulo 405184" width="0.781" height="28.892" transform="translate(0 0.469) rotate(-36.899)" fill="#bcbec0"/>
    </g>
    <g id="Grupo_1111806" data-name="Grupo 1111806" transform="translate(101.881 46.287)">
      <path id="Trazado_897946" data-name="Trazado 897946" d="M640.81,372.628l.1-1.806.773-.039.2,1.235.368-.188-.278,1.547-.806.149Z" transform="translate(-640.78 -370.783)" fill="#eac5b0"/>
      <path id="Trazado_897947" data-name="Trazado 897947" d="M650.746,388.386l-5.73-.5-2.823-6.766-1.559.51,1.478,9.359,8.951,1.627Z" transform="translate(-640.633 -379.393)" fill="#3b455a"/>
    </g>
    <g id="Grupo_1111807" data-name="Grupo 1111807" transform="translate(18.78 42.821)">
      <path id="Trazado_897948" data-name="Trazado 897948" d="M202.274,351.809l-.262-1.8-.777.029-.094,1.252-.385-.156.413,1.522.818.078Z" transform="translate(-191.049 -350.013)" fill="#b9916f"/>
      <path id="Trazado_897949" data-name="Trazado 897949" d="M142.575,369.666l8.251-1.61,1.435-7.2,1.6.374-.458,10-8.233,2.749Z" transform="translate(-142.575 -359.047)" fill="#3b455a"/>
    </g>
    <g id="Grupo_1111814" data-name="Grupo 1111814" transform="translate(42.2 45.937)">
      <g id="Grupo_1111813" data-name="Grupo 1111813">
        <g id="Grupo_1111808" data-name="Grupo 1111808" transform="translate(8.042 41.201)">
          <path id="Trazado_897950" data-name="Trazado 897950" d="M341.5,684.856a.681.681,0,0,0-.616-.264.7.7,0,0,0-.517.39,1.32,1.32,0,0,0-.089.443c-.065.781-.059,2.634.981,2.9a.774.774,0,0,0,.915-.591A4.1,4.1,0,0,0,341.5,684.856Z" transform="translate(-338.733 -673.078)" fill="#3b455a"/>
          <path id="Trazado_897951" data-name="Trazado 897951" d="M334.273,615.62l-.054,4.762c.063,2.115-.267,4.242-.2,6.358a5.364,5.364,0,0,1,.019,1.482c-.12.471-.5.555-.9.316-.527-.32-.442-1.067-.53-1.612-.241-1.5-.524-2.989-.776-4.485-.124-.734.131-1.762.076-2.5l-.769-3.991Z" transform="translate(-331.138 -615.62)" fill="#eac5b0"/>
        </g>
        <path id="Trazado_897952" data-name="Trazado 897952" d="M317.318,537.084l2.073,9.207.44,8.694,3.286-.074.894-24.319-6.371.116Z" transform="translate(-311.582 -503.578)" fill="#3b455a"/>
        <g id="Grupo_1111810" data-name="Grupo 1111810" transform="translate(11.241 27.191)">
          <g id="Grupo_1111809" data-name="Grupo 1111809" transform="translate(2.534 14.678)">
            <path id="Trazado_897953" data-name="Trazado 897953" d="M369.9,683.968a.668.668,0,0,0-.625-.228.711.711,0,0,0-.5.42,1.342,1.342,0,0,0-.069.449c-.031.785.054,2.64,1.1,2.846a.787.787,0,0,0,.887-.645A4.08,4.08,0,0,0,369.9,683.968Z" transform="translate(-368.169 -673.031)" fill="#3b455a"/>
            <path id="Trazado_897954" data-name="Trazado 897954" d="M365.5,619.626l.279,4.754c.023,1.321.2,2.632.336,3.945.127,1.219-.071,2.489.566,3.6.2.348.6.579.886.157.217-.326.088-.869.13-1.238.17-1.507.382-3.01.563-4.516.089-.738-.214-1.753-.194-2.5l.58-4.022Z" transform="translate(-365.502 -619.626)" fill="#eac5b0"/>
          </g>
          <path id="Trazado_897955" data-name="Trazado 897955" d="M357.005,537.4l.267,8.937-1.4,9.037-3.343.1.148-9.781-1.769-8.111-.594-5.309,5.3-.626Z" transform="translate(-350.312 -531.652)" fill="#3b455a"/>
        </g>
        <path id="Trazado_897956" data-name="Trazado 897956" d="M320.2,421.349l-5.715-.136-3.313,6.162,1.178,5.772.21,6.907,8.152.111,2.682-.435-.712-7.38.408-9.858Z" transform="translate(-306.459 -412.449)" fill="#fff"/>
        <path id="Trazado_897957" data-name="Trazado 897957" d="M318.241,515.837l-.262.954,1.338,1.093,1.04-.469.274-1.121-.816-.316.034-.255-.223-.286Z" transform="translate(-312.133 -490.952)" fill="#eac5b0"/>
        <path id="Trazado_897958" data-name="Trazado 897958" d="M290.971,422.526l-6.98,7.66-1.049,3.1,5.706,5.983,1.731-1.164-3.659-5,3.492-2.588Z" transform="translate(-282.941 -413.543)" fill="#fff"/>
        <path id="Trazado_897959" data-name="Trazado 897959" d="M363.983,431.466l2.977,5.951,3.21.638,6.187-5.229-1.379-1.565-5.483,3.072-2.907-5.459Z" transform="translate(-350.461 -418.832)" fill="#abadb2"/>
        <g id="Grupo_1111812" data-name="Grupo 1111812" transform="translate(3.195)">
          <path id="Trazado_897960" data-name="Trazado 897960" d="M338.426,385.879c-.861-2.5-4.168-1.566-4.85.664a3.269,3.269,0,0,0,2.186,3.76,1.443,1.443,0,0,1,.012.156,4.9,4.9,0,0,0,.064.7,7.608,7.608,0,0,0,1.479-.2.2.2,0,0,0,.137-.067c.053-.083-.033-.327-.043-.419l-.034-.326a2.6,2.6,0,0,0,1.344-1.923A4.832,4.832,0,0,0,338.426,385.879Z" transform="translate(-328.241 -381.766)" fill="#eac5b0"/>
          <g id="Grupo_1111811" data-name="Grupo 1111811">
            <path id="Trazado_897961" data-name="Trazado 897961" d="M348.517,378a1.313,1.313,0,0,0-.3.672,1.05,1.05,0,0,0-.026.435c.123.569.687.539,1.123.722a2.908,2.908,0,0,1,1.3,1.121,3.371,3.371,0,0,1,.068,2.544c-.067.292-.2.725.023.986a.971.971,0,0,0,1.036.088c.252-.124.458-.354.734-.4.292-.049.687.08.824-.189a1.843,1.843,0,0,1,.089-.234c.161-.231.563.04.791-.123a.445.445,0,0,0,.092-.483,1.148,1.148,0,0,1-.094-.512,1.688,1.688,0,0,1,.2-.4.786.786,0,0,0-.108-.835c-.36-.417-1.057-.337-1.442-.729a1.7,1.7,0,0,1-.354-.777,1.491,1.491,0,0,0-.38-.761c-.265-.233-.649-.194-.91-.47a5.349,5.349,0,0,0-.429-.516,3.454,3.454,0,0,0-.955-.425A1.243,1.243,0,0,0,348.517,378Z" transform="translate(-340.489 -376.147)" fill="#3b455a"/>
            <path id="Trazado_897962" data-name="Trazado 897962" d="M308.025,374.533c-.015.824.394,1.716.014,2.441s-1.339.864-2.153.9c-.134.006-1.852.155-1.86.122a5.6,5.6,0,0,0-.562-1.664,1.833,1.833,0,0,0-1.376-.958.353.353,0,0,0,.23-.4,2.724,2.724,0,0,0-.159-.49,1.154,1.154,0,0,1,.3-1.159c.608-.567,1.71-.331,2.231-.982.323-.4.285-.989.454-1.481.327-.953,1.37-1.152,2.15-1.582a3.734,3.734,0,0,1,2.547-.545,1.935,1.935,0,0,1,1.6,2.523c-.582,1.447-2.911,1.322-3.346,2.791A1.814,1.814,0,0,0,308.025,374.533Z" transform="translate(-302.089 -368.687)" fill="#3b455a"/>
          </g>
        </g>
      </g>
      <path id="Trazado_897963" data-name="Trazado 897963" d="M341.16,421.317l1.773,2.506.833-.068,1.389-2.541Z" transform="translate(-331.446 -412.449)" fill="#7db5db"/>
    </g>
    <g id="Grupo_1111815" data-name="Grupo 1111815" transform="translate(122.621 8.67)">
      <rect id="Rectángulo_405185" data-name="Rectángulo 405185" width="0.781" height="28.933" transform="translate(0 0.774) rotate(-82.409)" fill="#bcbec0"/>
    </g>
    <g id="Grupo_1111816" data-name="Grupo 1111816" transform="translate(26.677 34.816)">
      <rect id="Rectángulo_405186" data-name="Rectángulo 405186" width="0.781" height="41.262" transform="translate(0 0.569) rotate(-46.832)" fill="#bcbec0"/>
    </g>
    <g id="Grupo_1111817" data-name="Grupo 1111817" transform="translate(122.705 10.632)">
      <rect id="Rectángulo_405187" data-name="Rectángulo 405187" width="0.781" height="44.874" transform="matrix(0.561, -0.828, 0.828, 0.561, 0, 0.646)" fill="#bcbec0"/>
    </g>
    <g id="Grupo_1111818" data-name="Grupo 1111818" transform="translate(8.439 43.151)">
      <path id="Trazado_897964" data-name="Trazado 897964" d="M143.452,432.814c-.137-1.41-.279-2.819-.452-4.225a52.115,52.115,0,0,0-1.613-8.315c-.3-1.037-.655-2.059-1.006-3.081l-1.282-3.734a4.671,4.671,0,0,0-3-3.178,5.9,5.9,0,0,0-.88-.226.909.909,0,0,0-.018.1.8.8,0,0,1-.155.421l1.03.01s2.907,10.158,3.014,11.909c.041.666.176,2.118.326,3.649l1.579.232.068,5.854c.088.025.176.05.263.073a4.543,4.543,0,0,1,1.324.784C143.267,433.51,143.536,433.678,143.452,432.814Z" transform="translate(-125.963 -400.368)" fill="#3b455a"/>
      <path id="Trazado_897965" data-name="Trazado 897965" d="M85.8,425.539a25.782,25.782,0,0,0,.533-3.465c.062-2.152.337-9.262.337-9.262L88,410.092l.247,0-.053-.006a1.871,1.871,0,0,0-.021-.593c-2.33.14-4.717,1.362-5.386,3.63a2.841,2.841,0,0,0-.114.572c-.093,1.165.263,2.026-.073,3.2-.292,1.017-.557,2.049-.751,3.09-.281,1.506-.541,3.005-.746,4.5a46.179,46.179,0,0,0-.433,4.949c-.005.182-.042.689-.062,1.3-.043,1.27-.015,2.968.519,3.032a.527.527,0,0,0,.285-.075,18.868,18.868,0,0,0,1.836-1.152l.033-6.624Z" transform="translate(-80.596 -399.9)" fill="#3b455a"/>
      <path id="Trazado_897966" data-name="Trazado 897966" d="M138.213,537.643l-.349.027-1.131,10.866,1.216,15.8h.012V564.1h2.028l2.572-17.6-.092-7.98a14.178,14.178,0,0,0-3.845-.888C138.486,537.636,138.35,537.64,138.213,537.643Z" transform="translate(-127.367 -506.66)" fill="#3b455a"/>
      <path id="Trazado_897967" data-name="Trazado 897967" d="M148.213,506.476c.238,2.422.514,5.039.514,5.039s-1.276.03-3.122.168c.136,0,.273-.007.409-.008a14.182,14.182,0,0,1,3.845.888l-.068-5.854Z" transform="translate(-134.757 -480.7)" fill="#3b455a"/>
      <path id="Trazado_897968" data-name="Trazado 897968" d="M144.089,696.5v.845l2.168,1.084,1.084-1.084-1.084-1.084h-.14l-.035.239Z" transform="translate(-133.495 -638.819)" fill="#3b455a"/>
      <path id="Trazado_897969" data-name="Trazado 897969" d="M144.089,696.5h1.993l.035-.239h-2.028Z" transform="translate(-133.495 -638.819)" fill="#3b455a"/>
      <path id="Trazado_897970" data-name="Trazado 897970" d="M101.477,539.518l-.149.018a17.771,17.771,0,0,1-2.673.413,8.588,8.588,0,0,0-1.512.538,6.6,6.6,0,0,0-.673.375l-.007,1.379,2.461,23.429h2.018v.239h.012l2.219-15.715.009-.089-.05-.655Z" transform="translate(-93.816 -508.229)" fill="#3b455a"/>
      <path id="Trazado_897971" data-name="Trazado 897971" d="M98.689,511.732c-.88.046-.99-.117-.99-.117s.794-3.19,1.352-5.964l-2.514.37-.033,6.624a6.568,6.568,0,0,1,.673-.375A8.582,8.582,0,0,1,98.689,511.732Z" transform="translate(-93.851 -480.013)" fill="#3b455a"/>
      <path id="Trazado_897972" data-name="Trazado 897972" d="M126.511,538.122l1.655,9.932.05.655,1.131-10.866C128.487,537.911,127.52,538,126.511,538.122Z" transform="translate(-118.85 -506.834)" fill="#3b455a"/>
      <path id="Trazado_897973" data-name="Trazado 897973" d="M105.055,696.26h-.15l-1.084,1.084,1.084,1.084,2.168-1.084V696.5h-1.993Z" transform="translate(-99.947 -638.819)" fill="#3b455a"/>
      <path id="Trazado_897974" data-name="Trazado 897974" d="M111.215,696.26l.025.239h1.993v-.239Z" transform="translate(-106.106 -638.819)" fill="#3b455a"/>
      <path id="Trazado_897975" data-name="Trazado 897975" d="M115.5,413.189a.616.616,0,0,1-.263.007l-1.022-.121-.247,0-1.336,2.719s-.275,7.109-.337,9.262a25.732,25.732,0,0,1-.533,3.465l1.482-.218-.11-.657.8.117-.055-.094.336-13.107-.217-.853a.376.376,0,0,1,.364-.469H115.7a.376.376,0,0,1,.3.6l-.547.717,1.432,13.206.832-.122-.069.663,2.377.35c-.15-1.531-.285-2.983-.326-3.649-.107-1.751-3.014-11.909-3.014-11.909l-1.03-.01a.373.373,0,0,1-.036.037A.322.322,0,0,1,115.5,413.189Z" transform="translate(-106.566 -402.881)" fill="#fff"/>
      <path id="Trazado_897976" data-name="Trazado 897976" d="M143.512,537.71l.349-.027-.347.01Z" transform="translate(-133.015 -506.7)" fill="#fff"/>
      <path id="Trazado_897977" data-name="Trazado 897977" d="M143.522,509.946l.347-.01c1.846-.138,3.122-.168,3.122-.168s-.276-2.617-.514-5.039l-2.377-.35Z" transform="translate(-133.023 -478.953)" fill="#fff"/>
      <path id="Trazado_897978" data-name="Trazado 897978" d="M120.79,500.52l-.8-.117.109.657.926-.136Z" transform="translate(-113.419 -475.64)" fill="#fff"/>
      <path id="Trazado_897979" data-name="Trazado 897979" d="M111.2,539.3a15.972,15.972,0,0,0-1.607.324,17.793,17.793,0,0,0,2.673-.413l.149-.018-.011-.065Q111.8,539.206,111.2,539.3Z" transform="translate(-104.758 -507.907)" fill="#fff"/>
      <path id="Trazado_897980" data-name="Trazado 897980" d="M141.51,500.932l.915.135.069-.663-.831.122.025.231Z" transform="translate(-131.347 -475.64)" fill="#fff"/>
      <path id="Trazado_897981" data-name="Trazado 897981" d="M107.465,510.147l-.967-5.8-1.482.218c-.558,2.775-1.352,5.964-1.352,5.964s.109.163.99.117a16.05,16.05,0,0,1,1.607-.324Q106.861,510.223,107.465,510.147Z" transform="translate(-99.815 -478.923)" fill="#fff"/>
      <path id="Trazado_897982" data-name="Trazado 897982" d="M126.446,537.973l.011.065c1.009-.12,1.976-.211,2.837-.28l0-.017C128.346,537.776,127.393,537.855,126.446,537.973Z" transform="translate(-118.796 -506.749)" fill="#fff"/>
      <path id="Trazado_897983" data-name="Trazado 897983" d="M124.465,509.235l.579-5.567-.915-.135-1.615,1.588-.94-1.6-.926.136.967,5.8C122.563,509.348,123.515,509.269,124.465,509.235Z" transform="translate(-113.965 -478.242)" fill="#fff"/>
      <path id="Trazado_897984" data-name="Trazado 897984" d="M127.442,428.6l-1.432-13.206.547-.717a.376.376,0,0,0-.3-.6h-1.334a.376.376,0,0,0-.364.469l.217.853-.336,13.107.055.094,1.489.219Z" transform="translate(-117.126 -403.711)" fill="#7db5db"/>
      <path id="Trazado_897985" data-name="Trazado 897985" d="M126.262,501.326l-1.489-.219.238.4Z" transform="translate(-117.402 -476.227)" fill="#7db5db"/>
      <path id="Trazado_897986" data-name="Trazado 897986" d="M135,501.543l.178-.175-.025-.231-1.456.214Z" transform="translate(-124.84 -476.252)" fill="#7db5db"/>
      <path id="Trazado_897987" data-name="Trazado 897987" d="M126.2,502.605l.94,1.6,1.615-1.588-1.3-.192Z" transform="translate(-118.589 -477.322)" fill="#7db5db"/>
      <path id="Trazado_897988" data-name="Trazado 897988" d="M120.253,384.274c.133-.573.766-.831,1.108-1.34a4.454,4.454,0,0,0,.677-1.932l0-.035a1.01,1.01,0,0,1-.157.069,1.878,1.878,0,0,1,.122-.829.78.78,0,0,0,.014-.214,6.128,6.128,0,0,1-1.344-.423,4.342,4.342,0,0,0-2.986-.289c-.615.305-.426,1.279-.4,1.895a1.682,1.682,0,0,1-.016.474,2.026,2.026,0,0,1-.2.4,1.7,1.7,0,0,0,.364.674c.493.556.994.83,1.127,1.458A7.115,7.115,0,0,1,120.253,384.274Z" transform="translate(-110.994 -374.586)" fill="#b9916f"/>
      <path id="Trazado_897989" data-name="Trazado 897989" d="M126.041,410.02l.053.006,1.432.014a.8.8,0,0,0,.155-.421.924.924,0,0,1,.018-.1,7.125,7.125,0,0,0-1.68-.094A1.872,1.872,0,0,1,126.041,410.02Z" transform="translate(-118.441 -399.832)" fill="#b9916f"/>
      <path id="Trazado_897990" data-name="Trazado 897990" d="M127.487,413.209a.613.613,0,0,0,.263-.007.321.321,0,0,0,.111-.063.373.373,0,0,0,.036-.037l-1.432-.014Z" transform="translate(-118.812 -402.894)" fill="#eac5b0"/>
      <path id="Trazado_897991" data-name="Trazado 897991" d="M146.815,384.433a2.976,2.976,0,0,1-.01.969,1.7,1.7,0,0,0,.706-.938A2.641,2.641,0,0,1,146.815,384.433Z" transform="translate(-135.758 -379.02)" fill="#3b455a"/>
      <path id="Trazado_897992" data-name="Trazado 897992" d="M145.937,384.406l-.031-.006a.78.78,0,0,1-.014.214,1.875,1.875,0,0,0-.122.829.987.987,0,0,0,.157-.069A2.98,2.98,0,0,0,145.937,384.406Z" transform="translate(-134.88 -378.992)" fill="#3b455a"/>
      <path id="Trazado_897993" data-name="Trazado 897993" d="M108.156,357.571a1.864,1.864,0,0,1,.125-.716,1.565,1.565,0,0,1,1.011-.73,3.81,3.81,0,0,1,3.156.347,1.67,1.67,0,0,1,.605.614,1.15,1.15,0,0,1,.054.123,2.5,2.5,0,0,1-.154-.818.481.481,0,0,1,.741-.208.764.764,0,0,1,.285.561,1.609,1.609,0,0,1-.1.643l-.016.045a1.408,1.408,0,0,0,.418-.1,2.638,2.638,0,0,0,1.167-2.14.981.981,0,0,0-.431-.825,2,2,0,0,1-.7-.588c-.12-.212-.138-.475-.257-.687a1.727,1.727,0,0,0-1.089-.629c-1.017-.327-1.565-.7-2.642-.286a15.208,15.208,0,0,0-2.467.771,2.489,2.489,0,0,0-.757.8,4.494,4.494,0,0,0-.423,3.873,4.8,4.8,0,0,0,.38.734,2.945,2.945,0,0,0,1.093,1.256.545.545,0,0,1,.047-.152A6.088,6.088,0,0,1,108.156,357.571Z" transform="translate(-102.107 -351.99)" fill="#3b455a"/>
      <path id="Trazado_897994" data-name="Trazado 897994" d="M116.828,378.283c-.031-.616-.22-1.59.4-1.895a4.342,4.342,0,0,1,2.986.289,6.122,6.122,0,0,0,1.344.423,1.309,1.309,0,0,0-.026-.188,1.18,1.18,0,0,0-.054-.123,1.67,1.67,0,0,0-.605-.614,3.811,3.811,0,0,0-3.156-.347,1.567,1.567,0,0,0-1.011.73,1.865,1.865,0,0,0-.125.716,6.09,6.09,0,0,0,.039,1.882,2.045,2.045,0,0,0,.2-.4A1.694,1.694,0,0,0,116.828,378.283Z" transform="translate(-110.526 -371.693)" fill="#3b455a"/>
      <path id="Trazado_897995" data-name="Trazado 897995" d="M146.582,377.226a.763.763,0,0,0-.285-.561.481.481,0,0,0-.741.208,2.5,2.5,0,0,0,.154.818,1.333,1.333,0,0,1,.056.194,2.63,2.63,0,0,0,.7.031l.016-.045A1.608,1.608,0,0,0,146.582,377.226Z" transform="translate(-134.71 -372.471)" fill="#3b455a"/>
      <path id="Trazado_897996" data-name="Trazado 897996" d="M146.529,383.273a1.335,1.335,0,0,1,.026.188l.031.006A1.367,1.367,0,0,0,146.529,383.273Z" transform="translate(-135.528 -378.053)" fill="#3b455a"/>
    </g>
    <g id="Grupo_1111825" data-name="Grupo 1111825" transform="translate(139.862 45.21)">
      <g id="Grupo_1111820" data-name="Grupo 1111820" transform="translate(8.983 1.026)">
        <g id="Grupo_1111819" data-name="Grupo 1111819">
          <path id="Trazado_897997" data-name="Trazado 897997" d="M923.489,382.075a3.171,3.171,0,0,0-.03,2.443c.081.324.221.784-.092,1.025a.822.822,0,0,1-1.11-.33,1.69,1.69,0,0,1-.145-.786,11.294,11.294,0,0,1,.425-3.984c.366-.89,2-2.161,2.972-1.215a1.26,1.26,0,0,1,.3.643.988.988,0,0,1,.032.418c-.113.547-.666.522-1.091.7A2.805,2.805,0,0,0,923.489,382.075Z" transform="translate(-922.107 -377.489)" fill="#3b455a"/>
          <path id="Trazado_897998" data-name="Trazado 897998" d="M929.56,390.88a2.525,2.525,0,0,1-1.356-1.842,4.533,4.533,0,0,1,.256-2.256c.809-2.41,4.067-1.531,4.768.605C933.838,389.249,931.713,391.873,929.56,390.88Z" transform="translate(-927.141 -382.856)" fill="#eac5b0"/>
          <path id="Trazado_897999" data-name="Trazado 897999" d="M938.967,376.109c-.066.3-.015.66-.069.975a8.57,8.57,0,0,0-.408,1.832,3.585,3.585,0,0,0,1.925-.291c.551-.261.66-.872.939-1.424a7.865,7.865,0,0,0,.682-1.571,4.064,4.064,0,0,0-4.736-5.086,1.844,1.844,0,0,0-1.532,2.433c.5,1.162,2.216,1.268,2.942,2.243A1.682,1.682,0,0,1,938.967,376.109Z" transform="translate(-933.381 -370.478)" fill="#3b455a"/>
        </g>
        <path id="Trazado_898000" data-name="Trazado 898000" d="M935.945,416.514l-.071.684c-.011.1-.1.384-.048.476a.178.178,0,0,0,.134.071,6.458,6.458,0,0,0,1.456.166,6.389,6.389,0,0,0,.073-.791,3.463,3.463,0,0,0,.035-.77,2.091,2.091,0,0,1-.784.13q-.4,0-.79-.019C935.949,416.479,935.947,416.5,935.945,416.514Z" transform="translate(-933.524 -408.696)" fill="#eac5b0"/>
      </g>
      <g id="Grupo_1111821" data-name="Grupo 1111821" transform="translate(0 11.851)">
        <path id="Trazado_898001" data-name="Trazado 898001" d="M870.073,531.359l-.9-.175-.9,1.284.515.911,1.057.175.389-1.3Z" transform="translate(-868.268 -515.195)" fill="#eac5b0"/>
        <path id="Trazado_898002" data-name="Trazado 898002" d="M883.044,435.389l-4.13-.031-1.314,9.206-3.963,6.56,1.1,1.269,5.241-5.269Z" transform="translate(-872.742 -435.358)" fill="#305399"/>
      </g>
      <g id="Grupo_1111822" data-name="Grupo 1111822" transform="translate(7.324 41.613)">
        <path id="Trazado_898003" data-name="Trazado 898003" d="M920.088,689.306a.776.776,0,0,1,.627-.433.813.813,0,0,1,.677.307,1.477,1.477,0,0,1,.208.466c.264.842.712,2.878-.39,3.413a.9.9,0,0,1-1.173-.435A4.5,4.5,0,0,1,920.088,689.306Z" transform="translate(-918.479 -676.336)" fill="#3b455a"/>
        <path id="Trazado_898004" data-name="Trazado 898004" d="M915.77,613.736l-.145,5.345c.036,2.375-.38,4.758-.344,7.134a5.892,5.892,0,0,1,0,1.664c-.146.527-.588.615-1.035.34-.6-.368-.489-1.205-.581-1.818-.251-1.685-.55-3.364-.813-5.047-.129-.825.181-1.975.13-2.809l-.815-4.493Z" transform="translate(-912.163 -613.736)" fill="#eac5b0"/>
      </g>
      <g id="Grupo_1111823" data-name="Grupo 1111823" transform="translate(11.685 41.602)">
        <path id="Trazado_898005" data-name="Trazado 898005" d="M940.888,691.073a.789.789,0,0,1,.693-.327.8.8,0,0,1,.614.411,1.46,1.46,0,0,1,.125.493c.114.872.2,2.952-.977,3.3a.891.891,0,0,1-1.081-.616A4.522,4.522,0,0,1,940.888,691.073Z" transform="translate(-939.858 -677.882)" fill="#3b455a"/>
        <path id="Trazado_898006" data-name="Trazado 898006" d="M938.3,613.667l.307,5.338c.036,2.375.524,4.744.56,7.12a5.894,5.894,0,0,0,.055,1.663c.162.523.606.6,1.045.309.588-.386.452-1.219.525-1.835.2-1.692.448-3.379.66-5.07.1-.829-.241-1.969-.215-2.8l.678-4.516Z" transform="translate(-938.3 -613.667)" fill="#eac5b0"/>
      </g>
      <path id="Trazado_898007" data-name="Trazado 898007" d="M915.269,423.17l-4.817.276-2.617,1.975s.271,8.231.171,11.278-.3,5.523-.565,9.981a48.215,48.215,0,0,0,.959,10.805l10.184-.154s2.073-11.165,1.007-14.059-.432-5.775-.468-8.143-1.032-10.307-1.032-10.307Z" transform="translate(-900.868 -413.353)" fill="#7db5db"/>
      <path id="Trazado_898008" data-name="Trazado 898008" d="M950.714,423.373l2.469,2.044s-1.046,9.112-1.09,10.622a48.711,48.711,0,0,0,.791,5.993l-3.586-.327a13.952,13.952,0,0,1-2.046-5.607c-.389-3.194,1.757-13.437,1.757-13.437Z" transform="translate(-934.034 -412.928)" fill="#305399"/>
      <path id="Trazado_898009" data-name="Trazado 898009" d="M905.107,423.926l-1.846,1.281s.845,9.911.931,11.42-1.162,6.328-1.162,6.328l3.936-.746a14.568,14.568,0,0,0,1.744-5.665c.27-3.2-2.033-13.38-2.033-13.38Z" transform="translate(-897.23 -413.348)" fill="#305399"/>
      <g id="Grupo_1111824" data-name="Grupo 1111824" transform="translate(15.026)">
        <path id="Trazado_898010" data-name="Trazado 898010" d="M1011.95,367.084l1.071.358,1.315-1.5-.475-1.235-1.258-.382-.692,1.592Z" transform="translate(-1002.969 -364.33)" fill="#eac5b0"/>
        <path id="Trazado_898011" data-name="Trazado 898011" d="M958.323,389.779l7.2-2.319,3.619-9.618L967,377.309l-4.253,7.308-4.394.93Z" transform="translate(-958.323 -375.143)" fill="#305399"/>
      </g>
    </g>
    <g id="Grupo_1111826" data-name="Grupo 1111826" transform="translate(56.825 39.034)">
      <rect id="Rectángulo_405188" data-name="Rectángulo 405188" width="42.081" height="0.781" transform="translate(0 23.973) rotate(-34.728)" fill="#bcbec0"/>
    </g>
    <g id="Grupo_1111827" data-name="Grupo 1111827" transform="translate(55.516 16.757)">
      <rect id="Rectángulo_405189" data-name="Rectángulo 405189" width="0.781" height="42.254" transform="translate(0 0.663) rotate(-58.19)" fill="#bcbec0"/>
    </g>
    <g id="Grupo_1111828" data-name="Grupo 1111828" transform="translate(24.825 32.636)">
      <rect id="Rectángulo_405190" data-name="Rectángulo 405190" width="0.781" height="67.069" transform="matrix(0.094, -0.996, 0.996, 0.094, 0, 0.777)" fill="#bcbec0"/>
    </g>
    <g id="Grupo_1111829" data-name="Grupo 1111829" transform="translate(90.366 8.768)">
      <rect id="Rectángulo_405191" data-name="Rectángulo 405191" width="44.289" height="0.781" transform="matrix(0.729, -0.684, 0.684, 0.729, 0, 30.307)" fill="#bcbec0"/>
    </g>
    <g id="Grupo_1111830" data-name="Grupo 1111830" transform="translate(90.417 39.025)">
      <rect id="Rectángulo_405192" data-name="Rectángulo 405192" width="0.781" height="50.989" transform="translate(0 0.654) rotate(-56.928)" fill="#bcbec0"/>
    </g>
    <g id="Grupo_1111831" data-name="Grupo 1111831" transform="translate(91.618 35.758)">
      <rect id="Rectángulo_405193" data-name="Rectángulo 405193" width="70.018" height="0.781" transform="translate(0 2.283) rotate(-1.868)" fill="#bcbec0"/>
    </g>
    <circle id="Elipse_11686" data-name="Elipse 11686" cx="21.112" cy="21.112" r="21.112" transform="translate(67.682 15.079)" fill="#305399"/>
    <circle id="Elipse_11687" data-name="Elipse 11687" cx="9.891" cy="9.891" r="9.891" transform="translate(45.074 4.828)" fill="#7db5db"/>
    <path id="Trazado_898012" data-name="Trazado 898012" d="M151.379,230.633a11.239,11.239,0,0,1,11.239-11.239c6.207,0,11.82,5.032,11.82,11.239s-5.613,11.239-11.82,11.239A11.239,11.239,0,0,1,151.379,230.633Z" transform="translate(-131.13 -198.366)" fill="#587bc9"/>
    <circle id="Elipse_11688" data-name="Elipse 11688" cx="8.87" cy="8.87" r="8.87" transform="translate(49.67 54.459)" fill="#305399"/>
    <circle id="Elipse_11689" data-name="Elipse 11689" cx="9.807" cy="9.807" r="9.807" transform="translate(112.866)" fill="#587bc9"/>
    <circle id="Elipse_11690" data-name="Elipse 11690" cx="10.686" cy="10.686" r="10.686" transform="translate(122.673 55.366)" fill="#587bc9"/>
    <circle id="Elipse_11691" data-name="Elipse 11691" cx="12.117" cy="12.117" r="12.117" transform="translate(142.93 36.148) rotate(-45)" fill="#7db5db"/>
    <circle id="Elipse_11692" data-name="Elipse 11692" cx="5.985" cy="5.985" r="5.985" transform="translate(145.367 6.889)" fill="#305399"/>
    <circle id="Elipse_11693" data-name="Elipse 11693" cx="5.985" cy="5.985" r="5.985" transform="translate(9.028 3.177)" fill="#305399"/>
    <circle id="Elipse_11694" data-name="Elipse 11694" cx="6.554" cy="6.554" r="6.554" transform="translate(0 36.056) rotate(-76.714)" fill="#7db5db"/>
    <circle id="Elipse_11695" data-name="Elipse 11695" cx="7.319" cy="7.319" r="7.319" transform="translate(18.875 54.451)" fill="#305399"/>
    <g id="Grupo_1111832" data-name="Grupo 1111832" transform="translate(7.886 53.603)">
      <path id="Trazado_898013" data-name="Trazado 898013" d="M133.47,470.093l1.154-.075.66-.777.236.056-.058.293.733-.488.711.074.469.827-.143.972-.871.379-1.122-.128-1.575.171Z" transform="translate(-124.095 -460.014)" fill="#b9916f"/>
      <path id="Trazado_898014" data-name="Trazado 898014" d="M87.261,424.155l-6.309.167,1.283-9.688-4.307,4.244-.648,8.94,2.32,1.264,8.61-2.746Z" transform="translate(-77.28 -414.634)" fill="#3b455a"/>
    </g>
    <g id="Grupo_1111834" data-name="Grupo 1111834" transform="translate(101.192 45.134)">
      <path id="Trazado_898015" data-name="Trazado 898015" d="M642.821,424.37l1.7-1.655,4.6.307a90.472,90.472,0,0,0,2.548,10.57c2.086,7.3-.969,16.6-.969,16.6s-11.83-2.812-14.192-3.275l2.963-13.347Z" transform="translate(-636.504 -412.897)" fill="#3b455a"/>
      <path id="Trazado_898016" data-name="Trazado 898016" d="M655.873,532.554v2.6L652.4,546.438l.868,11.715-2.169.434-3.471-14.318.133-4.212,1.6-8.591Z" transform="translate(-645.773 -503.502)" fill="#3b455a"/>
      <path id="Trazado_898017" data-name="Trazado 898017" d="M680.534,545.634l3.488,23.863h1.585l1-13.016,2.169-13.016Z" transform="translate(-673.188 -513.5)" fill="#3b455a"/>
      <path id="Trazado_898018" data-name="Trazado 898018" d="M661.87,691.2l-1.656,1.753.478.888,3.417-1.64-.629-1.3Z" transform="translate(-656.258 -636.336)"/>
      <path id="Trazado_898019" data-name="Trazado 898019" d="M691.42,697.481l-2.041,1.283.241.98,3.718-.734-.285-1.414Z" transform="translate(-680.557 -641.819)"/>
      <g id="Grupo_1111833" data-name="Grupo 1111833" transform="translate(8.375)">
        <path id="Trazado_898020" data-name="Trazado 898020" d="M689.479,382.346c.969,1.024,2.718,1.059,3.546,2.2a2.678,2.678,0,0,1,.121,2.662,2.253,2.253,0,0,1-.836.987,2.156,2.156,0,0,1-.794.265,3.061,3.061,0,0,1-1.106-.042,5.514,5.514,0,0,0-.094,1c-.646-.254-1.5-.042-2.149-.3.146-.372.5-1.209.647-1.581a2.965,2.965,0,0,1-.369-.456,3.357,3.357,0,0,1-.061-3.436A6.526,6.526,0,0,1,689.479,382.346Z" transform="translate(-687.734 -379.264)" fill="#b9916f"/>
        <path id="Trazado_898021" data-name="Trazado 898021" d="M688.422,367.507l3.559,2.55-1.616,3.021,1.564.108,3.2-4.439-4.442-4.235-3.013-.641-.97,1.229.676,2.783Z" transform="translate(-686.701 -363.872)" fill="#3b455a"/>
      </g>
      <path id="Trazado_898022" data-name="Trazado 898022" d="M659.912,423.793l6.209.019s.905,2.129,2.991,9.431-.969,16.6-.969,16.6-10.582-5.229-12.945-5.693l1.715-10.93Z" transform="translate(-652.08 -413.795)" fill="#fff"/>
      <path id="Trazado_898023" data-name="Trazado 898023" d="M686.364,432.368a96.047,96.047,0,0,0-3.069-9.587l-6.016-.225-.008.026c.115.3.234.6.338.9a20.755,20.755,0,0,1,.9,3.671,37.433,37.433,0,0,1,.291,6.664,43.452,43.452,0,0,1-.664,6.337,42.888,42.888,0,0,1-2.32,8.068c4.8.976,10.455,2.13,10.455,2.13S688.45,439.67,686.364,432.368Z" transform="translate(-669.253 -412.765)" fill="#3b455a"/>
      <path id="Trazado_898024" data-name="Trazado 898024" d="M668.205,442.46a7.358,7.358,0,0,0-.284,3.047,9.584,9.584,0,0,0,.7,1.291,5.958,5.958,0,0,0,.939-1.1,6.585,6.585,0,0,0,.432-2.595,57.38,57.38,0,0,1,.363-9.211c.605-.184,1.125-.629.752-1.261-1.178.447-1.3,3.1-1.56,4.182Z" transform="translate(-662.619 -421.16)" fill="#3b455a"/>
    </g>
    <path id="Trazado_898025" data-name="Trazado 898025" d="M423.631,444.167l.467-.872-1.063-1.362-1.118.227-.516,1.032.725.489-.09.241.154.328Z" transform="translate(-356.1 -383.775)" fill="#eac5b0"/>
    <path id="Trazado_898026" data-name="Trazado 898026" d="M494.471,220.748a16.683,16.683,0,1,0,1.307,6.474A16.578,16.578,0,0,0,494.471,220.748Zm-23.408,5.961a16.492,16.492,0,0,1,.442-3.813h6.8v7.911h-6.751A17.22,17.22,0,0,1,471.063,226.71Zm12.26-10.935a17.58,17.58,0,0,1,2.842,4.547c.126.3.242.6.35.9h-6.532V212.69A19.268,19.268,0,0,1,483.323,215.774Zm-5.013-2.92v8.368H472q.156-.437.336-.867a17.556,17.556,0,0,1,2.818-4.535A19.443,19.443,0,0,1,478.31,212.854Zm0,19.627v8.981a23.34,23.34,0,0,1-3.093-3.274,20.683,20.683,0,0,1-2.862-4.917q-.159-.393-.3-.791Zm1.674,9.168v-9.168h6.475q-.134.382-.286.76a20.654,20.654,0,0,1-2.841,4.9A23.249,23.249,0,0,1,479.984,241.649Zm0-10.842V222.9h7.026a16.5,16.5,0,0,1,.442,3.813,17.22,17.22,0,0,1-.5,4.1Zm8.742-7.911h4.747a15.126,15.126,0,0,1,.2,7.911h-5a18.865,18.865,0,0,0,.45-4.1A18.222,18.222,0,0,0,488.726,222.9Zm1-6.251a14.948,14.948,0,0,1,3.133,4.577h-4.575q-.251-.789-.575-1.555a19.252,19.252,0,0,0-3.111-4.98,21.29,21.29,0,0,0-1.973-2.018A14.86,14.86,0,0,1,489.724,216.646Zm-21.154,0a14.855,14.855,0,0,1,7.4-4.044,21.28,21.28,0,0,0-2.049,2.085,19.252,19.252,0,0,0-3.111,4.98q-.325.766-.575,1.555h-4.8A14.947,14.947,0,0,1,468.57,216.646Zm-3.749,6.251h4.968a18.209,18.209,0,0,0-.4,3.813,18.874,18.874,0,0,0,.45,4.1h-5.22a15.124,15.124,0,0,1,.2-7.911Zm3.749,14.9a14.913,14.913,0,0,1-3.434-5.318h5.156q.227.714.511,1.418a22.357,22.357,0,0,0,3.092,5.316,25.23,25.23,0,0,0,2.43,2.7A14.852,14.852,0,0,1,468.57,237.8Zm21.154,0a14.854,14.854,0,0,1-7.475,4.06,25.253,25.253,0,0,0,2.371-2.644,22.359,22.359,0,0,0,3.092-5.316q.284-.7.511-1.418h4.935A14.917,14.917,0,0,1,489.724,237.8Z" transform="translate(-390.353 -191.032)" fill="#fff"/>
    <g id="Grupo_1111835" data-name="Grupo 1111835" transform="translate(150.348 29.244)">
      <path id="Trazado_898027" data-name="Trazado 898027" d="M950.124,274.22a4.476,4.476,0,0,0-4.968-1.976l-.01,0a1.992,1.992,0,0,0-1.274,1.267c-.046.142-.27.081-.224-.062a2.206,2.206,0,0,1,1.335-1.387,4.789,4.789,0,0,0-9.309.545,2.934,2.934,0,0,1,.54.184,3.667,3.667,0,0,1,1.622,1.519.116.116,0,0,1-.2.117,3.742,3.742,0,0,0-.441-.605,3.109,3.109,0,0,0-2.439-1.06,3.976,3.976,0,0,0-2.6,1.236,3.851,3.851,0,0,0-1.023,2.935,3.783,3.783,0,0,0,1.5,2.677,4.7,4.7,0,0,0,2.687.894c.641.024,1.282.034,1.923.042,1.832.025,3.665.032,5.5.037l2.415,0a10.673,10.673,0,0,0,2.009-.072,4.317,4.317,0,0,0,3.531-4.565A4.188,4.188,0,0,0,950.124,274.22Z" transform="translate(-931.12 -268.639)" fill="#fff"/>
    </g>
    <path id="Trazado_898028" data-name="Trazado 898028" d="M188.179,254.127a1.926,1.926,0,0,0-2.024.376l-3.646-2.069a2.761,2.761,0,0,0-.113-2.1l3.444-2.277a2.3,2.3,0,1,0-.578-.964l-3.544,2.343a2.768,2.768,0,1,0,.186,3.993l3.679,2.088a1.923,1.923,0,1,0,2.6-1.385Z" transform="translate(-152.583 -218.976)" fill="#fff"/>
    <g id="Grupo_1111840" data-name="Grupo 1111840" transform="translate(124.565 61.175)">
      <g id="Grupo_1111836" data-name="Grupo 1111836" transform="translate(6.044 6.769)">
        <circle id="Elipse_11696" data-name="Elipse 11696" cx="2.131" cy="2.131" r="2.131" transform="translate(0 4.148) rotate(-76.714)" fill="#fff"/>
        <path id="Trazado_898029" data-name="Trazado 898029" d="M826.466,508.974a2.306,2.306,0,0,1,.092.856,2.084,2.084,0,0,1-.5,1.22,2.226,2.226,0,0,1-1.143.678,2.306,2.306,0,0,1-.652.06h-.024a1.483,1.483,0,0,0,.346.193,1.735,1.735,0,0,0,2.191-1.088A1.833,1.833,0,0,0,826.466,508.974Z" transform="translate(-822.331 -507.574)" opacity="0.06"/>
      </g>
      <g id="Grupo_1111837" data-name="Grupo 1111837" transform="translate(3.563 4.851)">
        <path id="Trazado_898030" data-name="Trazado 898030" d="M806.964,492.269a5.426,5.426,0,0,0-5.472-1.387,6.9,6.9,0,0,0-2.454,1.372l-1.1-1.111a8.513,8.513,0,0,1,3.076-1.735,6.978,6.978,0,0,1,7.01,1.719Z" transform="translate(-797.941 -489.086)" fill="#fff"/>
      </g>
      <g id="Grupo_1111838" data-name="Grupo 1111838" transform="translate(1.775 2.422)">
        <path id="Trazado_898031" data-name="Trazado 898031" d="M799.822,478.456a8.9,8.9,0,0,0-4.309-2.263,7.543,7.543,0,0,0-3.636.25,9.973,9.973,0,0,0-3.55,2l-1.1-1.108a11.527,11.527,0,0,1,4.172-2.363,9.134,9.134,0,0,1,4.4-.3,10.456,10.456,0,0,1,5.084,2.643Z" transform="translate(-787.227 -474.529)" fill="#fff"/>
      </g>
      <g id="Grupo_1111839" data-name="Grupo 1111839">
        <path id="Trazado_898032" data-name="Trazado 898032" d="M792.733,464.67a11.647,11.647,0,0,0-5.6-2.949,9.876,9.876,0,0,0-4.751.3,13.153,13.153,0,0,0-4.694,2.631l-1.1-1.109a14.535,14.535,0,0,1,5.262-2.978,11.489,11.489,0,0,1,5.539-.373,13.186,13.186,0,0,1,6.41,3.335Z" transform="translate(-776.588 -460.014)" fill="#fff"/>
      </g>
    </g>
    <g id="Grupo_1111841" data-name="Grupo 1111841" transform="translate(97.087 49.734)">
      <path id="Trazado_898033" data-name="Trazado 898033" d="M612.579,393.5l-.677-1.737.73-.322.727,1.087.275-.312.4,1.557-.714.437Z" transform="translate(-611.902 -391.44)" fill="#b9916f"/>
      <path id="Trazado_898034" data-name="Trazado 898034" d="M632.02,407.922l-7.661.718-6.289-6.656-1.372.939,5.056,8.8,10.266,1.707Z" transform="translate(-615.899 -400.226)" fill="#3b455a"/>
    </g>
    <path id="Trazado_898035" data-name="Trazado 898035" d="M356.381,440.176a1.855,1.855,0,0,0-1.831-.054c-.129.067-.255.138-.383.207l-1.992,1.075c-.5.268-.995.534-1.491.8a1.857,1.857,0,0,0-.922,1.15,1.921,1.921,0,0,0,.183,1.388l-.806.435c-.5.268-.995.534-1.491.8a1.857,1.857,0,0,0-.922,1.15,1.933,1.933,0,0,0,.2,1.43l.521.967a4.249,4.249,0,0,0,.523.854,1.846,1.846,0,0,0,1.766.548,2.75,2.75,0,0,0,.674-.291l3.571-1.926.1-.053a1.85,1.85,0,0,0,.961-1.613,2.08,2.08,0,0,0-.249-.91l.162-.087,2.063-1.113.1-.053a1.85,1.85,0,0,0,.961-1.613,2.407,2.407,0,0,0-.364-1.134l-.558-1.034A2.281,2.281,0,0,0,356.381,440.176Zm-1.332.617Zm-3.014,3.77.01,0c.047-.014.094-.027.142-.037l.072-.013.02,0h.018c.06,0,.119,0,.18,0l.07.008.038.008a1.433,1.433,0,0,1,.221.071h0l.014.009c.031.018.063.034.093.053s.136.1.1.07a1.518,1.518,0,0,1,.121.118c.017.019.033.039.049.058,0,0,.034.049.042.062.137.224.252.464.377.694l.077.144-.074.04-.041.022-.631.34-.1.053q-.058.03-.118.056c.019-.01-.1.032-.129.038s-.072.013-.108.021l-.015,0h-.005a2.253,2.253,0,0,1-.233,0l-.03,0-.077-.018c-.058-.015-.113-.035-.17-.055l-.016-.006-.017-.011-.063-.035q-.047-.027-.091-.058l-.04-.029,0,0a1.6,1.6,0,0,1-.141-.143l-.024-.03s-.038-.055-.042-.063c-.021-.034-.04-.069-.059-.1q-.2-.366-.4-.733l.636-.343.181-.1.027-.015C351.948,444.6,351.991,444.581,352.035,444.563Zm-.022.006Zm2.062,1.96.025.047c.018.034.033.069.05.1l.006.012,0,.007a2.212,2.212,0,0,1,.056.232c0,.005,0,.018,0,.027,0,.028,0,.055,0,.083,0,.049,0,.1-.008.145,0,0-.009.061-.011.07s-.011.046-.018.069-.021.068-.033.1c-.005.014-.011.027-.016.04l-.005.01a1.65,1.65,0,0,1-.1.17l-.022.031c-.005,0-.042.049-.048.055a1.833,1.833,0,0,1-.135.125l-.015.014-.017.009c-.033.019-.065.04-.1.058l-3.16,1.7-.631.34-.1.053q-.058.03-.118.056c.018-.01-.1.032-.129.038s-.072.013-.108.021l-.015,0h-.005a2.27,2.27,0,0,1-.233,0l-.03,0-.077-.017c-.058-.015-.113-.035-.17-.055l-.016-.006-.018-.011-.063-.035q-.047-.027-.091-.058l-.04-.03,0,0a1.591,1.591,0,0,1-.141-.143l-.024-.03s-.038-.055-.043-.063c-.021-.034-.04-.069-.059-.1q-.231-.427-.461-.854c-.123-.228-.253-.454-.369-.686-.011-.023-.021-.046-.033-.069l-.009-.018,0-.019c-.016-.059-.034-.118-.044-.179,0-.008-.009-.075-.01-.072,0-.018,0-.037,0-.055s0-.06,0-.09c0-.012.011-.1.009-.1a1.4,1.4,0,0,1,.037-.145c.009-.029.02-.056.029-.084,0-.008.009-.022.015-.034a1.557,1.557,0,0,1,.08-.141c.014-.021.029-.043.044-.063,0,.007.049-.055.059-.065a1.421,1.421,0,0,1,.135-.122l.019-.013c.033-.019.065-.04.1-.058l.023-.013.174-.094.733-.4,1.389-.749.008.015,0,0,.025.047h0l.119.22a4.248,4.248,0,0,0,.523.854,1.846,1.846,0,0,0,1.766.548,2.757,2.757,0,0,0,.674-.291l.55-.3.074-.039Zm2.567-4.646q.234.435.469.869l.025.047c.018.034.033.069.05.1l.006.012,0,.007a2.212,2.212,0,0,1,.056.232c0,.006,0,.018,0,.027,0,.028,0,.055,0,.083,0,.049,0,.1-.008.145,0,0-.009.061-.011.07s-.011.046-.018.069-.021.068-.033.1l-.016.04-.005.01a1.644,1.644,0,0,1-.1.17l-.022.031c-.005,0-.042.049-.048.055a1.78,1.78,0,0,1-.135.125l-.015.014-.017.009c-.033.019-.065.04-.1.058l-2.162,1.166-.158.085-.286-.53a2.28,2.28,0,0,0-.778-.929,1.855,1.855,0,0,0-1.831-.054c-.128.067-.255.138-.383.207l-.462.249-.042-.081c-.011-.023-.021-.046-.033-.069l-.009-.018,0-.019c-.016-.059-.034-.118-.044-.179,0-.008-.009-.075-.01-.072,0-.019,0-.037,0-.055s0-.06,0-.09c0-.012.011-.1.009-.1a1.341,1.341,0,0,1,.037-.145c.009-.028.02-.056.029-.084,0-.008.01-.022.015-.034a1.578,1.578,0,0,1,.08-.141c.014-.022.029-.043.044-.064,0,.007.049-.055.059-.065a1.426,1.426,0,0,1,.135-.122l.019-.013c.033-.019.065-.04.1-.058l.023-.013.174-.094.734-.4,2.007-1.083.743-.4.181-.1.027-.015c.043-.022.086-.043.13-.062l.01,0c.047-.014.094-.027.142-.037l.072-.013.02,0h.018c.06,0,.119,0,.18,0l.07.008.038.008a1.413,1.413,0,0,1,.221.071h0l.014.009c.031.018.063.034.093.053s.136.1.1.07a1.5,1.5,0,0,1,.12.118c.017.019.033.039.049.058,0,0,.034.049.042.062C356.4,441.412,356.518,441.652,356.642,441.883Z" transform="translate(-293.835 -382.086)" fill="#fff"/>
    <g id="Grupo_1111843" data-name="Grupo 1111843" transform="translate(50.786 7.723)">
      <path id="Trazado_898036" data-name="Trazado 898036" d="M346.176,140.724a2.659,2.659,0,0,0-1.334-.955,3.48,3.48,0,0,0-1.082-.116h-1.028a2.9,2.9,0,0,0-1.285.277,2.617,2.617,0,0,0-1.175,1.174,2.668,2.668,0,0,0-.277,1.2v5.435h.817v-5.462a1.69,1.69,0,0,1,.093-.578,2,2,0,0,1,.3-.554,1.749,1.749,0,0,1,.51-.437,1.785,1.785,0,0,1,.647-.226c.011,0,.046-.007.134-.013.037,0,.076,0,.125,0h1.44a1.707,1.707,0,0,1,.584.093,1.989,1.989,0,0,1,.554.3,1.749,1.749,0,0,1,.437.51,1.786,1.786,0,0,1,.226.647c0,.011.007.046.013.134,0,.037,0,.076,0,.123v5.464h.817v-5.462A2.6,2.6,0,0,0,346.176,140.724Z" transform="translate(-339.06 -139.654)" fill="#fff"/>
      <g id="Grupo_1111842" data-name="Grupo 1111842" transform="translate(0 6.047)">
        <path id="Trazado_898037" data-name="Trazado 898037" d="M334.4,175.9v5.927a1.452,1.452,0,0,0,1.451,1.451H341.3a1.451,1.451,0,0,0,1.451-1.451V175.9Zm4.458,3.8v1.427c0,.106-.123.192-.276.192h-.005c-.152,0-.276-.086-.276-.192v-1.427a1.1,1.1,0,1,1,.557,0Z" transform="translate(-334.397 -175.897)" fill="#fff"/>
      </g>
    </g>
    <g id="Grupo_1111846" data-name="Grupo 1111846" transform="translate(116.263 3.396)">
      <g id="Grupo_1111845" data-name="Grupo 1111845">
        <g id="Grupo_1111844" data-name="Grupo 1111844">
          <path id="Trazado_898038" data-name="Trazado 898038" d="M734.194,114.362l-.127-.588q-.305-.039-.617-.05t-.619.009l-.165.578a.872.872,0,0,1-1.485.346l-.406-.448a6.351,6.351,0,0,0-1.088.584l.146.584a.872.872,0,0,1-1.113,1.042l-.573-.184a6.351,6.351,0,0,0-.654,1.048l.42.434a.872.872,0,0,1-.443,1.459l-.588.127q-.039.305-.05.617t.009.619l.578.165a.872.872,0,0,1,.346,1.485l-.448.406a6.351,6.351,0,0,0,.584,1.088l.584-.146a.872.872,0,0,1,1.042,1.113l-.184.573a6.347,6.347,0,0,0,1.048.654l.434-.42a.872.872,0,0,1,1.459.443l.127.588q.305.039.617.05t.618-.009l.165-.578a.872.872,0,0,1,1.485-.346l.406.448a6.353,6.353,0,0,0,1.088-.584l-.146-.584a.872.872,0,0,1,1.113-1.042l.573.184a6.351,6.351,0,0,0,.654-1.048l-.42-.434a.872.872,0,0,1,.443-1.459l.588-.127q.039-.305.05-.617t-.009-.619l-.578-.165a.872.872,0,0,1-.346-1.485l.448-.406a6.351,6.351,0,0,0-.584-1.088l-.584.146a.872.872,0,0,1-1.042-1.113l.184-.573a6.348,6.348,0,0,0-1.048-.654l-.434.42A.872.872,0,0,1,734.194,114.362Zm1.669,5.855a2.624,2.624,0,1,1-2.537-2.709A2.624,2.624,0,0,1,735.863,120.218Z" transform="translate(-726.83 -113.721)" fill="#fff"/>
        </g>
      </g>
    </g>
    <path id="Trazado_898039" data-name="Trazado 898039" d="M167.88,443.338c0-1.867-2.145-3.381-4.79-3.381s-4.79,1.514-4.79,3.381a3.292,3.292,0,0,0,2.155,2.824l2.675,2.973-.445-2.427c.133.008.268.012.4.012C165.735,446.72,167.88,445.206,167.88,443.338Zm-6.8.524a.326.326,0,0,1,0-.651A.326.326,0,0,1,161.081,443.863Zm4.246-.651a.326.326,0,0,1,0,.651A.326.326,0,0,1,165.328,443.212Zm-2.008,0a.326.326,0,0,1,0,.651A.326.326,0,0,1,163.319,443.212Z" transform="translate(-136.895 -382.128)" fill="#fff"/>
  </g>
</svg>
