<svg xmlns="http://www.w3.org/2000/svg" width="85" height="85" viewBox="0 0 85 85">
  <g id="Grupo_1111851" data-name="Grupo 1111851" transform="translate(-180 -773)">
    <circle id="Elipse_11659" data-name="Elipse 11659" cx="42.5" cy="42.5" r="42.5" transform="translate(180 773)" fill="#fd9f81"/>
    <g id="Grupo_1111437" data-name="Grupo 1111437" transform="translate(193 750.928)">
      <g id="Grupo_1111420" data-name="Grupo 1111420" transform="translate(14.966 56.666)">
        <path id="Trazado_896613" data-name="Trazado 896613" d="M169.887,189.648a11.77,11.77,0,0,1-4,4.432H194.8v-4.432Z" transform="translate(-161.086 -189.648)" fill="#b4d2e2"/>
        <path id="Trazado_896614" data-name="Trazado 896614" d="M125.616,316.142h26.858v4.337H125.616Z" transform="translate(-125.616 -301.071)" fill="#b4d2e2"/>
        <path id="Trazado_896615" data-name="Trazado 896615" d="M125.616,316.142h4.045v4.337h-4.045Z" transform="translate(-125.616 -301.071)" fill="#8abbd5"/>
      </g>
      <path id="Trazado_896616" data-name="Trazado 896616" d="M224.153,100.673a.6.6,0,0,1-.6-.6V98.35H198.95a11.731,11.731,0,0,1,.064,10.877h26.174a1.191,1.191,0,0,0,1.191-1.191v-7.363h-2.226Z" transform="translate(-175.247 -52.561)" fill="#8abbd5"/>
      <path id="Trazado_896617" data-name="Trazado 896617" d="M134.38,234.558a.6.6,0,0,1,.6-.6h8.713v-6.927a1.191,1.191,0,0,0-1.191-1.191h-30a11.661,11.661,0,0,1-6.586,2.025c-.282,0-.561-.011-.838-.03v7.691a1.191,1.191,0,0,0,1.191,1.191H134.38Z" transform="translate(-92.555 -164.865)" fill="#8abbd5"/>
      <path id="Trazado_896618" data-name="Trazado 896618" d="M111.14,241.1v-8.494a1.187,1.187,0,0,1,.084-.438,11.666,11.666,0,0,1-5.313,1.272c-.282,0-.561-.011-.838-.03V241.1a1.191,1.191,0,0,0,1.191,1.191h6.067A1.192,1.192,0,0,1,111.14,241.1Z" transform="translate(-92.555 -170.438)" fill="#6cabca"/>
      <path id="Trazado_896619" data-name="Trazado 896619" d="M134.38,352.547H106.265a1.191,1.191,0,0,0-1.191,1.191v8.494a1.191,1.191,0,0,0,1.191,1.191H134.38Z" transform="translate(-92.555 -276.473)" fill="#8abbd5"/>
      <g id="Grupo_1111421" data-name="Grupo 1111421" transform="translate(12.519 76.074)">
        <path id="Trazado_896620" data-name="Trazado 896620" d="M111.141,362.233v-8.494a1.191,1.191,0,0,1,1.191-1.191h-6.067a1.191,1.191,0,0,0-1.191,1.191v8.494a1.191,1.191,0,0,0,1.191,1.191h6.067A1.191,1.191,0,0,1,111.141,362.233Z" transform="translate(-105.074 -352.547)" fill="#6cabca"/>
      </g>
      <g id="Grupo_1111422" data-name="Grupo 1111422" transform="translate(1.641 39.573)">
        <path id="Trazado_896621" data-name="Trazado 896621" d="M25.492,46.178a11.718,11.718,0,0,0-10.15,17.569h2.394a.6.6,0,0,1,.6.6v2.823a11.715,11.715,0,1,0,7.161-20.988Z" transform="translate(-13.777 -46.178)" fill="#ffe177"/>
        <path id="Trazado_896622" data-name="Trazado 896622" d="M18.807,57.893a11.719,11.719,0,0,1,9.2-11.444,11.719,11.719,0,0,0-12.666,17.3h2.394a.6.6,0,0,1,.6.6v2.823a11.732,11.732,0,0,0,9.676,2.172,11.72,11.72,0,0,1-9.2-11.444Z" transform="translate(-13.777 -46.178)" fill="#ffc344"/>
      </g>
      <g id="Grupo_1111425" data-name="Grupo 1111425" transform="translate(41.824 69.097)">
        <g id="Grupo_1111423" data-name="Grupo 1111423" transform="translate(0 0)">
          <path id="Trazado_896623" data-name="Trazado 896623" d="M363.316,293.982H351.647a.6.6,0,0,0-.6.6v19.282a.6.6,0,0,0,.6.6h15.187a.6.6,0,0,0,.6-.6V298.1a.6.6,0,0,0-.174-.421l-3.518-3.518A.6.6,0,0,0,363.316,293.982Z" transform="translate(-351.051 -293.982)" fill="#d8ecfe"/>
        </g>
        <g id="Grupo_1111424" data-name="Grupo 1111424" transform="translate(0 0)">
          <path id="Trazado_896624" data-name="Trazado 896624" d="M355.873,313.859V294.578a.6.6,0,0,1,.6-.6h-4.822a.6.6,0,0,0-.6.6v19.282a.6.6,0,0,0,.6.6h4.822A.6.6,0,0,1,355.873,313.859Z" transform="translate(-351.051 -293.982)" fill="#c4e2ff"/>
        </g>
      </g>
      <g id="Grupo_1111426" data-name="Grupo 1111426" transform="translate(54.804 59.658)">
        <path id="Trazado_896625" data-name="Trazado 896625" d="M464.7,220.058h-4.111a.6.6,0,0,1-.6-.6v-4.111a.6.6,0,0,1,.6-.6H464.7a.6.6,0,0,1,.6.6v4.111A.6.6,0,0,1,464.7,220.058Z" transform="translate(-459.993 -214.755)" fill="#fe646f"/>
      </g>
      <g id="Grupo_1111427" data-name="Grupo 1111427" transform="translate(54.804 59.658)">
        <path id="Trazado_896626" data-name="Trazado 896626" d="M462.435,219.462v-4.111a.6.6,0,0,1,.6-.6h-2.442a.6.6,0,0,0-.6.6v4.111a.6.6,0,0,0,.6.6h2.442A.6.6,0,0,1,462.435,219.462Z" transform="translate(-459.993 -214.755)" fill="#fd4755"/>
      </g>
      <g id="Grupo_1111428" data-name="Grupo 1111428" transform="translate(48.311 42.809)">
        <path id="Trazado_896627" data-name="Trazado 896627" d="M410.2,78.64h-4.111a.6.6,0,0,1-.6-.6V73.933a.6.6,0,0,1,.6-.6H410.2a.6.6,0,0,1,.6.6v4.111A.6.6,0,0,1,410.2,78.64Z" transform="translate(-405.493 -73.337)" fill="#00f2a6"/>
      </g>
      <g id="Grupo_1111429" data-name="Grupo 1111429" transform="translate(48.311 42.809)">
        <path id="Trazado_896628" data-name="Trazado 896628" d="M407.935,78.044V73.933a.6.6,0,0,1,.6-.6h-2.442a.6.6,0,0,0-.6.6v4.111a.6.6,0,0,0,.6.6h2.442A.6.6,0,0,1,407.935,78.044Z" transform="translate(-405.493 -73.337)" fill="#05e39c"/>
      </g>
      <g id="Grupo_1111430" data-name="Grupo 1111430" transform="translate(0.894 57.142)">
        <path id="Trazado_896629" data-name="Trazado 896629" d="M12.207,198.945H8.1a.6.6,0,0,1-.6-.6v-4.111a.6.6,0,0,1,.6-.6h4.111a.6.6,0,0,1,.6.6v4.111A.6.6,0,0,1,12.207,198.945Z" transform="translate(-7.5 -193.642)" fill="#00f2a6"/>
      </g>
      <g id="Grupo_1111431" data-name="Grupo 1111431" transform="translate(0.894 57.142)">
        <path id="Trazado_896630" data-name="Trazado 896630" d="M9.942,198.349v-4.111a.6.6,0,0,1,.6-.6H8.1a.6.6,0,0,0-.6.6v4.111a.6.6,0,0,0,.6.6h2.442A.6.6,0,0,1,9.942,198.349Z" transform="translate(-7.5 -193.642)" fill="#05e39c"/>
      </g>
      <g id="Grupo_1111432" data-name="Grupo 1111432" transform="translate(0.894 74.665)">
        <path id="Trazado_896631" data-name="Trazado 896631" d="M12.207,346.017H8.1a.6.6,0,0,1-.6-.6V341.31a.6.6,0,0,1,.6-.6h4.111a.6.6,0,0,1,.6.6v4.111A.6.6,0,0,1,12.207,346.017Z" transform="translate(-7.5 -340.714)" fill="#00f2a6"/>
      </g>
      <g id="Grupo_1111433" data-name="Grupo 1111433" transform="translate(0.894 74.665)">
        <path id="Trazado_896632" data-name="Trazado 896632" d="M9.942,345.421V341.31a.6.6,0,0,1,.6-.6H8.1a.6.6,0,0,0-.6.6v4.111a.6.6,0,0,0,.6.6h2.442A.6.6,0,0,1,9.942,345.421Z" transform="translate(-7.5 -340.714)" fill="#05e39c"/>
      </g>
      <g id="Grupo_1111434" data-name="Grupo 1111434" transform="translate(3.752 65.864)">
        <path id="Trazado_896633" data-name="Trazado 896633" d="M36.2,272.148H32.089a.6.6,0,0,1-.6-.6v-4.111a.6.6,0,0,1,.6-.6H36.2a.6.6,0,0,1,.6.6v4.111A.6.6,0,0,1,36.2,272.148Z" transform="translate(-31.493 -266.845)" fill="#ffe177"/>
      </g>
      <g id="Grupo_1111435" data-name="Grupo 1111435" transform="translate(3.752 65.864)">
        <path id="Trazado_896634" data-name="Trazado 896634" d="M33.935,271.552v-4.111a.6.6,0,0,1,.6-.6H32.089a.6.6,0,0,0-.6.6v4.111a.6.6,0,0,0,.6.6h2.442A.6.6,0,0,1,33.935,271.552Z" transform="translate(-31.493 -266.845)" fill="#ffc344"/>
      </g>
      <g id="Grupo_1111436" data-name="Grupo 1111436" transform="translate(0 38.68)">
        <path id="Trazado_896635" data-name="Trazado 896635" d="M358.095,136h3.4a.894.894,0,0,0,0-1.787h-3.4a.894.894,0,0,0,0,1.787Z" transform="translate(-314.644 -122.835)"/>
        <path id="Trazado_896636" data-name="Trazado 896636" d="M155.286,261.71H134.416a.894.894,0,0,0,0,1.787h20.871a.894.894,0,0,0,0-1.787Z" transform="translate(-117.614 -235.138)"/>
        <path id="Trazado_896637" data-name="Trazado 896637" d="M361.493,261.71h-3.4a.894.894,0,0,0,0,1.787h3.4a.894.894,0,0,0,0-1.787Z" transform="translate(-314.643 -235.138)"/>
        <path id="Trazado_896638" data-name="Trazado 896638" d="M155.286,388.413H134.416a.894.894,0,1,0,0,1.787h20.871a.894.894,0,0,0,0-1.787Z" transform="translate(-117.614 -346.746)"/>
        <path id="Trazado_896639" data-name="Trazado 896639" d="M106.04,119.184h-1.072a.357.357,0,0,0-.357.357v8.767a.357.357,0,0,0,.357.357h1.072a.357.357,0,0,0,.357-.357v-8.767A.357.357,0,0,0,106.04,119.184Z" transform="translate(-92.147 -109.593)"/>
        <path id="Trazado_896640" data-name="Trazado 896640" d="M106.4,92.961a.357.357,0,0,0-.357-.357h-1.072a.357.357,0,0,0-.357.357v1.072a.357.357,0,0,0,.357.357h1.072a.357.357,0,0,0,.357-.357Z" transform="translate(-92.147 -86.179)"/>
        <path id="Trazado_896641" data-name="Trazado 896641" d="M55.142,68.639a1.48,1.48,0,0,0-1.053-.436H52.026V62.17a2.087,2.087,0,0,0-2.085-2.085h-.362V57.56h.362a2.087,2.087,0,0,0,2.085-2.085v-6.47h.991a1.491,1.491,0,0,0,1.489-1.489V43.4a1.491,1.491,0,0,0-1.489-1.489H48.906A1.491,1.491,0,0,0,47.417,43.4V44.9H24.226a12.735,12.735,0,0,0-.756-1.139.893.893,0,1,0-1.432,1.069A10.817,10.817,0,0,1,7.09,60.1V57.738A1.491,1.491,0,0,0,5.6,56.249H3.742A10.821,10.821,0,0,1,19.22,42.192a.894.894,0,1,0,.97-1.5A12.607,12.607,0,0,0,1.767,56.249H1.489A1.491,1.491,0,0,0,0,57.738V61.85a1.491,1.491,0,0,0,1.489,1.489H5.6A1.491,1.491,0,0,0,7.046,62.2a12.516,12.516,0,0,0,4.579,1.577v6.888A2.087,2.087,0,0,0,13.71,72.75h.362v2.431H13.71a2.087,2.087,0,0,0-2.085,2.085V85.76a2.087,2.087,0,0,0,2.085,2.085H40.931v1.129a1.491,1.491,0,0,0,1.489,1.489H57.607A1.491,1.491,0,0,0,59.1,88.975V86.017a.894.894,0,1,0-1.787,0v2.659H42.718V69.99H53.966l3.344,3.344v8.513a.894.894,0,1,0,1.787,0V73.211a1.48,1.48,0,0,0-.436-1.053ZM5.3,61.551H1.787V58.036H5.3ZM49.2,43.7H52.72v3.515H49.2Zm-1.787,2.98v.833a1.491,1.491,0,0,0,1.489,1.489h1.333v6.47a.3.3,0,0,1-.3.3h-24.8a12.527,12.527,0,0,0,.812-3.923H37.672a.894.894,0,1,0,0-1.787H25.9a12.48,12.48,0,0,0-.807-3.38Zm.375,10.877v2.525H22.381a12.688,12.688,0,0,0,1.912-2.525ZM13.71,86.058a.3.3,0,0,1-.3-.3V77.266a.3.3,0,0,1,.3-.3H40.931v9.09ZM42.42,68.2a1.491,1.491,0,0,0-1.489,1.489v1.27H27.641a.894.894,0,1,0,0,1.787h13.29v2.431H15.86V72.75h7.611a.894.894,0,1,0,0-1.787H13.71a.3.3,0,0,1-.3-.3V63.9A12.534,12.534,0,0,0,20.2,61.872H49.941a.3.3,0,0,1,.3.3V68.2Z" transform="translate(0 -38.68)"/>
        <path id="Trazado_896642" data-name="Trazado 896642" d="M392.237,410.9h-6.551a.894.894,0,0,0,0,1.787h6.551a.894.894,0,0,0,0-1.787Z" transform="translate(-338.948 -366.549)"/>
        <path id="Trazado_896643" data-name="Trazado 896643" d="M392.237,372.4h-6.551a.894.894,0,0,0,0,1.787h6.551a.894.894,0,0,0,0-1.787Z" transform="translate(-338.948 -332.642)"/>
        <path id="Trazado_896644" data-name="Trazado 896644" d="M385.686,335.7H389.4a.894.894,0,1,0,0-1.787h-3.712a.894.894,0,1,0,0,1.787Z" transform="translate(-338.948 -298.736)"/>
        <path id="Trazado_896645" data-name="Trazado 896645" d="M458.094,207.255h-4.111a1.491,1.491,0,0,0-1.489,1.489v4.111a1.491,1.491,0,0,0,1.489,1.489h4.111a1.491,1.491,0,0,0,1.489-1.489v-4.111A1.491,1.491,0,0,0,458.094,207.255Zm-.3,5.3H454.28v-3.515H457.8Z" transform="translate(-398.583 -187.171)"/>
        <path id="Trazado_896646" data-name="Trazado 896646" d="M5.6,333.214H1.489A1.491,1.491,0,0,0,0,334.7v4.111A1.491,1.491,0,0,0,1.489,340.3H5.6a1.491,1.491,0,0,0,1.489-1.489V334.7A1.491,1.491,0,0,0,5.6,333.214Zm-.3,5.3H1.787V335H5.3Z" transform="translate(0 -298.123)"/>
        <path id="Trazado_896647" data-name="Trazado 896647" d="M29.593,259.344H25.482a1.491,1.491,0,0,0-1.489,1.489v4.111a1.491,1.491,0,0,0,1.489,1.489h4.111a1.491,1.491,0,0,0,1.489-1.489v-4.111A1.491,1.491,0,0,0,29.593,259.344Zm-.3,5.3H25.78v-3.516H29.3Z" transform="translate(-21.134 -233.054)"/>
      </g>
    </g>
  </g>
</svg>
